<?xml version="1.0" encoding="utf-8"?>
<!-- Generator: Adobe Illustrator 14.0.0, SVG Export Plug-In . SVG Version: 6.00 Build 43363)  -->
<!DOCTYPE svg PUBLIC "-//W3C//DTD SVG 1.1//EN" "http://www.w3.org/Graphics/SVG/1.1/DTD/svg11.dtd">
<svg version="1.1" id="Layer_1" xmlns="http://www.w3.org/2000/svg" xmlns:xlink="http://www.w3.org/1999/xlink" x="0px" y="0px"
	 width="1190.55px" height="841.89px" viewBox="0 0 1190.55 841.89" enable-background="new 0 0 1190.55 841.89"
	 xml:space="preserve">
<g id="Layer_2">
	
		<path fill="none" stroke="#000000" stroke-width="1.1339" stroke-linecap="round" stroke-linejoin="round" stroke-miterlimit="10" d="
		M28.919,303.363c0,156.572,126.928,283.502,283.501,283.502c156.573,0,283.501-126.93,283.501-283.502
		c0-156.574-126.928-283.501-283.501-283.501C155.847,19.862,28.919,146.789,28.919,303.363"/>
	
		<path fill="none" stroke="#000000" stroke-width="1.1339" stroke-linecap="round" stroke-linejoin="round" stroke-miterlimit="10" d="
		M280.243,303.363c0,17.771,14.406,32.178,32.177,32.178c17.771,0,32.177-14.407,32.177-32.178s-14.405-32.177-32.177-32.177
		C294.649,271.186,280.243,285.592,280.243,303.363"/>
	
		<line fill="none" stroke="#000000" stroke-width="1.1339" stroke-linecap="round" stroke-linejoin="round" stroke-miterlimit="10" x1="162.447" y1="96.941" x2="173.914" y2="88.609"/>
	
		<line fill="none" stroke="#000000" stroke-width="1.1339" stroke-linecap="round" stroke-linejoin="round" stroke-miterlimit="10" x1="69.757" y1="224.517" x2="74.137" y2="211.036"/>
	
		<line fill="none" stroke="#000000" stroke-width="1.1339" stroke-linecap="round" stroke-linejoin="round" stroke-miterlimit="10" x1="69.757" y1="382.209" x2="65.377" y2="368.727"/>
	
		<line fill="none" stroke="#000000" stroke-width="1.1339" stroke-linecap="round" stroke-linejoin="round" stroke-miterlimit="10" x1="162.447" y1="509.785" x2="150.978" y2="501.453"/>
	
		<line fill="none" stroke="#000000" stroke-width="1.1339" stroke-linecap="round" stroke-linejoin="round" stroke-miterlimit="10" x1="312.421" y1="558.513" x2="298.246" y2="558.513"/>
	
		<line fill="none" stroke="#000000" stroke-width="1.1339" stroke-linecap="round" stroke-linejoin="round" stroke-miterlimit="10" x1="462.395" y1="509.785" x2="450.927" y2="518.117"/>
	
		<line fill="none" stroke="#000000" stroke-width="1.1339" stroke-linecap="round" stroke-linejoin="round" stroke-miterlimit="10" x1="555.084" y1="382.209" x2="550.704" y2="395.69"/>
	
		<line fill="none" stroke="#000000" stroke-width="1.1339" stroke-linecap="round" stroke-linejoin="round" stroke-miterlimit="10" x1="555.084" y1="224.517" x2="559.464" y2="237.998"/>
	
		<line fill="none" stroke="#000000" stroke-width="1.1339" stroke-linecap="round" stroke-linejoin="round" stroke-miterlimit="10" x1="462.395" y1="96.941" x2="473.863" y2="105.273"/>
	
		<line fill="none" stroke="#000000" stroke-width="1.1339" stroke-linecap="round" stroke-linejoin="round" stroke-miterlimit="10" x1="312.421" y1="48.211" x2="326.596" y2="48.211"/>
	
		<line fill="none" stroke="#000000" stroke-width="1.1339" stroke-linecap="round" stroke-linejoin="round" stroke-miterlimit="10" x1="312.421" y1="48.211" x2="312.421" y2="90.737"/>
	
		<line fill="none" stroke="#000000" stroke-width="1.1339" stroke-linecap="round" stroke-linejoin="round" stroke-miterlimit="10" x1="312.421" y1="90.737" x2="326.596" y2="90.737"/>
	
		<line fill="none" stroke="#000000" stroke-width="1.1339" stroke-linecap="round" stroke-linejoin="round" stroke-miterlimit="10" x1="326.596" y1="48.211" x2="326.596" y2="90.737"/>
	
		<line fill="none" stroke="#000000" stroke-width="1.1339" stroke-linecap="round" stroke-linejoin="round" stroke-miterlimit="10" x1="462.395" y1="96.941" x2="437.399" y2="131.345"/>
	
		<line fill="none" stroke="#000000" stroke-width="1.1339" stroke-linecap="round" stroke-linejoin="round" stroke-miterlimit="10" x1="437.399" y1="131.345" x2="448.867" y2="139.676"/>
	
		<line fill="none" stroke="#000000" stroke-width="1.1339" stroke-linecap="round" stroke-linejoin="round" stroke-miterlimit="10" x1="473.863" y1="105.273" x2="448.867" y2="139.676"/>
	
		<line fill="none" stroke="#000000" stroke-width="1.1339" stroke-linecap="round" stroke-linejoin="round" stroke-miterlimit="10" x1="555.084" y1="224.517" x2="514.64" y2="237.658"/>
	
		<line fill="none" stroke="#000000" stroke-width="1.1339" stroke-linecap="round" stroke-linejoin="round" stroke-miterlimit="10" x1="514.64" y1="237.658" x2="519.021" y2="251.139"/>
	
		<line fill="none" stroke="#000000" stroke-width="1.1339" stroke-linecap="round" stroke-linejoin="round" stroke-miterlimit="10" x1="559.464" y1="237.998" x2="519.021" y2="251.139"/>
	
		<line fill="none" stroke="#000000" stroke-width="1.1339" stroke-linecap="round" stroke-linejoin="round" stroke-miterlimit="10" x1="555.084" y1="382.209" x2="514.64" y2="369.068"/>
	
		<line fill="none" stroke="#000000" stroke-width="1.1339" stroke-linecap="round" stroke-linejoin="round" stroke-miterlimit="10" x1="514.64" y1="369.068" x2="510.26" y2="382.549"/>
	
		<line fill="none" stroke="#000000" stroke-width="1.1339" stroke-linecap="round" stroke-linejoin="round" stroke-miterlimit="10" x1="550.704" y1="395.69" x2="510.26" y2="382.549"/>
	
		<line fill="none" stroke="#000000" stroke-width="1.1339" stroke-linecap="round" stroke-linejoin="round" stroke-miterlimit="10" x1="462.395" y1="509.785" x2="437.399" y2="475.38"/>
	
		<line fill="none" stroke="#000000" stroke-width="1.1339" stroke-linecap="round" stroke-linejoin="round" stroke-miterlimit="10" x1="437.399" y1="475.38" x2="425.931" y2="483.712"/>
	
		<line fill="none" stroke="#000000" stroke-width="1.1339" stroke-linecap="round" stroke-linejoin="round" stroke-miterlimit="10" x1="450.927" y1="518.117" x2="425.931" y2="483.712"/>
	
		<line fill="none" stroke="#000000" stroke-width="1.1339" stroke-linecap="round" stroke-linejoin="round" stroke-miterlimit="10" x1="312.421" y1="558.513" x2="312.421" y2="515.99"/>
	
		<line fill="none" stroke="#000000" stroke-width="1.1339" stroke-linecap="round" stroke-linejoin="round" stroke-miterlimit="10" x1="312.421" y1="515.99" x2="298.246" y2="515.99"/>
	
		<line fill="none" stroke="#000000" stroke-width="1.1339" stroke-linecap="round" stroke-linejoin="round" stroke-miterlimit="10" x1="298.246" y1="558.513" x2="298.246" y2="515.99"/>
	
		<line fill="none" stroke="#000000" stroke-width="1.1339" stroke-linecap="round" stroke-linejoin="round" stroke-miterlimit="10" x1="162.447" y1="509.785" x2="187.442" y2="475.38"/>
	
		<line fill="none" stroke="#000000" stroke-width="1.1339" stroke-linecap="round" stroke-linejoin="round" stroke-miterlimit="10" x1="187.442" y1="475.38" x2="175.974" y2="467.048"/>
	
		<line fill="none" stroke="#000000" stroke-width="1.1339" stroke-linecap="round" stroke-linejoin="round" stroke-miterlimit="10" x1="150.978" y1="501.453" x2="175.974" y2="467.048"/>
	
		<line fill="none" stroke="#000000" stroke-width="1.1339" stroke-linecap="round" stroke-linejoin="round" stroke-miterlimit="10" x1="69.757" y1="382.209" x2="110.201" y2="369.068"/>
	
		<line fill="none" stroke="#000000" stroke-width="1.1339" stroke-linecap="round" stroke-linejoin="round" stroke-miterlimit="10" x1="110.201" y1="369.068" x2="105.821" y2="355.586"/>
	
		<line fill="none" stroke="#000000" stroke-width="1.1339" stroke-linecap="round" stroke-linejoin="round" stroke-miterlimit="10" x1="65.377" y1="368.727" x2="105.821" y2="355.586"/>
	
		<line fill="none" stroke="#000000" stroke-width="1.1339" stroke-linecap="round" stroke-linejoin="round" stroke-miterlimit="10" x1="69.757" y1="224.517" x2="110.201" y2="237.658"/>
	
		<line fill="none" stroke="#000000" stroke-width="1.1339" stroke-linecap="round" stroke-linejoin="round" stroke-miterlimit="10" x1="110.201" y1="237.658" x2="114.581" y2="224.176"/>
	
		<line fill="none" stroke="#000000" stroke-width="1.1339" stroke-linecap="round" stroke-linejoin="round" stroke-miterlimit="10" x1="74.137" y1="211.036" x2="114.581" y2="224.176"/>
	
		<line fill="none" stroke="#000000" stroke-width="1.1339" stroke-linecap="round" stroke-linejoin="round" stroke-miterlimit="10" x1="162.447" y1="96.941" x2="187.442" y2="131.345"/>
	
		<line fill="none" stroke="#000000" stroke-width="1.1339" stroke-linecap="round" stroke-linejoin="round" stroke-miterlimit="10" x1="187.442" y1="131.345" x2="198.91" y2="123.013"/>
	
		<line fill="none" stroke="#000000" stroke-width="1.1339" stroke-linecap="round" stroke-linejoin="round" stroke-miterlimit="10" x1="173.914" y1="88.609" x2="198.91" y2="123.013"/>
	
		<path fill="none" stroke="#000000" stroke-width="1.1339" stroke-linecap="round" stroke-linejoin="round" stroke-miterlimit="10" d="
		M688.201,576.119c0,3.131,2.539,5.67,5.67,5.67s5.67-2.539,5.67-5.67c0-3.133-2.539-5.67-5.67-5.67
		S688.201,572.986,688.201,576.119"/>
	
		<path fill="none" stroke="#000000" stroke-width="1.1339" stroke-linecap="round" stroke-linejoin="round" stroke-miterlimit="10" d="
		M688.201,152.637c0,3.131,2.539,5.67,5.67,5.67s5.67-2.539,5.67-5.67c0-3.132-2.539-5.67-5.67-5.67
		S688.201,149.505,688.201,152.637"/>
	
		<path fill="none" stroke="#000000" stroke-width="1.1339" stroke-linecap="round" stroke-linejoin="round" stroke-miterlimit="10" d="
		M699.541,54.829c0,3.131-2.539,5.67-5.67,5.67s-5.67-2.539-5.67-5.67s2.539-5.67,5.67-5.67S699.541,51.698,699.541,54.829"/>
	
		<line fill="none" stroke="#000000" stroke-width="1.1339" stroke-linecap="round" stroke-linejoin="round" stroke-miterlimit="10" x1="630.792" y1="103.733" x2="630.792" y2="387.235"/>
	
		<path fill="none" stroke="#000000" stroke-width="1.1339" stroke-linecap="round" stroke-linejoin="round" stroke-miterlimit="10" d="
		M658.576,103.733c0,19.494,15.803,35.296,35.295,35.296c19.494,0,35.297-15.802,35.297-35.296
		c0-19.493-15.803-35.296-35.297-35.296C674.378,68.437,658.576,84.24,658.576,103.733"/>
	
		<path fill="none" stroke="#000000" stroke-width="1.1339" stroke-linecap="round" stroke-linejoin="round" stroke-miterlimit="10" d="
		M756.951,103.733c0-34.837-28.242-63.079-63.08-63.079s-63.078,28.242-63.078,63.079"/>
	
		<line fill="none" stroke="#000000" stroke-width="1.1339" stroke-linecap="round" stroke-linejoin="round" stroke-miterlimit="10" x1="756.951" y1="103.733" x2="756.951" y2="387.235"/>
	
		<path fill="none" stroke="#000000" stroke-width="1.1339" stroke-linecap="round" stroke-linejoin="round" stroke-miterlimit="10" d="
		M756.951,387.235c-15.877,26.083-31.541,52.378-31.541,78.673"/>
	
		<path fill="none" stroke="#000000" stroke-width="1.1339" stroke-linecap="round" stroke-linejoin="round" stroke-miterlimit="10" d="
		M725.41,465.908c0,26.295,15.664,52.588,31.541,78.672"/>
	
		<path fill="none" stroke="#000000" stroke-width="1.1339" stroke-linecap="round" stroke-linejoin="round" stroke-miterlimit="10" d="
		M630.792,544.58c0,34.836,28.24,63.078,63.078,63.078s63.08-28.242,63.08-63.078"/>
	
		<path fill="none" stroke="#000000" stroke-width="1.1339" stroke-linecap="round" stroke-linejoin="round" stroke-miterlimit="10" d="
		M630.792,387.235c15.875,26.083,31.539,52.378,31.539,78.673"/>
	
		<path fill="none" stroke="#000000" stroke-width="1.1339" stroke-linecap="round" stroke-linejoin="round" stroke-miterlimit="10" d="
		M662.332,465.908c0,26.295-15.664,52.588-31.539,78.672"/>
	
		<path fill="none" stroke="#000000" stroke-width="1.1339" stroke-linecap="round" stroke-linejoin="round" stroke-miterlimit="10" d="
		M883.693,579.119c0,3.131,2.539,5.67,5.67,5.67s5.67-2.539,5.67-5.67c0-3.133-2.539-5.67-5.67-5.67
		S883.693,575.986,883.693,579.119"/>
	
		<path fill="none" stroke="#000000" stroke-width="1.1339" stroke-linecap="round" stroke-linejoin="round" stroke-miterlimit="10" d="
		M883.693,155.637c0,3.131,2.539,5.67,5.67,5.67s5.67-2.539,5.67-5.67c0-3.132-2.539-5.67-5.67-5.67
		S883.693,152.505,883.693,155.637"/>
	
		<path fill="none" stroke="#000000" stroke-width="1.1339" stroke-linecap="round" stroke-linejoin="round" stroke-miterlimit="10" d="
		M895.031,57.829c0,3.131-2.539,5.67-5.67,5.67s-5.67-2.539-5.67-5.67s2.539-5.67,5.67-5.67S895.031,54.698,895.031,57.829"/>
	
		<line fill="none" stroke="#000000" stroke-width="1.1339" stroke-linecap="round" stroke-linejoin="round" stroke-miterlimit="10" x1="826.283" y1="106.733" x2="826.283" y2="390.235"/>
	
		<path fill="none" stroke="#000000" stroke-width="1.1339" stroke-linecap="round" stroke-linejoin="round" stroke-miterlimit="10" d="
		M854.068,106.733c0,19.494,15.803,35.296,35.295,35.296c19.494,0,35.297-15.802,35.297-35.296
		c0-19.493-15.803-35.296-35.297-35.296S854.068,87.24,854.068,106.733"/>
	
		<path fill="none" stroke="#000000" stroke-width="1.1339" stroke-linecap="round" stroke-linejoin="round" stroke-miterlimit="10" d="
		M952.443,106.733c0-34.837-28.242-63.079-63.08-63.079s-63.078,28.242-63.078,63.079"/>
	
		<line fill="none" stroke="#000000" stroke-width="1.1339" stroke-linecap="round" stroke-linejoin="round" stroke-miterlimit="10" x1="952.443" y1="106.733" x2="952.443" y2="390.235"/>
	
		<path fill="none" stroke="#000000" stroke-width="1.1339" stroke-linecap="round" stroke-linejoin="round" stroke-miterlimit="10" d="
		M952.443,390.235c-15.877,26.083-31.541,52.378-31.541,78.673"/>
	
		<path fill="none" stroke="#000000" stroke-width="1.1339" stroke-linecap="round" stroke-linejoin="round" stroke-miterlimit="10" d="
		M920.902,468.908c0,26.295,15.664,52.588,31.541,78.672"/>
	
		<path fill="none" stroke="#000000" stroke-width="1.1339" stroke-linecap="round" stroke-linejoin="round" stroke-miterlimit="10" d="
		M826.283,547.58c0,34.836,28.24,63.078,63.078,63.078s63.08-28.242,63.08-63.078"/>
	
		<path fill="none" stroke="#000000" stroke-width="1.1339" stroke-linecap="round" stroke-linejoin="round" stroke-miterlimit="10" d="
		M826.283,390.235c15.875,26.083,31.539,52.378,31.539,78.673"/>
	
		<path fill="none" stroke="#000000" stroke-width="1.1339" stroke-linecap="round" stroke-linejoin="round" stroke-miterlimit="10" d="
		M857.824,468.908c0,26.295-15.664,52.588-31.539,78.672"/>
	
		<path fill="none" stroke="#000000" stroke-width="1.1339" stroke-linecap="round" stroke-linejoin="round" stroke-miterlimit="10" d="
		M359.353,272.719c0,3.131,2.539,5.67,5.671,5.67c3.131,0,5.67-2.539,5.67-5.67c0-3.131-2.539-5.67-5.67-5.67
		C361.892,267.049,359.353,269.588,359.353,272.719"/>
	
		<path fill="none" stroke="#000000" stroke-width="1.1339" stroke-linecap="round" stroke-linejoin="round" stroke-miterlimit="10" d="
		M254.148,272.932c0,3.132,2.539,5.67,5.67,5.67c3.131,0,5.67-2.539,5.67-5.67c0-3.131-2.539-5.67-5.67-5.67
		C256.687,267.262,254.148,269.8,254.148,272.932"/>
	
		<path fill="none" stroke="#000000" stroke-width="1.1339" stroke-linecap="round" stroke-linejoin="round" stroke-miterlimit="10" d="
		M306.935,363.936c0,3.131,2.539,5.67,5.671,5.67c3.131,0,5.67-2.539,5.67-5.67c0-3.132-2.539-5.67-5.67-5.67
		C309.474,358.266,306.935,360.804,306.935,363.936"/>
</g>
<g id="Layer_4">
	<line fill="none" stroke="#69BD45" x1="382.332" y1="88.162" x2="391.092" y2="61.202"/>
	<line fill="none" stroke="#69BD45" x1="338.535" y1="222.957" x2="347.294" y2="195.997"/>
	<line fill="none" stroke="#69BD45" x1="347.294" y1="195.997" x2="356.054" y2="169.038"/>
	<line fill="none" stroke="#69BD45" x1="356.054" y1="169.038" x2="364.812" y2="142.079"/>
	<line fill="none" stroke="#69BD45" x1="364.812" y1="142.079" x2="373.573" y2="115.119"/>
	<line fill="none" stroke="#69BD45" x1="373.573" y1="115.119" x2="382.333" y2="88.16"/>
	<line fill="none" stroke="#69BD45" x1="277.537" y1="410.689" x2="286.296" y2="383.73"/>
	<line fill="none" stroke="#69BD45" x1="268.777" y1="437.648" x2="277.537" y2="410.689"/>
	<line fill="none" stroke="#69BD45" x1="260.018" y1="464.607" x2="268.777" y2="437.648"/>
	<line fill="none" stroke="#69BD45" x1="251.258" y1="491.566" x2="260.018" y2="464.607"/>
	<line fill="none" stroke="#69BD45" x1="242.498" y1="518.527" x2="251.258" y2="491.566"/>
	<line fill="none" stroke="#69BD45" x1="233.738" y1="545.486" x2="242.498" y2="518.527"/>
	<line fill="none" stroke="#69BD45" x1="338.535" y1="222.957" x2="312.421" y2="303.326"/>
	<line fill="none" stroke="#69BD45" x1="312.421" y1="303.326" x2="286.308" y2="383.696"/>
	<line fill="none" stroke="#69BD45" x1="495.46" y1="170.354" x2="518.393" y2="153.691"/>
	<line fill="none" stroke="#69BD45" x1="380.796" y1="253.662" x2="403.729" y2="237"/>
	<line fill="none" stroke="#69BD45" x1="403.729" y1="237" x2="426.663" y2="220.338"/>
	<line fill="none" stroke="#69BD45" x1="426.663" y1="220.338" x2="449.596" y2="203.677"/>
	<line fill="none" stroke="#69BD45" x1="449.596" y1="203.677" x2="472.53" y2="187.014"/>
	<line fill="none" stroke="#69BD45" x1="472.53" y1="187.014" x2="495.462" y2="170.354"/>
	<line fill="none" stroke="#69BD45" x1="221.102" y1="369.688" x2="244.035" y2="353.025"/>
	<line fill="none" stroke="#69BD45" x1="198.169" y1="386.349" x2="221.102" y2="369.688"/>
	<line fill="none" stroke="#69BD45" x1="175.236" y1="403.011" x2="198.169" y2="386.349"/>
	<line fill="none" stroke="#69BD45" x1="152.303" y1="419.672" x2="175.236" y2="403.011"/>
	<line fill="none" stroke="#69BD45" x1="129.369" y1="436.335" x2="152.303" y2="419.672"/>
	<line fill="none" stroke="#69BD45" x1="106.437" y1="452.996" x2="129.369" y2="436.335"/>
	<line fill="none" stroke="#69BD45" x1="380.796" y1="253.662" x2="312.43" y2="303.332"/>
	<line fill="none" stroke="#69BD45" x1="312.43" y1="303.332" x2="244.064" y2="353.004"/>
	<line fill="none" stroke="#69BD45" x1="538.671" y1="303.344" x2="567.019" y2="303.344"/>
	<line fill="none" stroke="#69BD45" x1="396.938" y1="303.344" x2="425.286" y2="303.344"/>
	<line fill="none" stroke="#69BD45" x1="425.286" y1="303.344" x2="453.633" y2="303.344"/>
	<line fill="none" stroke="#69BD45" x1="453.633" y1="303.344" x2="481.979" y2="303.344"/>
	<line fill="none" stroke="#69BD45" x1="481.979" y1="303.344" x2="510.327" y2="303.344"/>
	<line fill="none" stroke="#69BD45" x1="510.327" y1="303.344" x2="538.673" y2="303.345"/>
	<line fill="none" stroke="#69BD45" x1="199.545" y1="303.345" x2="227.892" y2="303.344"/>
	<line fill="none" stroke="#69BD45" x1="171.199" y1="303.344" x2="199.545" y2="303.345"/>
	<line fill="none" stroke="#69BD45" x1="142.853" y1="303.344" x2="171.199" y2="303.344"/>
	<line fill="none" stroke="#69BD45" x1="114.506" y1="303.344" x2="142.853" y2="303.344"/>
	<line fill="none" stroke="#69BD45" x1="86.158" y1="303.344" x2="114.506" y2="303.344"/>
	<line fill="none" stroke="#69BD45" x1="57.812" y1="303.344" x2="86.158" y2="303.344"/>
	<line fill="none" stroke="#69BD45" x1="396.938" y1="303.344" x2="312.435" y2="303.344"/>
	<line fill="none" stroke="#69BD45" x1="312.435" y1="303.344" x2="227.928" y2="303.344"/>
	<line fill="none" stroke="#69BD45" x1="495.46" y1="436.333" x2="518.394" y2="452.996"/>
	<line fill="none" stroke="#69BD45" x1="380.796" y1="353.025" x2="403.729" y2="369.688"/>
	<line fill="none" stroke="#69BD45" x1="403.729" y1="369.688" x2="426.663" y2="386.35"/>
	<line fill="none" stroke="#69BD45" x1="426.663" y1="386.35" x2="449.596" y2="403.012"/>
	<line fill="none" stroke="#69BD45" x1="449.596" y1="403.012" x2="472.53" y2="419.674"/>
	<line fill="none" stroke="#69BD45" x1="472.53" y1="419.674" x2="495.461" y2="436.335"/>
	<line fill="none" stroke="#69BD45" x1="221.101" y1="237.002" x2="244.035" y2="253.662"/>
	<line fill="none" stroke="#69BD45" x1="198.169" y1="220.34" x2="221.101" y2="237.002"/>
	<line fill="none" stroke="#69BD45" x1="175.236" y1="203.678" x2="198.169" y2="220.34"/>
	<line fill="none" stroke="#69BD45" x1="152.304" y1="187.016" x2="175.236" y2="203.678"/>
	<line fill="none" stroke="#69BD45" x1="129.369" y1="170.354" x2="152.304" y2="187.016"/>
	<line fill="none" stroke="#69BD45" x1="106.437" y1="153.691" x2="129.369" y2="170.354"/>
	<line fill="none" stroke="#69BD45" x1="380.796" y1="353.025" x2="312.431" y2="303.355"/>
	<line fill="none" stroke="#69BD45" x1="312.431" y1="303.355" x2="244.064" y2="253.684"/>
	<line fill="none" stroke="#69BD45" x1="382.332" y1="518.527" x2="391.092" y2="545.486"/>
	<line fill="none" stroke="#69BD45" x1="338.535" y1="383.73" x2="347.294" y2="410.69"/>
	<line fill="none" stroke="#69BD45" x1="347.294" y1="410.69" x2="356.054" y2="437.65"/>
	<line fill="none" stroke="#69BD45" x1="356.054" y1="437.65" x2="364.812" y2="464.609"/>
	<line fill="none" stroke="#69BD45" x1="364.812" y1="464.609" x2="373.573" y2="491.57"/>
	<line fill="none" stroke="#69BD45" x1="373.573" y1="491.57" x2="382.332" y2="518.529"/>
	<line fill="none" stroke="#69BD45" x1="277.535" y1="196" x2="286.296" y2="222.958"/>
	<line fill="none" stroke="#69BD45" x1="268.777" y1="169.041" x2="277.535" y2="196"/>
	<line fill="none" stroke="#69BD45" x1="260.018" y1="142.08" x2="268.777" y2="169.041"/>
	<line fill="none" stroke="#69BD45" x1="251.258" y1="115.121" x2="260.018" y2="142.08"/>
	<line fill="none" stroke="#69BD45" x1="242.498" y1="88.16" x2="251.258" y2="115.121"/>
	<line fill="none" stroke="#69BD45" x1="233.74" y1="61.201" x2="242.498" y2="88.16"/>
	<line fill="none" stroke="#69BD45" x1="338.535" y1="383.73" x2="312.421" y2="303.363"/>
	<line fill="none" stroke="#69BD45" x1="312.421" y1="303.363" x2="286.308" y2="222.992"/>
	<line fill="none" stroke="#69BD45" x1="693.998" y1="104.634" x2="693.998" y2="576.38"/>
	<line fill="none" stroke="#69BD45" x1="889.634" y1="107.675" x2="889.634" y2="579.421"/>
</g>
<g id="Layer_3">
	<circle fill="#ED1F24" cx="140.514" cy="303.192" r="42.52"/>
	<g>
		<path fill="#ED1F24" d="M705.925,402.784h0.562c-0.035,1.178-0.055,2.107-0.055,2.795c0,0.457,0.008,0.943,0.02,1.459l0.043,1.38
			c0.006,0.152,0.01,0.293,0.01,0.422c0,0.934-0.104,1.664-0.309,2.197s-0.531,0.949-0.98,1.248
			c-0.447,0.299-0.959,0.448-1.533,0.448c-0.516,0-1.025-0.125-1.537-0.373c-0.51-0.25-0.941-0.611-1.297-1.086
			c-0.354-0.477-0.605-0.972-0.76-1.485c-0.104-0.352-0.158-0.75-0.158-1.195c0-0.375,0.041-0.777,0.123-1.213l0.658-0.185
			c-0.117,0.521-0.176,0.932-0.176,1.229c0,0.439,0.105,0.857,0.32,1.252c0.213,0.396,0.533,0.703,0.965,0.923
			c0.43,0.222,0.904,0.33,1.426,0.33c0.504,0,0.959-0.105,1.365-0.319c0.404-0.214,0.715-0.539,0.926-0.978
			c0.211-0.437,0.314-0.965,0.314-1.586c0-0.557-0.1-1.154-0.299-1.793c-0.621-0.053-1.594-0.079-2.918-0.079h-4.43
			c-0.797,0-1.574,0.009-2.33,0.026c-0.557,0.018-0.887,0.06-0.992,0.127c-0.104,0.066-0.184,0.176-0.232,0.325
			c-0.049,0.147-0.08,0.571-0.092,1.27h-0.562c0.047-1.084,0.07-1.881,0.07-2.391c0-0.199-0.023-1.116-0.07-2.751h0.562
			c0.012,0.689,0.043,1.111,0.092,1.266c0.051,0.152,0.119,0.258,0.207,0.316c0.115,0.068,0.4,0.113,0.854,0.132
			c0.123,0.006,0.955,0.018,2.496,0.035h4.068c0.797,0,1.574-0.009,2.338-0.026c0.557-0.018,0.887-0.06,0.986-0.127
			c0.105-0.067,0.182-0.176,0.23-0.325C705.882,403.904,705.914,403.481,705.925,402.784z"/>
		<path fill="#ED1F24" d="M693.998,413.295h0.492l0.01,0.826c0.006,0.129,0.027,0.227,0.064,0.294s0.088,0.119,0.146,0.154
			c0.117,0.062,0.324,0.103,0.623,0.112c0.076,0.008,0.918,0.026,2.525,0.062h4.547c0.979,0,1.988-0.02,3.033-0.053
			c0.701-0.023,1.098-0.058,1.18-0.099c0.059-0.027,0.1-0.075,0.123-0.141c0.041-0.088,0.061-0.492,0.061-1.213h0.521
			c0.164,1.324,0.369,2.244,0.613,2.76c0.035,0.076,0.055,0.135,0.055,0.176s-0.016,0.073-0.039,0.099
			c-0.027,0.021-0.062,0.033-0.109,0.033c-0.041,0-0.1-0.006-0.176-0.018l-0.291-0.009c-1.049-0.029-1.941-0.047-2.68-0.055
			l-1.371-0.018h-2.566c0.064,0.082,0.264,0.313,0.6,0.694c0.334,0.381,0.531,0.604,0.598,0.677
			c0.104,0.111,0.176,0.199,0.211,0.264c0.059,0.111,0.117,0.278,0.176,0.501c0.082,0.307,0.123,0.603,0.123,0.89
			c0,0.539-0.129,1.05-0.383,1.532c-0.256,0.482-0.576,0.82-0.965,1.007c-0.387,0.188-0.959,0.279-1.715,0.279h-1.549l-1.217,0.027
			c-0.756,0.018-1.182,0.025-1.273,0.025c-0.281,0.012-0.486,0.047-0.615,0.105c-0.061,0.023-0.107,0.059-0.145,0.105
			s-0.064,0.115-0.084,0.211c-0.006,0.035-0.016,0.34-0.025,0.914h-0.492c0.029-0.668,0.045-1.154,0.045-1.459
			c0-0.262-0.016-0.79-0.045-1.592c0.867,0.081,1.711,0.122,2.531,0.122h2.18c0.68,0,1.17-0.05,1.469-0.147
			c0.299-0.099,0.566-0.304,0.805-0.611c0.236-0.307,0.355-0.716,0.355-1.226c0-0.322-0.047-0.609-0.143-0.861
			s-0.234-0.482-0.422-0.694c-0.188-0.211-0.393-0.39-0.607-0.534c-0.104-0.07-0.23-0.117-0.383-0.143
			c-0.148-0.021-0.449-0.035-0.9-0.035h-1.029c-1.521,0.029-2.342,0.047-2.465,0.055c-0.293,0.012-0.508,0.047-0.643,0.104
			c-0.059,0.023-0.107,0.061-0.146,0.105c-0.035,0.047-0.062,0.116-0.082,0.211c-0.006,0.041-0.016,0.365-0.025,0.976h-0.492
			c0.041-1.043,0.062-1.764,0.062-2.162C694.06,415.208,694.039,414.456,693.998,413.295z"/>
		<path fill="#ED1F24" d="M695.361,431.419l-0.635-0.281c-0.252-0.404-0.418-0.701-0.5-0.889c-0.121-0.275-0.227-0.59-0.312-0.945
			c-0.084-0.354-0.127-0.727-0.127-1.119c0-0.773,0.162-1.473,0.482-2.1c0.322-0.625,0.805-1.111,1.445-1.459
			c0.643-0.348,1.395-0.52,2.254-0.52c0.674,0,1.281,0.092,1.824,0.273c0.541,0.188,0.941,0.396,1.199,0.629
			c0.188,0.17,0.4,0.436,0.646,0.791c0.242,0.357,0.436,0.711,0.574,1.062c0.193,0.463,0.291,0.965,0.291,1.504
			c0,0.656-0.15,1.248-0.449,1.777c-0.299,0.531-0.705,0.92-1.221,1.166s-1.1,0.369-1.75,0.369c-0.164,0-0.363-0.012-0.598-0.035
			c-0.082-0.424-0.137-0.801-0.158-1.137c-0.047-0.633-0.07-1.268-0.07-1.9v-2.824c-0.838,0.012-1.516,0.154-2.033,0.436
			c-0.52,0.277-0.9,0.66-1.146,1.15c-0.246,0.488-0.369,0.998-0.369,1.523c0,0.357,0.059,0.715,0.172,1.068
			c0.115,0.355,0.324,0.793,0.629,1.314L695.361,431.419z M698.964,425.785c-0.018,0.164-0.035,0.477-0.053,0.934
			c-0.029,0.875-0.045,1.48-0.045,1.809c0,0.777,0.016,1.295,0.045,1.541c0.139,0.006,0.248,0.01,0.324,0.01
			c0.922,0,1.6-0.189,2.031-0.564c0.434-0.375,0.648-0.877,0.648-1.506c0-0.664-0.238-1.197-0.711-1.604
			C700.732,425.996,699.988,425.791,698.964,425.785z M703.253,427.419v-0.738l2.604,2.523c0.232,0.229,0.377,0.393,0.43,0.496
			c0.053,0.102,0.08,0.219,0.08,0.348c0,0.217-0.066,0.393-0.199,0.527c-0.131,0.135-0.297,0.201-0.496,0.201
			c-0.129,0-0.248-0.039-0.354-0.119c-0.109-0.078-0.242-0.246-0.4-0.504L703.253,427.419z"/>
		<path fill="#ED1F24" d="M693.998,432.527h0.492l0.01,0.834c0.006,0.123,0.027,0.219,0.064,0.287
			c0.037,0.064,0.088,0.117,0.146,0.152c0.117,0.064,0.324,0.105,0.623,0.123c0.076,0,0.92,0.018,2.527,0.053h1.047
			c0.469,0,0.973-0.01,1.514-0.025c0.346-0.02,0.551-0.047,0.615-0.084c0.062-0.039,0.111-0.105,0.145-0.197
			c0.031-0.094,0.045-0.475,0.039-1.143h0.502c0.164,1.182,0.377,2.043,0.643,2.586c0.059,0.115,0.088,0.193,0.088,0.234
			s-0.016,0.072-0.043,0.098c-0.029,0.023-0.074,0.033-0.133,0.033c-0.041,0-0.09-0.002-0.143-0.008
			c-0.211-0.018-0.656-0.035-1.336-0.053l1.398,1.637c0.176,0.48,0.264,0.936,0.264,1.365c0,0.475-0.098,0.926-0.291,1.35
			c-0.193,0.426-0.438,0.746-0.73,0.961c-0.293,0.213-0.66,0.355-1.107,0.426c-0.264,0.041-1,0.062-2.207,0.062h-1.561
			c-0.762,0-1.279,0.02-1.557,0.061c-0.176,0.029-0.299,0.074-0.365,0.137c-0.066,0.061-0.107,0.156-0.127,0.285l-0.025,0.941
			h-0.492c0.041-0.574,0.062-1.053,0.062-1.434c0-0.328-0.021-0.873-0.062-1.635c1.447,0.082,2.361,0.123,2.742,0.123h1.477
			c0.92,0,1.523-0.035,1.812-0.105c0.393-0.1,0.709-0.326,0.947-0.678c0.24-0.355,0.361-0.777,0.361-1.277
			c0-0.439-0.105-0.842-0.312-1.207c-0.209-0.363-0.447-0.623-0.723-0.777c-0.27-0.156-0.73-0.234-1.377-0.234h-1.062
			c-1.525,0.035-2.352,0.053-2.475,0.053c-0.293,0.014-0.508,0.047-0.643,0.105c-0.055,0.023-0.102,0.059-0.139,0.105
			c-0.039,0.047-0.066,0.119-0.092,0.221c-0.006,0.033-0.016,0.355-0.025,0.965h-0.492c0.041-0.713,0.062-1.359,0.062-1.938
			C694.06,434.439,694.039,433.638,693.998,432.527z"/>
		<path fill="#ED1F24" d="M700.019,444.664l0.123-0.467c0.137,0.006,0.318,0.01,0.555,0.01c0.246,0,0.441-0.004,0.59-0.01
			c0.484,0.744,0.812,1.354,0.982,1.828c0.123,0.363,0.186,0.771,0.186,1.223c0,0.668-0.125,1.23-0.377,1.688
			c-0.252,0.459-0.613,0.801-1.082,1.021c-0.328,0.152-0.775,0.229-1.344,0.229l-1.609-0.033h-2.619
			c-0.281,0-0.48,0.021-0.604,0.068c-0.09,0.035-0.152,0.09-0.193,0.166c-0.035,0.061-0.059,0.184-0.07,0.369l-0.053,0.572H694
			c0.041-0.48,0.062-0.902,0.062-1.268c0-0.352-0.021-0.818-0.062-1.404l1.547,0.043c-0.9-1.195-1.41-1.904-1.523-2.127
			c-0.113-0.225-0.172-0.504-0.172-0.846c0-0.709,0.188-1.262,0.566-1.654c0.377-0.396,0.881-0.596,1.508-0.596
			c0.404,0,0.773,0.068,1.107,0.207s0.598,0.305,0.795,0.496c0.195,0.193,0.342,0.393,0.436,0.59
			c0.158,0.342,0.328,0.893,0.512,1.656c0.182,0.764,0.314,1.521,0.402,2.271c0.559,0.006,0.99-0.062,1.303-0.201
			c0.311-0.143,0.562-0.379,0.764-0.713s0.299-0.74,0.299-1.223c0-0.346-0.047-0.648-0.141-0.908
			c-0.096-0.264-0.172-0.422-0.236-0.48l-0.316-0.158C700.494,444.857,700.218,444.74,700.019,444.664z M698.638,448.697
			c-0.129-0.762-0.27-1.412-0.43-1.951s-0.322-0.92-0.492-1.143c-0.1-0.135-0.25-0.252-0.449-0.352
			c-0.293-0.152-0.615-0.229-0.975-0.229c-0.436,0-0.773,0.117-1.016,0.357c-0.244,0.24-0.365,0.574-0.365,1.002
			c0,0.396,0.113,0.779,0.338,1.164c0.227,0.383,0.564,0.77,1.016,1.146h2.373V448.697L698.638,448.697z"/>
		<path fill="#ED1F24" d="M693.998,452.099h0.51l0.01,0.826c0.008,0.129,0.027,0.229,0.064,0.293
			c0.039,0.068,0.088,0.119,0.146,0.154c0.115,0.062,0.324,0.104,0.623,0.115c0.076,0.006,0.916,0.023,2.521,0.061h3.646
			c0.979,0,1.986-0.018,3.029-0.053c0.703-0.023,1.096-0.055,1.178-0.096c0.061-0.029,0.102-0.076,0.123-0.143
			c0.041-0.088,0.062-0.492,0.062-1.213h0.518c0.164,1.324,0.369,2.244,0.615,2.76c0.035,0.076,0.053,0.137,0.053,0.176
			c0,0.041-0.014,0.072-0.039,0.098c-0.025,0.021-0.062,0.035-0.109,0.035c-0.041,0-0.102-0.008-0.174-0.02l-0.291-0.008
			c-1.051-0.029-1.941-0.047-2.68-0.053l-1.371-0.02h-3.529l-0.055,0.098c0.193,0.311,0.537,0.76,1.027,1.346
			c0.334,0.393,1.143,1.273,2.426,2.645c-0.018,0.451-0.025,0.738-0.025,0.861c0,0.117,0.01,0.414,0.025,0.889h-0.492
			c-0.018-0.34-0.041-0.557-0.068-0.648c-0.041-0.129-0.178-0.373-0.404-0.73c-0.357-0.561-0.863-1.236-1.52-2.027l-0.713-0.896
			c-0.484,0.477-1.301,1.295-2.439,2.461c-0.896,0.879-1.42,1.406-1.568,1.586s-0.236,0.355-0.268,0.523s-0.045,0.434-0.045,0.791
			h-0.396c-0.084-0.436-0.16-0.801-0.229-1.102c-0.07-0.299-0.15-0.641-0.246-1.025c0.166-0.199,0.336-0.395,0.512-0.58
			c0.174-0.189,0.562-0.572,1.158-1.152c1.219-1.188,2.17-2.168,2.855-2.936l-0.043-0.098h-0.521
			c-1.521,0.029-2.346,0.047-2.469,0.055c-0.293,0.006-0.508,0.041-0.645,0.104c-0.053,0.023-0.098,0.062-0.135,0.105
			c-0.039,0.047-0.068,0.117-0.094,0.211c-0.006,0.041-0.016,0.365-0.025,0.975h-0.51c0.047-0.77,0.07-1.473,0.07-2.1
			C694.07,453.757,694.044,453.001,693.998,452.099z"/>
		<path fill="#ED1F24" d="M701.222,462.162h0.502c0.129,1.137,0.375,2.092,0.738,2.865l-0.141,0.193
			c-1.248-0.047-2.203-0.07-2.865-0.07h-1.6c-1.523,0.029-2.35,0.047-2.473,0.053c-0.293,0.006-0.506,0.039-0.641,0.098
			c-0.053,0.029-0.102,0.066-0.137,0.113c-0.039,0.047-0.068,0.117-0.094,0.211c-0.006,0.035-0.016,0.361-0.025,0.977h-0.492
			c0.041-0.891,0.062-1.604,0.062-2.137c0-0.469-0.021-1.236-0.062-2.303h0.492l0.01,0.836c0.006,0.123,0.027,0.217,0.062,0.285
			c0.039,0.066,0.09,0.119,0.146,0.154c0.117,0.064,0.326,0.105,0.625,0.123c0.076,0,0.916,0.018,2.521,0.053h1.547
			c0.873,0,1.393-0.029,1.557-0.088c0.088-0.035,0.154-0.1,0.197-0.189C701.201,463.244,701.222,462.853,701.222,462.162z
			 M706.373,464.306c0,0.275-0.096,0.51-0.289,0.699s-0.428,0.285-0.703,0.285c-0.27,0-0.502-0.096-0.695-0.289
			c-0.191-0.193-0.287-0.426-0.287-0.695c0-0.273,0.096-0.51,0.287-0.703c0.193-0.191,0.428-0.287,0.695-0.287
			c0.275,0,0.51,0.096,0.703,0.287C706.277,463.796,706.373,464.031,706.373,464.306z"/>
		<path fill="#ED1F24" d="M696.654,467.822v0.527c-0.342,0.006-0.609,0.023-0.811,0.053s-0.395,0.08-0.584,0.15
			s-0.352,0.178-0.482,0.324s-0.234,0.307-0.309,0.48c-0.074,0.172-0.123,0.348-0.146,0.523c-0.023,0.178-0.035,0.449-0.035,0.812
			c0,0.598,0.158,1.088,0.475,1.473c0.316,0.383,0.75,0.574,1.303,0.574c0.244,0,0.463-0.061,0.648-0.18
			c0.189-0.121,0.334-0.293,0.439-0.518c0.104-0.227,0.242-0.711,0.414-1.455c0.17-0.744,0.293-1.225,0.367-1.441
			c0.123-0.328,0.271-0.59,0.447-0.783c0.178-0.193,0.398-0.346,0.668-0.461c0.271-0.113,0.562-0.172,0.879-0.172
			c0.465,0,0.893,0.121,1.279,0.365c0.391,0.242,0.707,0.625,0.949,1.146c0.244,0.52,0.365,1.09,0.365,1.705
			c0,0.369-0.053,0.797-0.154,1.281s-0.23,0.885-0.383,1.189c-0.65-0.041-1.312-0.07-1.986-0.088v-0.502
			c0.428-0.029,0.709-0.062,0.844-0.104c0.137-0.037,0.256-0.09,0.361-0.15c0.104-0.064,0.219-0.178,0.338-0.334
			c0.121-0.158,0.229-0.363,0.32-0.611c0.094-0.25,0.141-0.555,0.141-0.918c0-0.516-0.15-0.932-0.457-1.244
			c-0.305-0.314-0.662-0.471-1.072-0.471c-0.229,0-0.424,0.045-0.588,0.137c-0.164,0.09-0.297,0.213-0.398,0.365
			c-0.104,0.15-0.195,0.365-0.277,0.641l-0.359,1.459c-0.188,0.738-0.35,1.246-0.482,1.525c-0.135,0.277-0.344,0.502-0.627,0.672
			c-0.285,0.17-0.627,0.256-1.025,0.256c-0.791,0-1.479-0.328-2.066-0.98c-0.592-0.654-0.887-1.527-0.887-2.623
			c0-0.504,0.076-1.176,0.23-2.014c0.088-0.463,0.148-0.711,0.184-0.746c0.02-0.023,0.049-0.035,0.09-0.035s0.092,0.006,0.148,0.018
			c0.252,0.053,0.498,0.088,0.738,0.105S695.89,467.81,696.654,467.822z"/>
		<path fill="#ED1F24" d="M700.888,475.039h0.369c0.225,0.586,0.422,1.051,0.6,1.396c1.395,0,2.283-0.018,2.672-0.053
			c0.211,0.609,0.438,1.105,0.678,1.486l-0.176,0.211c-0.486-0.064-1.561-0.135-3.219-0.211c-0.006,0.469-0.01,0.75-0.01,0.844
			c0,0.053,0.006,0.354,0.02,0.904c0.006,0.305,0.018,0.533,0.035,0.686l-0.062,0.062l-0.816-0.189
			c0.008-0.369,0.01-0.709,0.01-1.02s-0.002-0.74-0.01-1.291l-3.576-0.053c-0.873-0.018-1.396-0.012-1.564,0.018
			c-0.168,0.031-0.316,0.084-0.443,0.166c-0.125,0.082-0.227,0.189-0.303,0.322c-0.076,0.131-0.135,0.355-0.176,0.672
			c0,0.24,0.01,0.436,0.031,0.584c0.02,0.15,0.068,0.338,0.15,0.566l-0.342,0.105c-0.217-0.275-0.443-0.541-0.678-0.799
			c-0.082-0.227-0.137-0.436-0.162-0.625c-0.025-0.193-0.039-0.416-0.039-0.668c0-0.312,0.035-0.561,0.104-0.742
			c0.07-0.188,0.168-0.355,0.295-0.506c0.125-0.152,0.285-0.277,0.48-0.377c0.193-0.104,0.498-0.164,0.914-0.193
			c0.396,0.006,0.834,0.018,1.309,0.035c0.096,0.006,0.197,0.008,0.311,0.008h3.645v-0.359
			C700.933,475.73,700.917,475.402,700.888,475.039z"/>
		<path fill="#ED1F24" d="M701.222,480.9h0.502c0.129,1.137,0.375,2.092,0.738,2.865l-0.141,0.193
			c-1.248-0.047-2.203-0.07-2.865-0.07h-1.6c-1.523,0.029-2.35,0.047-2.473,0.053c-0.293,0.006-0.506,0.039-0.641,0.098
			c-0.053,0.029-0.102,0.066-0.137,0.113c-0.039,0.047-0.068,0.117-0.094,0.211c-0.006,0.035-0.016,0.361-0.025,0.977h-0.492
			c0.041-0.891,0.062-1.604,0.062-2.137c0-0.469-0.021-1.236-0.062-2.303h0.492l0.01,0.836c0.006,0.123,0.027,0.217,0.062,0.285
			c0.039,0.066,0.09,0.119,0.146,0.154c0.117,0.064,0.326,0.105,0.625,0.123c0.076,0,0.916,0.018,2.521,0.053h1.547
			c0.873,0,1.393-0.029,1.557-0.088c0.088-0.035,0.154-0.1,0.197-0.189C701.201,481.982,701.222,481.591,701.222,480.9z
			 M706.373,483.044c0,0.275-0.096,0.508-0.289,0.699c-0.193,0.188-0.428,0.285-0.703,0.285c-0.27,0-0.502-0.098-0.695-0.289
			c-0.191-0.193-0.287-0.426-0.287-0.695c0-0.275,0.096-0.51,0.287-0.703c0.193-0.191,0.428-0.289,0.695-0.289
			c0.275,0,0.51,0.098,0.703,0.289C706.277,482.535,706.373,482.769,706.373,483.044z"/>
		<path fill="#ED1F24" d="M695.009,493.373l-0.59-0.352c-0.217-0.404-0.375-0.805-0.475-1.199c-0.102-0.396-0.148-0.844-0.148-1.342
			c0-1.23,0.369-2.209,1.111-2.939c0.74-0.729,1.76-1.094,3.055-1.094c0.688,0,1.281,0.098,1.787,0.295
			c0.508,0.195,0.898,0.438,1.174,0.725c0.193,0.193,0.443,0.562,0.752,1.105c0.309,0.541,0.506,0.92,0.596,1.137
			c0.17,0.398,0.254,0.877,0.254,1.434c0,0.527-0.057,1.002-0.166,1.426c-0.07,0.27-0.189,0.539-0.354,0.809
			c-0.451-0.07-0.793-0.121-1.023-0.15c-0.23-0.027-0.65-0.064-1.262-0.111v-0.502c0.568-0.035,0.924-0.07,1.062-0.105
			c0.088-0.021,0.168-0.076,0.236-0.158c0.164-0.211,0.307-0.48,0.428-0.811c0.119-0.332,0.18-0.693,0.18-1.086
			c0-0.492-0.102-0.918-0.303-1.277c-0.203-0.361-0.523-0.641-0.963-0.84s-0.984-0.299-1.635-0.299c-0.799,0-1.52,0.141-2.162,0.422
			c-0.645,0.281-1.115,0.664-1.41,1.145c-0.297,0.484-0.443,1.023-0.443,1.621c0,0.301,0.035,0.592,0.109,0.875
			c0.072,0.283,0.213,0.648,0.418,1.096L695.009,493.373z"/>
		<path fill="#ED1F24" d="M698.041,494.33c1.312,0,2.383,0.418,3.213,1.252c0.828,0.836,1.244,1.906,1.244,3.213
			c0,1.23-0.387,2.232-1.16,3.006c-0.771,0.775-1.771,1.16-2.998,1.16c-0.854,0-1.637-0.199-2.346-0.598s-1.266-0.961-1.666-1.688
			c-0.402-0.727-0.604-1.525-0.604-2.398c0-0.68,0.113-1.256,0.344-1.729c0.229-0.471,0.516-0.854,0.859-1.146
			c0.348-0.291,0.701-0.516,1.064-0.668C696.632,494.464,697.316,494.33,698.041,494.33z M698.693,495.992
			c-0.723,0-1.453,0.119-2.197,0.359s-1.287,0.588-1.631,1.041c-0.342,0.455-0.516,0.949-0.516,1.482
			c0,0.68,0.271,1.248,0.811,1.705s1.367,0.686,2.484,0.686c0.934,0,1.736-0.137,2.414-0.41c0.678-0.271,1.154-0.619,1.434-1.041
			c0.277-0.422,0.418-0.887,0.418-1.396c0-0.721-0.262-1.307-0.783-1.754C700.603,496.214,699.792,495.992,698.693,495.992z"/>
		<path fill="#ED1F24" d="M701.232,503.875h0.51c0,0.105,0.023,0.328,0.076,0.668c0.049,0.34,0.135,0.719,0.254,1.135
			c0.121,0.416,0.234,0.73,0.348,0.939c0.035,0.064,0.053,0.117,0.053,0.158s-0.016,0.074-0.045,0.102
			c-0.027,0.025-0.078,0.039-0.146,0.039c-0.029,0-0.102-0.002-0.211-0.008c-0.17-0.012-0.326-0.018-0.467-0.018h-0.934
			c0.92,0.99,1.439,1.607,1.557,1.854c0.158,0.322,0.236,0.803,0.236,1.441c0,0.744-0.168,1.387-0.504,1.926
			c-0.338,0.539-0.773,0.93-1.311,1.172c-0.535,0.244-1.109,0.365-1.721,0.365c-0.369,0-0.717-0.043-1.045-0.127
			c-0.328-0.086-0.637-0.193-0.928-0.326c-0.289-0.131-0.557-0.277-0.799-0.439c-0.244-0.16-0.428-0.311-0.551-0.451
			c-0.076-0.082-0.252-0.295-0.527-0.639c-0.275-0.342-0.514-0.709-0.715-1.098c-0.203-0.391-0.328-0.66-0.375-0.812
			c-0.105-0.334-0.158-0.688-0.158-1.061c0-0.293,0.035-0.578,0.105-0.857c0.068-0.277,0.189-0.592,0.359-0.943h-1.396
			c-1.482,0.029-2.301,0.047-2.451,0.053c-0.287,0.006-0.498,0.041-0.633,0.105c-0.064,0.023-0.115,0.059-0.154,0.109
			c-0.037,0.049-0.066,0.121-0.084,0.215c-0.012,0.053-0.023,0.402-0.035,1.047h-0.5c0.029-0.732,0.043-1.703,0.043-2.91
			c0-0.668-0.014-1.18-0.043-1.537h0.5l0.01,0.834c0.006,0.123,0.027,0.219,0.066,0.285c0.037,0.068,0.086,0.119,0.145,0.154
			c0.117,0.061,0.324,0.104,0.623,0.123c0.076,0.006,0.914,0.02,2.516,0.053h3.121c1.014,0,2.053-0.012,3.117-0.035
			c1.066-0.023,1.648-0.049,1.746-0.074c0.098-0.027,0.17-0.068,0.221-0.127s0.084-0.135,0.102-0.229L701.232,503.875z
			 M695.808,506.89c-0.314,0.312-0.562,0.664-0.744,1.062c-0.184,0.396-0.273,0.816-0.273,1.258c0,0.533,0.133,1.018,0.4,1.453
			c0.266,0.438,0.682,0.783,1.242,1.037c0.562,0.256,1.176,0.383,1.838,0.383c0.639,0,1.191-0.121,1.666-0.365
			c0.471-0.242,0.824-0.586,1.061-1.031c0.238-0.443,0.357-0.895,0.357-1.346c0-0.334-0.066-0.664-0.199-0.988
			c-0.131-0.324-0.322-0.617-0.574-0.883c-0.252-0.264-0.492-0.438-0.721-0.525c-0.111-0.035-0.326-0.055-0.645-0.055H695.808
			L695.808,506.89z"/>
		<path fill="#ED1F24" d="M695.361,522.138l-0.635-0.279c-0.252-0.404-0.418-0.699-0.5-0.889c-0.121-0.273-0.227-0.592-0.312-0.943
			c-0.084-0.355-0.127-0.73-0.127-1.121c0-0.773,0.162-1.475,0.482-2.1c0.322-0.627,0.805-1.111,1.445-1.459
			c0.643-0.348,1.395-0.52,2.254-0.52c0.674,0,1.281,0.094,1.824,0.275c0.541,0.188,0.941,0.395,1.199,0.631
			c0.188,0.17,0.4,0.434,0.646,0.791c0.242,0.354,0.436,0.711,0.574,1.061c0.193,0.463,0.291,0.965,0.291,1.504
			c0,0.656-0.15,1.248-0.449,1.779c-0.299,0.529-0.705,0.918-1.221,1.164s-1.1,0.369-1.75,0.369c-0.164,0-0.363-0.014-0.598-0.035
			c-0.082-0.422-0.137-0.801-0.158-1.135c-0.047-0.637-0.07-1.27-0.07-1.902v-2.824c-0.838,0.014-1.516,0.156-2.033,0.438
			c-0.52,0.275-0.9,0.658-1.146,1.148c-0.246,0.488-0.369,0.998-0.369,1.525c0,0.357,0.059,0.713,0.172,1.068
			c0.115,0.354,0.324,0.791,0.629,1.311L695.361,522.138z M698.964,516.505c-0.018,0.164-0.035,0.475-0.053,0.936
			c-0.029,0.875-0.045,1.477-0.045,1.805c0,0.781,0.016,1.295,0.045,1.541c0.139,0.006,0.248,0.01,0.324,0.01
			c0.922,0,1.6-0.188,2.031-0.562c0.434-0.375,0.648-0.879,0.648-1.508c0-0.664-0.238-1.195-0.711-1.604
			C700.736,516.716,699.988,516.511,698.964,516.505z"/>
	</g>
	<g>
		<path fill="#ED1F24" d="M901.562,405.825h0.562c-0.035,1.178-0.053,2.107-0.053,2.795c0,0.457,0.006,0.943,0.018,1.459l0.045,1.38
			c0.006,0.152,0.01,0.293,0.01,0.422c0,0.934-0.104,1.664-0.309,2.197s-0.531,0.949-0.98,1.248
			c-0.445,0.299-0.959,0.448-1.531,0.448c-0.518,0-1.029-0.125-1.539-0.373c-0.51-0.25-0.941-0.611-1.295-1.086
			c-0.355-0.477-0.609-0.972-0.762-1.485c-0.105-0.352-0.158-0.75-0.158-1.195c0-0.375,0.041-0.777,0.123-1.213l0.658-0.185
			c-0.117,0.521-0.176,0.932-0.176,1.229c0,0.439,0.107,0.857,0.32,1.252c0.213,0.396,0.535,0.703,0.965,0.923
			c0.43,0.222,0.904,0.33,1.426,0.33c0.504,0,0.957-0.105,1.365-0.319c0.406-0.214,0.715-0.539,0.926-0.978
			c0.209-0.437,0.314-0.965,0.314-1.586c0-0.557-0.102-1.154-0.299-1.793c-0.621-0.053-1.596-0.079-2.918-0.079h-4.432
			c-0.797,0-1.57,0.009-2.328,0.026c-0.557,0.018-0.889,0.06-0.992,0.127c-0.105,0.066-0.184,0.176-0.232,0.325
			c-0.049,0.147-0.08,0.571-0.092,1.27h-0.562c0.047-1.084,0.07-1.881,0.07-2.391c0-0.199-0.023-1.116-0.07-2.751h0.562
			c0.012,0.689,0.043,1.111,0.092,1.266c0.051,0.152,0.119,0.258,0.207,0.316c0.117,0.068,0.4,0.113,0.854,0.132
			c0.121,0.006,0.953,0.018,2.494,0.035h4.07c0.797,0,1.576-0.009,2.338-0.026c0.557-0.018,0.887-0.06,0.988-0.127
			c0.104-0.067,0.18-0.176,0.229-0.325C901.519,406.945,901.55,406.522,901.562,405.825z"/>
		<path fill="#ED1F24" d="M889.634,416.336h0.492l0.01,0.826c0.006,0.129,0.027,0.227,0.064,0.294
			c0.039,0.067,0.088,0.119,0.146,0.154c0.117,0.062,0.324,0.103,0.623,0.112c0.076,0.008,0.918,0.026,2.525,0.062h4.547
			c0.979,0,1.99-0.02,3.033-0.053c0.703-0.023,1.098-0.058,1.18-0.099c0.061-0.027,0.102-0.076,0.123-0.141
			c0.041-0.088,0.062-0.492,0.062-1.213h0.52c0.164,1.323,0.369,2.244,0.615,2.76c0.035,0.076,0.053,0.135,0.053,0.176
			s-0.014,0.073-0.039,0.099c-0.025,0.021-0.061,0.033-0.109,0.033c-0.041,0-0.1-0.006-0.176-0.018l-0.291-0.009
			c-1.049-0.029-1.939-0.047-2.68-0.055l-1.371-0.018h-2.566c0.064,0.082,0.266,0.312,0.6,0.694
			c0.334,0.381,0.533,0.604,0.598,0.677c0.105,0.111,0.176,0.199,0.211,0.264c0.061,0.111,0.117,0.278,0.178,0.501
			c0.08,0.306,0.121,0.603,0.121,0.89c0,0.539-0.129,1.049-0.383,1.531c-0.256,0.482-0.576,0.818-0.965,1.008
			c-0.387,0.188-0.959,0.279-1.715,0.279h-1.549l-1.215,0.025c-0.756,0.018-1.184,0.027-1.275,0.027
			c-0.281,0.012-0.486,0.047-0.615,0.104c-0.059,0.023-0.105,0.061-0.145,0.105c-0.037,0.047-0.066,0.117-0.084,0.211
			c-0.006,0.035-0.016,0.34-0.025,0.914h-0.492c0.029-0.668,0.043-1.154,0.043-1.459c0-0.258-0.014-0.787-0.043-1.592
			c0.867,0.082,1.711,0.123,2.531,0.123h2.18c0.682,0,1.168-0.049,1.469-0.148c0.299-0.1,0.566-0.303,0.805-0.611
			c0.238-0.307,0.354-0.715,0.354-1.225c0-0.323-0.047-0.61-0.141-0.862s-0.234-0.483-0.422-0.694
			c-0.189-0.211-0.393-0.39-0.607-0.535c-0.104-0.069-0.23-0.116-0.383-0.142c-0.148-0.022-0.449-0.035-0.902-0.035h-1.027
			c-1.521,0.029-2.34,0.047-2.465,0.054c-0.293,0.013-0.508,0.048-0.643,0.104c-0.061,0.023-0.105,0.06-0.146,0.104
			c-0.037,0.048-0.064,0.116-0.082,0.212c-0.006,0.041-0.018,0.365-0.027,0.976h-0.492c0.041-1.043,0.062-1.764,0.062-2.162
			C889.697,418.25,889.675,417.497,889.634,416.336z"/>
		<path fill="#ED1F24" d="M890.998,434.46l-0.633-0.281c-0.252-0.404-0.42-0.701-0.502-0.889c-0.123-0.275-0.229-0.59-0.312-0.945
			c-0.084-0.354-0.127-0.727-0.127-1.119c0-0.773,0.162-1.473,0.484-2.1c0.32-0.625,0.803-1.111,1.445-1.459
			c0.641-0.348,1.393-0.521,2.254-0.521c0.674,0,1.279,0.094,1.822,0.277c0.541,0.186,0.941,0.395,1.199,0.629
			c0.189,0.17,0.402,0.434,0.646,0.791c0.242,0.357,0.436,0.711,0.574,1.062c0.193,0.463,0.291,0.965,0.291,1.504
			c0,0.652-0.148,1.248-0.447,1.775c-0.301,0.531-0.705,0.922-1.223,1.166c-0.516,0.246-1.1,0.369-1.75,0.369
			c-0.164,0-0.361-0.012-0.598-0.035c-0.082-0.424-0.135-0.801-0.158-1.137c-0.047-0.633-0.07-1.268-0.07-1.898v-2.824
			c-0.838,0.012-1.516,0.152-2.033,0.436c-0.52,0.277-0.9,0.66-1.146,1.15c-0.246,0.488-0.369,0.998-0.369,1.521
			c0,0.357,0.061,0.713,0.172,1.068c0.115,0.354,0.324,0.793,0.629,1.312L890.998,434.46z M894.601,428.826
			c-0.018,0.164-0.033,0.477-0.053,0.934c-0.029,0.875-0.045,1.48-0.045,1.809c0,0.777,0.016,1.295,0.045,1.541
			c0.139,0.006,0.248,0.01,0.324,0.01c0.922,0,1.6-0.189,2.033-0.564c0.432-0.375,0.646-0.877,0.646-1.506
			c0-0.664-0.236-1.197-0.711-1.604C896.371,429.037,895.623,428.832,894.601,428.826z M898.89,430.46v-0.738l2.604,2.523
			c0.232,0.229,0.377,0.393,0.43,0.496c0.055,0.102,0.08,0.219,0.08,0.348c0,0.217-0.064,0.393-0.199,0.527
			c-0.131,0.135-0.297,0.201-0.494,0.201c-0.131,0-0.248-0.039-0.355-0.119c-0.109-0.078-0.242-0.246-0.4-0.504L898.89,430.46z"/>
		<path fill="#ED1F24" d="M889.634,435.568h0.492l0.01,0.834c0.006,0.123,0.027,0.217,0.064,0.285
			c0.039,0.066,0.088,0.119,0.146,0.154c0.117,0.064,0.324,0.105,0.623,0.123c0.076,0,0.92,0.018,2.527,0.053h1.047
			c0.469,0,0.973-0.01,1.514-0.027c0.348-0.018,0.553-0.045,0.615-0.084c0.064-0.037,0.113-0.104,0.146-0.197
			c0.029-0.094,0.045-0.475,0.037-1.141h0.502c0.164,1.18,0.379,2.043,0.643,2.584c0.059,0.117,0.088,0.195,0.088,0.236
			s-0.016,0.072-0.045,0.096s-0.072,0.035-0.131,0.035c-0.041,0-0.088-0.002-0.143-0.008c-0.211-0.018-0.654-0.035-1.336-0.053
			l1.396,1.637c0.176,0.48,0.264,0.936,0.264,1.365c0,0.475-0.096,0.926-0.289,1.35c-0.191,0.426-0.438,0.746-0.729,0.961
			c-0.293,0.213-0.664,0.355-1.109,0.426c-0.264,0.041-1,0.062-2.209,0.062h-1.557c-0.764,0-1.281,0.02-1.559,0.061
			c-0.176,0.029-0.299,0.074-0.363,0.137c-0.068,0.061-0.111,0.156-0.129,0.285l-0.025,0.941h-0.492
			c0.041-0.574,0.062-1.053,0.062-1.434c0-0.328-0.021-0.873-0.062-1.635c1.447,0.082,2.361,0.123,2.742,0.123h1.477
			c0.922,0,1.523-0.035,1.812-0.105c0.393-0.1,0.709-0.326,0.949-0.678c0.238-0.355,0.357-0.777,0.357-1.277
			c0-0.439-0.104-0.842-0.311-1.207c-0.209-0.363-0.449-0.623-0.723-0.779c-0.271-0.154-0.732-0.232-1.379-0.232h-1.062
			c-1.525,0.035-2.35,0.053-2.475,0.053c-0.293,0.014-0.508,0.047-0.643,0.105c-0.053,0.023-0.1,0.059-0.137,0.105
			c-0.039,0.047-0.068,0.119-0.092,0.219c-0.008,0.035-0.018,0.357-0.027,0.967h-0.492c0.041-0.715,0.062-1.361,0.062-1.939
			C889.697,437.48,889.675,436.679,889.634,435.568z"/>
		<path fill="#ED1F24" d="M895.656,447.705l0.123-0.467c0.135,0.006,0.318,0.01,0.555,0.01c0.246,0,0.441-0.004,0.588-0.01
			c0.486,0.744,0.814,1.354,0.984,1.828c0.123,0.363,0.186,0.771,0.186,1.223c0,0.668-0.127,1.23-0.379,1.688
			c-0.252,0.459-0.611,0.801-1.08,1.021c-0.328,0.152-0.775,0.229-1.346,0.229l-1.607-0.033h-2.619
			c-0.279,0-0.482,0.021-0.605,0.068c-0.088,0.035-0.152,0.09-0.193,0.166c-0.033,0.061-0.059,0.184-0.068,0.369l-0.055,0.572h-0.5
			c0.041-0.48,0.062-0.902,0.062-1.268c0-0.352-0.021-0.818-0.062-1.404l1.549,0.043c-0.902-1.195-1.41-1.904-1.525-2.127
			c-0.113-0.225-0.172-0.506-0.172-0.846c0-0.709,0.188-1.262,0.566-1.654c0.377-0.396,0.879-0.596,1.508-0.596
			c0.402,0,0.771,0.068,1.105,0.207s0.6,0.305,0.797,0.496c0.195,0.193,0.34,0.393,0.436,0.59c0.156,0.342,0.328,0.893,0.51,1.656
			s0.314,1.521,0.404,2.271c0.557,0.006,0.988-0.062,1.301-0.201c0.311-0.143,0.564-0.379,0.766-0.713
			c0.199-0.334,0.299-0.74,0.299-1.223c0-0.346-0.047-0.648-0.141-0.91s-0.174-0.42-0.238-0.479l-0.314-0.158
			C896.13,447.898,895.853,447.781,895.656,447.705z M894.277,451.738c-0.131-0.762-0.273-1.412-0.434-1.951
			s-0.322-0.92-0.492-1.143c-0.1-0.135-0.248-0.252-0.445-0.352c-0.293-0.152-0.619-0.229-0.979-0.229
			c-0.434,0-0.77,0.117-1.014,0.357s-0.365,0.574-0.365,1.002c0,0.396,0.113,0.779,0.338,1.164c0.229,0.383,0.564,0.77,1.018,1.146
			h2.373V451.738z"/>
		<path fill="#ED1F24" d="M889.634,455.14h0.51l0.012,0.826c0.006,0.129,0.025,0.229,0.062,0.293
			c0.039,0.068,0.088,0.119,0.146,0.154c0.115,0.062,0.324,0.104,0.625,0.115c0.074,0.006,0.916,0.023,2.52,0.061h3.646
			c0.977,0,1.986-0.018,3.029-0.053c0.701-0.023,1.096-0.055,1.178-0.096c0.059-0.029,0.1-0.076,0.123-0.143
			c0.041-0.088,0.061-0.492,0.061-1.213h0.52c0.164,1.324,0.367,2.244,0.613,2.76c0.035,0.076,0.055,0.137,0.055,0.176
			c0,0.041-0.016,0.072-0.039,0.098c-0.027,0.021-0.062,0.035-0.109,0.035c-0.041,0-0.1-0.008-0.176-0.02l-0.291-0.008
			c-1.047-0.029-1.939-0.047-2.678-0.053l-1.371-0.02h-3.529l-0.053,0.098c0.189,0.311,0.535,0.76,1.025,1.346
			c0.334,0.393,1.143,1.271,2.426,2.645c-0.02,0.451-0.027,0.738-0.027,0.861c0,0.117,0.01,0.414,0.027,0.889h-0.492
			c-0.02-0.34-0.041-0.557-0.07-0.648c-0.041-0.129-0.176-0.373-0.404-0.73c-0.355-0.561-0.861-1.236-1.52-2.027l-0.711-0.896
			c-0.486,0.477-1.301,1.295-2.441,2.461c-0.895,0.879-1.418,1.406-1.566,1.586s-0.238,0.355-0.27,0.523
			c-0.029,0.168-0.045,0.434-0.045,0.791h-0.395c-0.084-0.436-0.16-0.801-0.229-1.102c-0.068-0.299-0.15-0.641-0.246-1.025
			c0.166-0.199,0.336-0.395,0.512-0.58c0.176-0.189,0.562-0.572,1.158-1.152c1.221-1.188,2.172-2.168,2.855-2.936l-0.043-0.098
			h-0.521c-1.521,0.029-2.346,0.047-2.469,0.055c-0.293,0.006-0.508,0.041-0.643,0.104c-0.053,0.023-0.1,0.062-0.137,0.105
			c-0.039,0.047-0.068,0.117-0.094,0.211c-0.006,0.041-0.014,0.365-0.023,0.975h-0.512c0.047-0.77,0.07-1.473,0.07-2.1
			C889.705,456.798,889.681,456.042,889.634,455.14z"/>
		<path fill="#ED1F24" d="M896.861,465.203h0.5c0.129,1.137,0.375,2.092,0.736,2.865l-0.141,0.193
			c-1.248-0.047-2.203-0.07-2.865-0.07h-1.6c-1.523,0.029-2.348,0.047-2.471,0.053c-0.293,0.006-0.508,0.039-0.643,0.098
			c-0.053,0.029-0.098,0.066-0.135,0.113c-0.039,0.047-0.07,0.117-0.094,0.211c-0.008,0.035-0.016,0.361-0.025,0.977h-0.492
			c0.041-0.891,0.062-1.604,0.062-2.137c0-0.469-0.021-1.236-0.062-2.303h0.492l0.008,0.836c0.006,0.123,0.029,0.217,0.066,0.285
			c0.039,0.066,0.086,0.119,0.145,0.154c0.117,0.064,0.326,0.105,0.625,0.123c0.076,0,0.916,0.018,2.521,0.053h1.547
			c0.873,0,1.393-0.029,1.557-0.088c0.088-0.035,0.154-0.1,0.197-0.189C896.837,466.285,896.861,465.894,896.861,465.203z
			 M902.009,467.347c0,0.275-0.096,0.51-0.289,0.699c-0.191,0.189-0.428,0.285-0.703,0.285c-0.27,0-0.502-0.096-0.693-0.289
			c-0.193-0.193-0.289-0.426-0.289-0.695c0-0.273,0.096-0.51,0.289-0.703c0.191-0.191,0.426-0.287,0.693-0.287
			c0.275,0,0.512,0.096,0.703,0.287C901.914,466.837,902.009,467.072,902.009,467.347z"/>
		<path fill="#ED1F24" d="M892.289,470.863v0.527c-0.34,0.006-0.609,0.023-0.809,0.053s-0.396,0.08-0.584,0.15
			c-0.191,0.07-0.354,0.178-0.484,0.324s-0.234,0.307-0.307,0.48c-0.074,0.172-0.123,0.348-0.146,0.523
			c-0.023,0.178-0.035,0.449-0.035,0.812c0,0.598,0.158,1.088,0.477,1.473c0.314,0.383,0.75,0.574,1.301,0.574
			c0.246,0,0.463-0.061,0.648-0.18c0.189-0.121,0.334-0.293,0.439-0.518c0.105-0.227,0.244-0.711,0.414-1.455
			s0.293-1.225,0.369-1.441c0.123-0.328,0.27-0.59,0.447-0.783c0.176-0.193,0.396-0.346,0.668-0.461
			c0.27-0.113,0.562-0.172,0.879-0.172c0.463,0,0.891,0.121,1.277,0.365c0.393,0.242,0.707,0.625,0.949,1.146
			c0.244,0.52,0.365,1.09,0.365,1.705c0,0.369-0.051,0.797-0.154,1.281c-0.102,0.484-0.229,0.885-0.383,1.189
			c-0.648-0.041-1.312-0.07-1.986-0.088v-0.502c0.43-0.029,0.709-0.062,0.846-0.104c0.135-0.037,0.256-0.09,0.359-0.15
			c0.105-0.064,0.219-0.178,0.338-0.334c0.121-0.158,0.229-0.363,0.32-0.611c0.094-0.25,0.143-0.555,0.143-0.918
			c0-0.516-0.152-0.932-0.457-1.244c-0.307-0.314-0.662-0.471-1.072-0.471c-0.229,0-0.426,0.045-0.588,0.137
			c-0.164,0.09-0.299,0.213-0.4,0.365c-0.104,0.15-0.195,0.365-0.277,0.641l-0.357,1.459c-0.189,0.738-0.352,1.246-0.484,1.525
			c-0.135,0.277-0.344,0.502-0.627,0.672c-0.285,0.17-0.627,0.256-1.023,0.256c-0.791,0-1.48-0.328-2.068-0.98
			c-0.59-0.654-0.885-1.527-0.885-2.623c0-0.504,0.076-1.176,0.229-2.014c0.088-0.463,0.15-0.711,0.188-0.746
			c0.018-0.023,0.047-0.035,0.088-0.035s0.09,0.006,0.146,0.018c0.252,0.053,0.498,0.088,0.738,0.105
			S891.529,470.851,892.289,470.863z"/>
		<path fill="#ED1F24" d="M896.527,478.08h0.367c0.225,0.586,0.424,1.051,0.6,1.396c1.395,0,2.285-0.018,2.672-0.053
			c0.211,0.609,0.438,1.105,0.676,1.486l-0.176,0.211c-0.486-0.064-1.559-0.135-3.217-0.211c-0.006,0.469-0.008,0.75-0.008,0.844
			c0,0.053,0.006,0.354,0.018,0.904c0.006,0.305,0.018,0.529,0.035,0.686l-0.062,0.062l-0.816-0.189
			c0.006-0.369,0.01-0.709,0.01-1.02s-0.004-0.74-0.01-1.291l-3.576-0.053c-0.873-0.018-1.396-0.012-1.564,0.018
			c-0.17,0.031-0.316,0.084-0.443,0.166c-0.125,0.082-0.229,0.189-0.305,0.322c-0.074,0.131-0.135,0.355-0.176,0.672
			c0,0.24,0.01,0.436,0.031,0.584c0.02,0.15,0.072,0.338,0.154,0.566l-0.346,0.105c-0.217-0.275-0.439-0.541-0.676-0.799
			c-0.082-0.227-0.137-0.436-0.164-0.625c-0.023-0.193-0.039-0.416-0.039-0.668c0-0.312,0.035-0.561,0.105-0.742
			c0.068-0.188,0.168-0.355,0.295-0.506c0.125-0.152,0.285-0.277,0.479-0.377c0.195-0.104,0.498-0.164,0.914-0.193
			c0.398,0.006,0.836,0.018,1.312,0.035c0.094,0.006,0.193,0.008,0.307,0.008h3.646v-0.359
			C896.57,478.771,896.554,478.443,896.527,478.08z"/>
		<path fill="#ED1F24" d="M896.861,483.941h0.5c0.129,1.137,0.375,2.092,0.736,2.865L897.958,487
			c-1.248-0.047-2.203-0.07-2.865-0.07h-1.6c-1.523,0.029-2.348,0.047-2.471,0.055c-0.293,0.006-0.508,0.039-0.643,0.098
			c-0.053,0.029-0.1,0.066-0.137,0.113c-0.039,0.047-0.068,0.115-0.092,0.211c-0.008,0.035-0.018,0.359-0.027,0.977h-0.492
			c0.041-0.891,0.062-1.604,0.062-2.137c0-0.469-0.021-1.236-0.062-2.303h0.492l0.01,0.836c0.006,0.123,0.027,0.217,0.064,0.283
			c0.039,0.066,0.088,0.119,0.146,0.154c0.117,0.064,0.324,0.105,0.623,0.123c0.076,0,0.918,0.02,2.523,0.053h1.547
			c0.873,0,1.391-0.027,1.555-0.088c0.09-0.035,0.154-0.1,0.197-0.188C896.837,485.023,896.861,484.632,896.861,483.941z
			 M902.009,486.085c0,0.275-0.096,0.508-0.289,0.699c-0.191,0.188-0.428,0.285-0.703,0.285c-0.27,0-0.502-0.098-0.693-0.289
			c-0.193-0.193-0.289-0.428-0.289-0.695c0-0.275,0.096-0.51,0.289-0.703c0.191-0.191,0.426-0.289,0.693-0.289
			c0.275,0,0.512,0.098,0.703,0.289C901.914,485.576,902.009,485.81,902.009,486.085z"/>
		<path fill="#ED1F24" d="M890.646,496.414l-0.59-0.352c-0.217-0.404-0.375-0.805-0.475-1.199c-0.1-0.396-0.148-0.844-0.148-1.342
			c0-1.23,0.369-2.209,1.111-2.939c0.74-0.729,1.76-1.094,3.055-1.094c0.688,0,1.281,0.098,1.787,0.295
			c0.508,0.195,0.898,0.438,1.174,0.725c0.193,0.193,0.443,0.562,0.754,1.105c0.307,0.541,0.506,0.92,0.594,1.137
			c0.17,0.398,0.254,0.877,0.254,1.434c0,0.527-0.057,1.002-0.166,1.426c-0.07,0.27-0.189,0.539-0.354,0.809
			c-0.449-0.07-0.793-0.121-1.023-0.15c-0.229-0.027-0.65-0.064-1.26-0.111v-0.502c0.566-0.035,0.922-0.07,1.061-0.105
			c0.088-0.021,0.168-0.076,0.238-0.158c0.164-0.211,0.305-0.48,0.426-0.811c0.119-0.332,0.18-0.693,0.18-1.086
			c0-0.492-0.102-0.918-0.303-1.277c-0.203-0.361-0.521-0.641-0.963-0.84c-0.439-0.199-0.984-0.299-1.635-0.299
			c-0.797,0-1.518,0.141-2.162,0.422s-1.115,0.664-1.41,1.145c-0.297,0.484-0.443,1.023-0.443,1.621
			c0,0.301,0.035,0.592,0.109,0.875c0.072,0.283,0.213,0.648,0.418,1.096L890.646,496.414z"/>
		<path fill="#ED1F24" d="M893.677,497.371c1.312,0,2.383,0.418,3.213,1.252c0.828,0.836,1.244,1.906,1.244,3.213
			c0,1.23-0.387,2.232-1.16,3.006c-0.771,0.775-1.771,1.16-2.998,1.16c-0.854,0-1.637-0.199-2.346-0.598s-1.266-0.961-1.666-1.688
			s-0.602-1.525-0.602-2.398c0-0.68,0.113-1.256,0.342-1.729c0.229-0.471,0.516-0.854,0.861-1.146
			c0.346-0.291,0.699-0.516,1.062-0.668C892.269,497.505,892.951,497.371,893.677,497.371z M894.328,499.033
			c-0.721,0-1.453,0.119-2.197,0.359s-1.287,0.588-1.631,1.041c-0.342,0.455-0.514,0.949-0.514,1.482c0,0.68,0.27,1.248,0.809,1.705
			s1.369,0.686,2.488,0.686c0.932,0,1.734-0.137,2.412-0.41c0.676-0.271,1.154-0.619,1.432-1.041
			c0.279-0.422,0.418-0.887,0.418-1.396c0-0.721-0.26-1.307-0.781-1.754C896.242,499.255,895.429,499.033,894.328,499.033z"/>
		<path fill="#ED1F24" d="M896.869,506.916h0.51c0,0.105,0.023,0.328,0.074,0.668c0.049,0.34,0.135,0.719,0.254,1.135
			c0.121,0.416,0.236,0.73,0.348,0.939c0.035,0.064,0.055,0.117,0.055,0.158s-0.016,0.074-0.043,0.102
			c-0.029,0.025-0.08,0.039-0.15,0.039c-0.029,0-0.1-0.002-0.211-0.008c-0.17-0.012-0.324-0.018-0.465-0.018h-0.934
			c0.922,0.99,1.438,1.607,1.557,1.854c0.158,0.322,0.236,0.803,0.236,1.441c0,0.744-0.17,1.387-0.506,1.926
			c-0.338,0.539-0.771,0.93-1.311,1.172c-0.535,0.244-1.107,0.365-1.717,0.365c-0.369,0-0.721-0.043-1.047-0.127
			c-0.328-0.086-0.639-0.193-0.93-0.326c-0.289-0.131-0.557-0.277-0.799-0.439c-0.244-0.16-0.426-0.311-0.549-0.451
			c-0.076-0.082-0.252-0.295-0.527-0.639c-0.273-0.342-0.516-0.709-0.717-1.098c-0.203-0.391-0.326-0.66-0.373-0.812
			c-0.105-0.334-0.158-0.689-0.158-1.061c0-0.297,0.035-0.578,0.105-0.857c0.068-0.277,0.188-0.592,0.357-0.943h-1.395
			c-1.482,0.029-2.301,0.047-2.453,0.053c-0.287,0.006-0.498,0.041-0.633,0.105c-0.064,0.023-0.115,0.059-0.154,0.109
			c-0.037,0.049-0.064,0.121-0.082,0.215c-0.012,0.053-0.023,0.402-0.035,1.047h-0.502c0.029-0.732,0.045-1.703,0.045-2.91
			c0-0.668-0.016-1.18-0.045-1.537h0.502l0.01,0.834c0.006,0.123,0.025,0.219,0.064,0.285c0.037,0.068,0.086,0.119,0.146,0.154
			c0.115,0.061,0.324,0.104,0.623,0.123c0.076,0.006,0.914,0.02,2.516,0.053h3.119c1.014,0,2.055-0.012,3.121-0.035
			c1.064-0.023,1.645-0.049,1.744-0.074c0.096-0.027,0.17-0.068,0.219-0.127c0.051-0.059,0.084-0.135,0.102-0.229L896.869,506.916z
			 M891.447,509.931c-0.316,0.312-0.566,0.664-0.748,1.062c-0.184,0.396-0.271,0.816-0.271,1.258c0,0.533,0.133,1.018,0.4,1.453
			c0.266,0.438,0.68,0.783,1.242,1.037c0.562,0.256,1.176,0.383,1.838,0.383c0.639,0,1.191-0.121,1.666-0.365
			c0.471-0.242,0.826-0.586,1.061-1.031c0.238-0.443,0.357-0.895,0.357-1.346c0-0.334-0.066-0.664-0.199-0.988
			c-0.131-0.324-0.322-0.617-0.574-0.883c-0.252-0.264-0.492-0.438-0.721-0.525c-0.111-0.035-0.326-0.055-0.645-0.055H891.447
			L891.447,509.931z"/>
		<path fill="#ED1F24" d="M890.998,525.179l-0.633-0.279c-0.252-0.404-0.42-0.699-0.502-0.889c-0.123-0.273-0.229-0.592-0.312-0.943
			c-0.084-0.355-0.127-0.73-0.127-1.121c0-0.773,0.162-1.475,0.484-2.1c0.32-0.627,0.803-1.111,1.445-1.459
			c0.641-0.348,1.393-0.52,2.254-0.52c0.674,0,1.279,0.094,1.822,0.275c0.541,0.188,0.941,0.395,1.199,0.631
			c0.189,0.17,0.402,0.434,0.646,0.791c0.242,0.354,0.436,0.711,0.574,1.061c0.193,0.463,0.291,0.965,0.291,1.504
			c0,0.656-0.148,1.248-0.447,1.779c-0.301,0.529-0.705,0.918-1.223,1.164c-0.516,0.246-1.1,0.369-1.75,0.369
			c-0.164,0-0.361-0.014-0.598-0.035c-0.082-0.422-0.135-0.801-0.158-1.135c-0.047-0.637-0.07-1.27-0.07-1.902v-2.824
			c-0.838,0.014-1.516,0.156-2.033,0.438c-0.52,0.275-0.9,0.658-1.146,1.148c-0.246,0.488-0.369,0.998-0.369,1.525
			c0,0.357,0.061,0.713,0.172,1.068c0.115,0.354,0.324,0.791,0.629,1.311L890.998,525.179z M894.601,519.546
			c-0.018,0.164-0.033,0.475-0.053,0.936c-0.029,0.875-0.045,1.477-0.045,1.805c0,0.781,0.016,1.295,0.045,1.541
			c0.139,0.006,0.248,0.01,0.324,0.01c0.922,0,1.6-0.188,2.033-0.562c0.432-0.375,0.646-0.879,0.646-1.508
			c0-0.664-0.236-1.195-0.711-1.604C896.371,519.757,895.623,519.552,894.601,519.546z"/>
	</g>
	<path fill="#ED1F24" d="M132.972,214.864c8.887-0.142,17.894,2.49,25.638,8.116c7.745,5.627,13.03,13.379,15.642,21.876
		c12.914-0.207,25.577-6.271,33.753-17.523c13.803-18.998,9.591-45.588-9.407-59.391s-45.589-9.593-59.392,9.405
		C131.03,188.6,129.177,202.518,132.972,214.864z"/>
	<path fill="#ED1F24" d="M251.208,142.332c4.298,13.229,1.76,27.037-5.665,37.606c8.409,2.881,17.787,3.162,26.892,0.203
		c22.333-7.256,34.556-31.244,27.298-53.576c-7.256-22.335-31.243-34.558-53.577-27.301c-9.104,2.959-16.526,8.697-21.636,15.971
		C236.739,119.422,246.909,129.102,251.208,142.332z"/>
	<path fill="#ED1F24" d="M371.062,144.192c-5.387,16.58-19.997,27.579-36.304,29.179c4.251,3.775,9.327,6.762,15.08,8.631
		c22.333,7.256,46.321-4.965,53.577-27.3c7.257-22.333-4.964-46.321-27.298-53.577c-5.754-1.869-11.614-2.436-17.272-1.882
		C371.096,110.125,376.451,127.611,371.062,144.192z"/>
	<path fill="#ED1F24" d="M466.481,222.791c-16.64,12.091-39.106,10.356-53.702-3.028c1.165,2.551,2.597,5.025,4.31,7.382
		c13.802,18.997,40.393,23.21,59.39,9.405c19-13.803,23.211-40.392,9.408-59.391c-1.712-2.357-3.621-4.484-5.687-6.379
		C488.419,188.796,483.124,210.7,466.481,222.791z"/>
	<path fill="#ED1F24" d="M469.815,379.006c17.443,12.674,22.409,36.119,12.426,54.579c1.291-1.356,2.514-2.802,3.646-4.359
		c13.803-18.998,9.591-45.587-9.408-59.392c-18.998-13.803-45.587-9.59-59.392,9.408c-1.13,1.555-2.129,3.166-3.017,4.814
		C428.54,368.858,452.374,366.334,469.815,379.006z"/>
	<path fill="#ED1F24" d="M373.624,464.053c5.388,16.58,0.031,34.067-12.222,44.948c5.66,0.555,11.521-0.013,17.274-1.882
		c22.333-7.257,34.555-31.243,27.299-53.578c-7.257-22.334-31.245-34.555-53.579-27.299c-5.752,1.871-10.827,4.855-15.077,8.63
		C353.625,436.474,368.237,447.471,373.624,464.053z"/>
	<path fill="#ED1F24" d="M250.188,462.202c-4.297,13.229-14.47,22.908-26.687,27.096c5.107,7.272,12.528,13.014,21.635,15.973
		c22.331,7.255,46.321-4.967,53.576-27.303c7.257-22.33-4.966-46.318-27.301-53.576c-9.103-2.957-18.481-2.676-26.888,0.203
		C251.947,435.165,254.487,448.973,250.188,462.202z"/>
	<path fill="#ED1F24" d="M174.251,361.528c-2.611,8.499-7.895,16.248-15.641,21.877c-7.744,5.625-16.75,8.256-25.639,8.116
		c-3.794,12.345-1.94,26.261,6.236,37.515c13.802,18.999,40.394,23.209,59.391,9.407c18.999-13.804,23.209-40.394,9.407-59.392
		C199.828,367.796,187.165,361.735,174.251,361.528z"/>
</g>
<rect fill="none" stroke="#69BD45" width="1190.55" height="841.89"/>
</svg>
