<?xml version="1.0" encoding="utf-8"?>
<!-- Generator: Adobe Illustrator 14.0.0, SVG Export Plug-In . SVG Version: 6.00 Build 43363)  -->
<!DOCTYPE svg PUBLIC "-//W3C//DTD SVG 1.1//EN" "http://www.w3.org/Graphics/SVG/1.1/DTD/svg11.dtd">
<svg version="1.1" xmlns="http://www.w3.org/2000/svg" xmlns:xlink="http://www.w3.org/1999/xlink" x="0px" y="0px"
	 width="1190.55px" height="841.89px" viewBox="0 0 1190.55 841.89" enable-background="new 0 0 1190.55 841.89"
	 xml:space="preserve">
<g id="Layer_2">
	
		<path fill="none" stroke="#010101" stroke-width="1.1339" stroke-linecap="round" stroke-linejoin="round" stroke-miterlimit="10" d="
		M306.178,364.297c0,3.131,2.539,5.67,5.67,5.67s5.67-2.539,5.67-5.67c0-3.132-2.539-5.67-5.67-5.67
		S306.178,361.166,306.178,364.297"/>
	
		<path fill="none" stroke="#010101" stroke-width="1.1339" stroke-linecap="round" stroke-linejoin="round" stroke-miterlimit="10" d="
		M358.965,272.868c0,3.132,2.539,5.67,5.67,5.67c3.132,0,5.67-2.538,5.67-5.67s-2.539-5.67-5.67-5.67
		C361.503,267.198,358.965,269.736,358.965,272.868"/>
	
		<path fill="none" stroke="#010101" stroke-width="1.1339" stroke-linecap="round" stroke-linejoin="round" stroke-miterlimit="10" d="
		M253.392,272.868c0,3.132,2.539,5.67,5.67,5.67s5.67-2.538,5.67-5.67s-2.539-5.67-5.67-5.67S253.392,269.736,253.392,272.868"/>
	
		<path fill="none" stroke="#010101" stroke-width="1.1339" stroke-linecap="round" stroke-linejoin="round" stroke-miterlimit="10" d="
		M28.347,303.344c0,156.573,126.928,283.501,283.501,283.501S595.35,459.917,595.35,303.344
		c0-156.574-126.928-283.502-283.501-283.502S28.347,146.77,28.347,303.344"/>
	
		<path fill="none" stroke="#010101" stroke-width="1.1339" stroke-linecap="round" stroke-linejoin="round" stroke-miterlimit="10" d="
		M279.246,303.344c0,18.006,14.597,32.603,32.603,32.603s32.603-14.597,32.603-32.603s-14.597-32.603-32.603-32.603
		S279.246,285.338,279.246,303.344"/>
	
		<polyline fill="none" stroke="#010101" stroke-width="1.1339" stroke-linecap="round" stroke-linejoin="round" stroke-miterlimit="10" points="
		311.848,90.718 326.023,90.718 326.023,48.193 311.848,48.193 311.848,90.718 	"/>
	
		<rect x="447.971" y="97.027" transform="matrix(-0.809 -0.5878 0.5878 -0.809 753.6822 481.4628)" fill="none" stroke="#010101" stroke-width="1.1339" stroke-linecap="round" stroke-linejoin="round" stroke-miterlimit="10" width="14.175" height="42.525"/>
	
		<rect x="529.392" y="216.547" transform="matrix(-0.309 -0.951 0.951 -0.309 476.1094 821.5204)" fill="none" stroke="#010101" stroke-width="1.1339" stroke-linecap="round" stroke-linejoin="round" stroke-miterlimit="10" width="14.175" height="42.525"/>
	
		<rect x="525.011" y="361.098" transform="matrix(-0.309 0.9511 -0.9511 -0.309 1060.1724 -5.5405)" fill="none" stroke="#010101" stroke-width="1.1339" stroke-linecap="round" stroke-linejoin="round" stroke-miterlimit="10" width="14.175" height="42.525"/>
	
		<rect x="422.328" y="489.642" transform="matrix(0.5878 0.809 -0.809 0.5878 584.7159 -154.1132)" fill="none" stroke="#010101" stroke-width="1.1339" stroke-linecap="round" stroke-linejoin="round" stroke-miterlimit="10" width="42.525" height="14.175"/>
	
		<rect x="297.673" y="515.97" fill="none" stroke="#010101" stroke-width="1.1339" stroke-linecap="round" stroke-linejoin="round" stroke-miterlimit="10" width="14.175" height="42.525"/>
	
		<rect x="161.55" y="467.135" transform="matrix(-0.809 -0.5878 0.5878 -0.809 17.9899 982.6413)" fill="none" stroke="#010101" stroke-width="1.1339" stroke-linecap="round" stroke-linejoin="round" stroke-miterlimit="10" width="14.175" height="42.525"/>
	
		<rect x="65.954" y="361.792" transform="matrix(-0.9511 0.309 -0.309 -0.9511 284.1583 692.7506)" fill="none" stroke="#010101" stroke-width="1.1339" stroke-linecap="round" stroke-linejoin="round" stroke-miterlimit="10" width="42.525" height="14.175"/>
	
		<rect x="84.509" y="203.065" transform="matrix(0.309 -0.9511 0.9511 0.309 -150.0565 242.1205)" fill="none" stroke="#010101" stroke-width="1.1339" stroke-linecap="round" stroke-linejoin="round" stroke-miterlimit="10" width="14.175" height="42.525"/>
	
		<rect x="173.018" y="88.696" transform="matrix(-0.809 0.5878 -0.5878 -0.809 390.4458 93.0499)" fill="none" stroke="#010101" stroke-width="1.1339" stroke-linecap="round" stroke-linejoin="round" stroke-miterlimit="10" width="14.175" height="42.525"/>
	
		<path fill="none" stroke="#010101" stroke-width="1.1339" stroke-linecap="round" stroke-linejoin="round" stroke-miterlimit="10" d="
		M688.328,576.38c0,3.132,2.538,5.67,5.67,5.67c3.131,0,5.67-2.538,5.67-5.67c0-3.131-2.539-5.67-5.67-5.67
		C690.866,570.71,688.328,573.249,688.328,576.38"/>
	
		<line fill="none" stroke="#010101" stroke-width="1.1339" stroke-linecap="round" stroke-linejoin="round" stroke-miterlimit="10" x1="630.493" y1="104.633" x2="630.493" y2="388.135"/>
	
		<path fill="none" stroke="#010101" stroke-width="1.1339" stroke-linecap="round" stroke-linejoin="round" stroke-miterlimit="10" d="
		M658.276,104.633c0,19.729,15.993,35.722,35.722,35.722c19.728,0,35.721-15.993,35.721-35.722
		c0-19.728-15.993-35.721-35.721-35.721C674.27,68.913,658.276,84.906,658.276,104.633"/>
	
		<path fill="none" stroke="#010101" stroke-width="1.1339" stroke-linecap="round" stroke-linejoin="round" stroke-miterlimit="10" d="
		M757.502,104.633c0-35.072-28.432-63.504-63.504-63.504c-35.073,0-63.505,28.432-63.505,63.504"/>
	
		<line fill="none" stroke="#010101" stroke-width="1.1339" stroke-linecap="round" stroke-linejoin="round" stroke-miterlimit="10" x1="757.502" y1="104.633" x2="757.502" y2="388.135"/>
	
		<path fill="none" stroke="#010101" stroke-width="1.1339" stroke-linecap="round" stroke-linejoin="round" stroke-miterlimit="10" d="
		M757.502,388.135c-15.876,26.082-31.752,52.165-31.752,78.247"/>
	
		<path fill="none" stroke="#010101" stroke-width="1.1339" stroke-linecap="round" stroke-linejoin="round" stroke-miterlimit="10" d="
		M725.75,466.382c0,26.082,15.876,52.164,31.752,78.246"/>
	
		<path fill="none" stroke="#010101" stroke-width="1.1339" stroke-linecap="round" stroke-linejoin="round" stroke-miterlimit="10" d="
		M630.493,544.628c0,35.072,28.432,63.505,63.505,63.505c35.072,0,63.504-28.433,63.504-63.505"/>
	
		<path fill="none" stroke="#010101" stroke-width="1.1339" stroke-linecap="round" stroke-linejoin="round" stroke-miterlimit="10" d="
		M630.493,388.135c15.876,26.082,31.752,52.165,31.752,78.247"/>
	
		<path fill="none" stroke="#010101" stroke-width="1.1339" stroke-linecap="round" stroke-linejoin="round" stroke-miterlimit="10" d="
		M662.245,466.382c0,26.082-15.876,52.164-31.752,78.246"/>
	
		<path fill="none" stroke="#010101" stroke-width="1.1339" stroke-linecap="round" stroke-linejoin="round" stroke-miterlimit="10" d="
		M883.964,579.421c0,3.132,2.539,5.67,5.671,5.67c3.131,0,5.67-2.538,5.67-5.67c0-3.131-2.539-5.67-5.67-5.67
		C886.503,573.751,883.964,576.29,883.964,579.421"/>
	
		<line fill="none" stroke="#010101" stroke-width="1.1339" stroke-linecap="round" stroke-linejoin="round" stroke-miterlimit="10" x1="826.13" y1="107.674" x2="826.13" y2="391.176"/>
	
		<path fill="none" stroke="#010101" stroke-width="1.1339" stroke-linecap="round" stroke-linejoin="round" stroke-miterlimit="10" d="
		M853.913,107.674c0,19.729,15.993,35.722,35.722,35.722c19.728,0,35.721-15.993,35.721-35.722
		c0-19.728-15.993-35.721-35.721-35.721C869.906,71.954,853.913,87.947,853.913,107.674"/>
	
		<path fill="none" stroke="#010101" stroke-width="1.1339" stroke-linecap="round" stroke-linejoin="round" stroke-miterlimit="10" d="
		M953.139,107.674c0-35.072-28.432-63.504-63.504-63.504c-35.073,0-63.505,28.432-63.505,63.504"/>
	
		<line fill="none" stroke="#010101" stroke-width="1.1339" stroke-linecap="round" stroke-linejoin="round" stroke-miterlimit="10" x1="953.139" y1="107.674" x2="953.139" y2="391.176"/>
	
		<path fill="none" stroke="#010101" stroke-width="1.1339" stroke-linecap="round" stroke-linejoin="round" stroke-miterlimit="10" d="
		M953.139,391.176c-15.876,26.082-31.752,52.165-31.752,78.247"/>
	
		<path fill="none" stroke="#010101" stroke-width="1.1339" stroke-linecap="round" stroke-linejoin="round" stroke-miterlimit="10" d="
		M921.387,469.423c0,26.082,15.876,52.164,31.752,78.246"/>
	
		<path fill="none" stroke="#010101" stroke-width="1.1339" stroke-linecap="round" stroke-linejoin="round" stroke-miterlimit="10" d="
		M826.13,547.669c0,35.072,28.432,63.504,63.505,63.504c35.072,0,63.504-28.432,63.504-63.504"/>
	
		<path fill="none" stroke="#010101" stroke-width="1.1339" stroke-linecap="round" stroke-linejoin="round" stroke-miterlimit="10" d="
		M826.13,391.176c15.876,26.082,31.752,52.165,31.752,78.247"/>
	
		<path fill="none" stroke="#010101" stroke-width="1.1339" stroke-linecap="round" stroke-linejoin="round" stroke-miterlimit="10" d="
		M857.882,469.423c0,26.082-15.876,52.164-31.752,78.246"/>
</g>
<g id="Layer_3">
</g>
</svg>
