<?xml version="1.0" encoding="utf-8"?>
<!-- Generator: Adobe Illustrator 14.0.0, SVG Export Plug-In . SVG Version: 6.00 Build 43363)  -->
<!DOCTYPE svg PUBLIC "-//W3C//DTD SVG 1.1//EN" "http://www.w3.org/Graphics/SVG/1.1/DTD/svg11.dtd">
<svg version="1.1" xmlns="http://www.w3.org/2000/svg" xmlns:xlink="http://www.w3.org/1999/xlink" x="0px" y="0px"
	 width="1190.55px" height="841.89px" viewBox="0 0 1190.55 841.89" enable-background="new 0 0 1190.55 841.89"
	 xml:space="preserve">
<g id="Layer_2">
	
		<path fill="none" stroke="#010101" stroke-width="1.1339" stroke-linecap="round" stroke-linejoin="round" stroke-miterlimit="10" d="
		M306.178,364.297c0,3.131,2.539,5.67,5.67,5.67s5.67-2.539,5.67-5.67c0-3.132-2.539-5.67-5.67-5.67
		S306.178,361.166,306.178,364.297"/>
	
		<path fill="none" stroke="#010101" stroke-width="1.1339" stroke-linecap="round" stroke-linejoin="round" stroke-miterlimit="10" d="
		M358.965,272.868c0,3.132,2.539,5.67,5.67,5.67c3.132,0,5.67-2.538,5.67-5.67s-2.539-5.67-5.67-5.67
		C361.503,267.198,358.965,269.736,358.965,272.868"/>
	
		<path fill="none" stroke="#010101" stroke-width="1.1339" stroke-linecap="round" stroke-linejoin="round" stroke-miterlimit="10" d="
		M253.392,272.868c0,3.132,2.539,5.67,5.67,5.67s5.67-2.538,5.67-5.67s-2.539-5.67-5.67-5.67S253.392,269.736,253.392,272.868"/>
	
		<path fill="none" stroke="#010101" stroke-width="1.1339" stroke-linecap="round" stroke-linejoin="round" stroke-miterlimit="10" d="
		M28.347,303.344c0,156.573,126.928,283.501,283.501,283.501S595.35,459.917,595.35,303.344
		c0-156.574-126.928-283.502-283.501-283.502S28.347,146.77,28.347,303.344"/>
	
		<path fill="none" stroke="#010101" stroke-width="1.1339" stroke-linecap="round" stroke-linejoin="round" stroke-miterlimit="10" d="
		M279.246,303.344c0,18.006,14.597,32.603,32.603,32.603s32.603-14.597,32.603-32.603s-14.597-32.603-32.603-32.603
		S279.246,285.338,279.246,303.344"/>
	<path fill="#010101" d="M326.023,91.285h-14.175c-0.313,0-0.567-0.254-0.567-0.567V48.193c0-0.313,0.254-0.567,0.567-0.567h14.175
		c0.313,0,0.567,0.254,0.567,0.567v42.525C326.59,91.031,326.336,91.285,326.023,91.285L326.023,91.285z M312.415,90.151h13.042
		V48.76h-13.042V90.151L312.415,90.151z"/>
	<path fill="#010101" d="M448.294,140.225c-0.119,0-0.236-0.038-0.333-0.108l-11.468-8.332c-0.253-0.184-0.31-0.539-0.125-0.792
		l24.996-34.403c0.185-0.254,0.539-0.309,0.792-0.125l11.468,8.332c0.122,0.088,0.204,0.221,0.227,0.37
		c0.023,0.149-0.013,0.3-0.102,0.422l-24.996,34.403c-0.088,0.122-0.221,0.204-0.37,0.227
		C448.354,140.222,448.324,140.225,448.294,140.225L448.294,140.225z M437.619,131.2l10.55,7.666l24.33-33.486l-10.551-7.666
		L437.619,131.2L437.619,131.2z"/>
	<path fill="#010101" d="M518.448,251.688c-0.239,0-0.461-0.152-0.539-0.392l-4.381-13.481c-0.046-0.143-0.034-0.299,0.034-0.433
		c0.068-0.134,0.187-0.235,0.33-0.282l40.443-13.142c0.3-0.096,0.618,0.067,0.714,0.364l4.381,13.481
		c0.046,0.143,0.034,0.299-0.034,0.433c-0.068,0.134-0.187,0.235-0.33,0.282l-40.443,13.142
		C518.565,251.679,518.506,251.688,518.448,251.688L518.448,251.688z M514.782,238.003l4.03,12.403l39.365-12.791l-4.03-12.403
		L514.782,238.003L514.782,238.003z"/>
	<path fill="#010101" d="M550.131,396.239c-0.059,0-0.118-0.009-0.175-0.028l-40.444-13.141c-0.298-0.097-0.46-0.417-0.364-0.714
		l4.38-13.481c0.097-0.297,0.417-0.462,0.714-0.364l40.443,13.141c0.298,0.097,0.46,0.417,0.364,0.714l-4.38,13.482
		c-0.046,0.143-0.147,0.262-0.282,0.33C550.308,396.218,550.22,396.239,550.131,396.239L550.131,396.239z M510.401,382.167
		l39.366,12.791l4.029-12.404l-39.365-12.79L510.401,382.167L510.401,382.167z"/>
	<path fill="#010101" d="M450.354,518.665c-0.029,0-0.059-0.003-0.089-0.008c-0.148-0.023-0.281-0.104-0.37-0.227L424.9,484.027
		c-0.184-0.253-0.128-0.607,0.125-0.792l11.468-8.332c0.122-0.088,0.271-0.126,0.422-0.101c0.148,0.023,0.281,0.104,0.37,0.227
		l24.996,34.403c0.184,0.253,0.128,0.607-0.125,0.792l-11.468,8.332C450.59,518.627,450.474,518.665,450.354,518.665
		L450.354,518.665z M426.151,483.819l24.329,33.486l10.55-7.665l-24.329-33.486L426.151,483.819L426.151,483.819z"/>
	<path fill="#010101" d="M311.848,559.062h-14.175c-0.313,0-0.567-0.254-0.567-0.567V515.97c0-0.313,0.254-0.567,0.567-0.567h14.175
		c0.313,0,0.567,0.254,0.567,0.567v42.525C312.415,558.809,312.161,559.062,311.848,559.062L311.848,559.062z M298.24,557.928
		h13.041v-41.391H298.24V557.928L298.24,557.928z"/>
	<path fill="#010101" d="M161.874,510.333c-0.116,0-0.232-0.035-0.333-0.108l-11.468-8.332c-0.122-0.089-0.204-0.222-0.227-0.37
		s0.013-0.301,0.102-0.422l24.996-34.403c0.088-0.122,0.221-0.203,0.37-0.227c0.152-0.023,0.301,0.013,0.422,0.101l11.468,8.332
		c0.253,0.185,0.31,0.539,0.125,0.792l-24.996,34.403C162.222,510.252,162.049,510.333,161.874,510.333L161.874,510.333z
		 M151.198,501.309l10.551,7.665l24.329-33.486l-10.55-7.665L151.198,501.309L151.198,501.309z"/>
	<path fill="#010101" d="M69.185,382.757c-0.239,0-0.461-0.152-0.539-0.392l-4.38-13.48c-0.046-0.143-0.034-0.299,0.034-0.433
		c0.068-0.134,0.187-0.235,0.33-0.282l40.444-13.142c0.143-0.046,0.298-0.035,0.433,0.034c0.134,0.068,0.235,0.187,0.282,0.33
		l4.38,13.481c0.046,0.143,0.034,0.299-0.034,0.433c-0.068,0.134-0.187,0.235-0.33,0.282L69.36,382.729
		C69.302,382.748,69.243,382.757,69.185,382.757L69.185,382.757z M65.519,369.073l4.03,12.402l39.366-12.79l-4.03-12.403
		L65.519,369.073L65.519,369.073z"/>
	<path fill="#010101" d="M109.628,238.206c-0.059,0-0.118-0.009-0.175-0.028l-40.444-13.142c-0.143-0.046-0.262-0.148-0.33-0.282
		c-0.068-0.134-0.08-0.29-0.034-0.433l4.38-13.48c0.097-0.297,0.417-0.462,0.714-0.364l40.444,13.141
		c0.143,0.046,0.262,0.148,0.33,0.282c0.068,0.134,0.08,0.29,0.034,0.433l-4.38,13.481c-0.046,0.143-0.148,0.262-0.282,0.33
		C109.805,238.185,109.717,238.206,109.628,238.206L109.628,238.206z M69.899,224.134l39.366,12.791l4.03-12.403l-39.366-12.79
		L69.899,224.134L69.899,224.134z"/>
	<path fill="#010101" d="M186.87,131.893c-0.029,0-0.059-0.002-0.089-0.007c-0.148-0.023-0.281-0.105-0.37-0.227l-24.996-34.403
		c-0.184-0.253-0.128-0.607,0.125-0.792l11.468-8.332c0.122-0.088,0.271-0.123,0.422-0.102c0.148,0.023,0.281,0.105,0.37,0.227
		l24.996,34.403c0.184,0.253,0.128,0.607-0.125,0.792l-11.468,8.332C187.105,131.855,186.989,131.893,186.87,131.893L186.87,131.893
		z M162.666,97.048l24.329,33.486l10.55-7.666l-24.329-33.486L162.666,97.048L162.666,97.048z"/>
	
		<path fill="none" stroke="#010101" stroke-width="1.1339" stroke-linecap="round" stroke-linejoin="round" stroke-miterlimit="10" d="
		M688.328,576.38c0,3.132,2.538,5.67,5.67,5.67c3.131,0,5.67-2.538,5.67-5.67c0-3.131-2.539-5.67-5.67-5.67
		C690.866,570.71,688.328,573.249,688.328,576.38"/>
	
		<line fill="none" stroke="#010101" stroke-width="1.1339" stroke-linecap="round" stroke-linejoin="round" stroke-miterlimit="10" x1="630.493" y1="104.633" x2="630.493" y2="388.135"/>
	
		<path fill="none" stroke="#010101" stroke-width="1.1339" stroke-linecap="round" stroke-linejoin="round" stroke-miterlimit="10" d="
		M658.276,104.633c0,19.729,15.993,35.722,35.722,35.722c19.728,0,35.721-15.993,35.721-35.722
		c0-19.728-15.993-35.721-35.721-35.721C674.27,68.913,658.276,84.906,658.276,104.633"/>
	
		<path fill="none" stroke="#010101" stroke-width="1.1339" stroke-linecap="round" stroke-linejoin="round" stroke-miterlimit="10" d="
		M757.502,104.633c0-35.072-28.432-63.504-63.504-63.504c-35.073,0-63.505,28.432-63.505,63.504"/>
	
		<line fill="none" stroke="#010101" stroke-width="1.1339" stroke-linecap="round" stroke-linejoin="round" stroke-miterlimit="10" x1="757.502" y1="104.633" x2="757.502" y2="388.135"/>
	
		<path fill="none" stroke="#010101" stroke-width="1.1339" stroke-linecap="round" stroke-linejoin="round" stroke-miterlimit="10" d="
		M757.502,388.135c-15.876,26.082-31.752,52.165-31.752,78.247"/>
	
		<path fill="none" stroke="#010101" stroke-width="1.1339" stroke-linecap="round" stroke-linejoin="round" stroke-miterlimit="10" d="
		M725.75,466.382c0,26.082,15.876,52.164,31.752,78.246"/>
	
		<path fill="none" stroke="#010101" stroke-width="1.1339" stroke-linecap="round" stroke-linejoin="round" stroke-miterlimit="10" d="
		M630.493,544.628c0,35.072,28.432,63.505,63.505,63.505c35.072,0,63.504-28.433,63.504-63.505"/>
	
		<path fill="none" stroke="#010101" stroke-width="1.1339" stroke-linecap="round" stroke-linejoin="round" stroke-miterlimit="10" d="
		M630.493,388.135c15.876,26.082,31.752,52.165,31.752,78.247"/>
	
		<path fill="none" stroke="#010101" stroke-width="1.1339" stroke-linecap="round" stroke-linejoin="round" stroke-miterlimit="10" d="
		M662.245,466.382c0,26.082-15.876,52.164-31.752,78.246"/>
	
		<path fill="none" stroke="#010101" stroke-width="1.1339" stroke-linecap="round" stroke-linejoin="round" stroke-miterlimit="10" d="
		M883.964,579.421c0,3.132,2.539,5.67,5.671,5.67c3.131,0,5.67-2.538,5.67-5.67c0-3.131-2.539-5.67-5.67-5.67
		C886.503,573.751,883.964,576.29,883.964,579.421"/>
	
		<line fill="none" stroke="#010101" stroke-width="1.1339" stroke-linecap="round" stroke-linejoin="round" stroke-miterlimit="10" x1="826.13" y1="107.674" x2="826.13" y2="391.176"/>
	
		<path fill="none" stroke="#010101" stroke-width="1.1339" stroke-linecap="round" stroke-linejoin="round" stroke-miterlimit="10" d="
		M853.913,107.674c0,19.729,15.993,35.722,35.722,35.722c19.728,0,35.721-15.993,35.721-35.722
		c0-19.728-15.993-35.721-35.721-35.721C869.906,71.954,853.913,87.947,853.913,107.674"/>
	
		<path fill="none" stroke="#010101" stroke-width="1.1339" stroke-linecap="round" stroke-linejoin="round" stroke-miterlimit="10" d="
		M953.139,107.674c0-35.072-28.432-63.504-63.504-63.504c-35.073,0-63.505,28.432-63.505,63.504"/>
	
		<line fill="none" stroke="#010101" stroke-width="1.1339" stroke-linecap="round" stroke-linejoin="round" stroke-miterlimit="10" x1="953.139" y1="107.674" x2="953.139" y2="391.176"/>
	
		<path fill="none" stroke="#010101" stroke-width="1.1339" stroke-linecap="round" stroke-linejoin="round" stroke-miterlimit="10" d="
		M953.139,391.176c-15.876,26.082-31.752,52.165-31.752,78.247"/>
	
		<path fill="none" stroke="#010101" stroke-width="1.1339" stroke-linecap="round" stroke-linejoin="round" stroke-miterlimit="10" d="
		M921.387,469.423c0,26.082,15.876,52.164,31.752,78.246"/>
	
		<path fill="none" stroke="#010101" stroke-width="1.1339" stroke-linecap="round" stroke-linejoin="round" stroke-miterlimit="10" d="
		M826.13,547.669c0,35.072,28.432,63.504,63.505,63.504c35.072,0,63.504-28.432,63.504-63.504"/>
	
		<path fill="none" stroke="#010101" stroke-width="1.1339" stroke-linecap="round" stroke-linejoin="round" stroke-miterlimit="10" d="
		M826.13,391.176c15.876,26.082,31.752,52.165,31.752,78.247"/>
	
		<path fill="none" stroke="#010101" stroke-width="1.1339" stroke-linecap="round" stroke-linejoin="round" stroke-miterlimit="10" d="
		M857.882,469.423c0,26.082-15.876,52.164-31.752,78.246"/>
</g>
<g id="Layer_3">
</g>
</svg>
