<?xml version="1.0" encoding="utf-8"?>
<!-- Generator: Adobe Illustrator 14.0.0, SVG Export Plug-In . SVG Version: 6.00 Build 43363)  -->
<!DOCTYPE svg PUBLIC "-//W3C//DTD SVG 1.1//EN" "http://www.w3.org/Graphics/SVG/1.1/DTD/svg11.dtd">
<svg version="1.1" id="Layer_1" xmlns="http://www.w3.org/2000/svg" xmlns:xlink="http://www.w3.org/1999/xlink" x="0px" y="0px"
	 width="1190.55px" height="841.89px" viewBox="0 0 1190.55 841.89" enable-background="new 0 0 1190.55 841.89"
	 xml:space="preserve">
<g id="Layer_2">
	
		<path fill="none" stroke="#000000" stroke-width="1.1339" stroke-linecap="round" stroke-linejoin="round" stroke-miterlimit="10" d="
		M28.919,303.363c0,156.573,126.928,283.502,283.501,283.502s283.502-126.929,283.502-283.502
		c0-156.574-126.929-283.501-283.502-283.501S28.919,146.789,28.919,303.363"/>
	
		<path fill="none" stroke="#000000" stroke-width="1.1339" stroke-linecap="round" stroke-linejoin="round" stroke-miterlimit="10" d="
		M280.243,303.363c0,17.771,14.406,32.178,32.177,32.178s32.177-14.407,32.177-32.178s-14.406-32.177-32.177-32.177
		S280.243,285.592,280.243,303.363"/>
	
		<line fill="none" stroke="#000000" stroke-width="1.1339" stroke-linecap="round" stroke-linejoin="round" stroke-miterlimit="10" x1="162.447" y1="96.941" x2="173.914" y2="88.609"/>
	
		<line fill="none" stroke="#000000" stroke-width="1.1339" stroke-linecap="round" stroke-linejoin="round" stroke-miterlimit="10" x1="69.757" y1="224.517" x2="74.137" y2="211.036"/>
	
		<line fill="none" stroke="#000000" stroke-width="1.1339" stroke-linecap="round" stroke-linejoin="round" stroke-miterlimit="10" x1="69.757" y1="382.209" x2="65.377" y2="368.727"/>
	
		<line fill="none" stroke="#000000" stroke-width="1.1339" stroke-linecap="round" stroke-linejoin="round" stroke-miterlimit="10" x1="162.447" y1="509.785" x2="150.978" y2="501.453"/>
	
		<line fill="none" stroke="#000000" stroke-width="1.1339" stroke-linecap="round" stroke-linejoin="round" stroke-miterlimit="10" x1="312.421" y1="558.514" x2="298.246" y2="558.514"/>
	
		<line fill="none" stroke="#000000" stroke-width="1.1339" stroke-linecap="round" stroke-linejoin="round" stroke-miterlimit="10" x1="462.395" y1="509.785" x2="450.927" y2="518.117"/>
	
		<line fill="none" stroke="#000000" stroke-width="1.1339" stroke-linecap="round" stroke-linejoin="round" stroke-miterlimit="10" x1="555.084" y1="382.209" x2="550.704" y2="395.69"/>
	
		<line fill="none" stroke="#000000" stroke-width="1.1339" stroke-linecap="round" stroke-linejoin="round" stroke-miterlimit="10" x1="555.084" y1="224.517" x2="559.464" y2="237.998"/>
	
		<line fill="none" stroke="#000000" stroke-width="1.1339" stroke-linecap="round" stroke-linejoin="round" stroke-miterlimit="10" x1="462.395" y1="96.941" x2="473.863" y2="105.273"/>
	
		<line fill="none" stroke="#000000" stroke-width="1.1339" stroke-linecap="round" stroke-linejoin="round" stroke-miterlimit="10" x1="312.421" y1="48.211" x2="326.596" y2="48.211"/>
	
		<line fill="none" stroke="#000000" stroke-width="1.1339" stroke-linecap="round" stroke-linejoin="round" stroke-miterlimit="10" x1="312.421" y1="48.211" x2="312.421" y2="90.737"/>
	
		<line fill="none" stroke="#000000" stroke-width="1.1339" stroke-linecap="round" stroke-linejoin="round" stroke-miterlimit="10" x1="312.421" y1="90.737" x2="326.596" y2="90.737"/>
	
		<line fill="none" stroke="#000000" stroke-width="1.1339" stroke-linecap="round" stroke-linejoin="round" stroke-miterlimit="10" x1="326.596" y1="48.211" x2="326.596" y2="90.737"/>
	
		<line fill="none" stroke="#000000" stroke-width="1.1339" stroke-linecap="round" stroke-linejoin="round" stroke-miterlimit="10" x1="462.395" y1="96.941" x2="437.399" y2="131.345"/>
	
		<line fill="none" stroke="#000000" stroke-width="1.1339" stroke-linecap="round" stroke-linejoin="round" stroke-miterlimit="10" x1="437.399" y1="131.345" x2="448.867" y2="139.676"/>
	
		<line fill="none" stroke="#000000" stroke-width="1.1339" stroke-linecap="round" stroke-linejoin="round" stroke-miterlimit="10" x1="473.863" y1="105.273" x2="448.867" y2="139.676"/>
	
		<line fill="none" stroke="#000000" stroke-width="1.1339" stroke-linecap="round" stroke-linejoin="round" stroke-miterlimit="10" x1="555.084" y1="224.517" x2="514.64" y2="237.658"/>
	
		<line fill="none" stroke="#000000" stroke-width="1.1339" stroke-linecap="round" stroke-linejoin="round" stroke-miterlimit="10" x1="514.64" y1="237.658" x2="519.021" y2="251.139"/>
	
		<line fill="none" stroke="#000000" stroke-width="1.1339" stroke-linecap="round" stroke-linejoin="round" stroke-miterlimit="10" x1="559.464" y1="237.998" x2="519.021" y2="251.139"/>
	
		<line fill="none" stroke="#000000" stroke-width="1.1339" stroke-linecap="round" stroke-linejoin="round" stroke-miterlimit="10" x1="555.084" y1="382.209" x2="514.64" y2="369.068"/>
	
		<line fill="none" stroke="#000000" stroke-width="1.1339" stroke-linecap="round" stroke-linejoin="round" stroke-miterlimit="10" x1="514.64" y1="369.068" x2="510.26" y2="382.549"/>
	
		<line fill="none" stroke="#000000" stroke-width="1.1339" stroke-linecap="round" stroke-linejoin="round" stroke-miterlimit="10" x1="550.704" y1="395.69" x2="510.26" y2="382.549"/>
	
		<line fill="none" stroke="#000000" stroke-width="1.1339" stroke-linecap="round" stroke-linejoin="round" stroke-miterlimit="10" x1="462.395" y1="509.785" x2="437.399" y2="475.381"/>
	
		<line fill="none" stroke="#000000" stroke-width="1.1339" stroke-linecap="round" stroke-linejoin="round" stroke-miterlimit="10" x1="437.399" y1="475.381" x2="425.931" y2="483.713"/>
	
		<line fill="none" stroke="#000000" stroke-width="1.1339" stroke-linecap="round" stroke-linejoin="round" stroke-miterlimit="10" x1="450.927" y1="518.117" x2="425.931" y2="483.713"/>
	
		<line fill="none" stroke="#000000" stroke-width="1.1339" stroke-linecap="round" stroke-linejoin="round" stroke-miterlimit="10" x1="312.421" y1="558.514" x2="312.421" y2="515.989"/>
	
		<line fill="none" stroke="#000000" stroke-width="1.1339" stroke-linecap="round" stroke-linejoin="round" stroke-miterlimit="10" x1="312.421" y1="515.989" x2="298.246" y2="515.989"/>
	
		<line fill="none" stroke="#000000" stroke-width="1.1339" stroke-linecap="round" stroke-linejoin="round" stroke-miterlimit="10" x1="298.246" y1="558.514" x2="298.246" y2="515.989"/>
	
		<line fill="none" stroke="#000000" stroke-width="1.1339" stroke-linecap="round" stroke-linejoin="round" stroke-miterlimit="10" x1="162.447" y1="509.785" x2="187.442" y2="475.381"/>
	
		<line fill="none" stroke="#000000" stroke-width="1.1339" stroke-linecap="round" stroke-linejoin="round" stroke-miterlimit="10" x1="187.442" y1="475.381" x2="175.974" y2="467.049"/>
	
		<line fill="none" stroke="#000000" stroke-width="1.1339" stroke-linecap="round" stroke-linejoin="round" stroke-miterlimit="10" x1="150.978" y1="501.453" x2="175.974" y2="467.049"/>
	
		<line fill="none" stroke="#000000" stroke-width="1.1339" stroke-linecap="round" stroke-linejoin="round" stroke-miterlimit="10" x1="69.757" y1="382.209" x2="110.201" y2="369.068"/>
	
		<line fill="none" stroke="#000000" stroke-width="1.1339" stroke-linecap="round" stroke-linejoin="round" stroke-miterlimit="10" x1="110.201" y1="369.068" x2="105.821" y2="355.586"/>
	
		<line fill="none" stroke="#000000" stroke-width="1.1339" stroke-linecap="round" stroke-linejoin="round" stroke-miterlimit="10" x1="65.377" y1="368.727" x2="105.821" y2="355.586"/>
	
		<line fill="none" stroke="#000000" stroke-width="1.1339" stroke-linecap="round" stroke-linejoin="round" stroke-miterlimit="10" x1="69.757" y1="224.517" x2="110.201" y2="237.658"/>
	
		<line fill="none" stroke="#000000" stroke-width="1.1339" stroke-linecap="round" stroke-linejoin="round" stroke-miterlimit="10" x1="110.201" y1="237.658" x2="114.581" y2="224.176"/>
	
		<line fill="none" stroke="#000000" stroke-width="1.1339" stroke-linecap="round" stroke-linejoin="round" stroke-miterlimit="10" x1="74.137" y1="211.036" x2="114.581" y2="224.176"/>
	
		<line fill="none" stroke="#000000" stroke-width="1.1339" stroke-linecap="round" stroke-linejoin="round" stroke-miterlimit="10" x1="162.447" y1="96.941" x2="187.442" y2="131.345"/>
	
		<line fill="none" stroke="#000000" stroke-width="1.1339" stroke-linecap="round" stroke-linejoin="round" stroke-miterlimit="10" x1="187.442" y1="131.345" x2="198.91" y2="123.013"/>
	
		<line fill="none" stroke="#000000" stroke-width="1.1339" stroke-linecap="round" stroke-linejoin="round" stroke-miterlimit="10" x1="173.914" y1="88.609" x2="198.91" y2="123.013"/>
	
		<path fill="none" stroke="#000000" stroke-width="1.1339" stroke-linecap="round" stroke-linejoin="round" stroke-miterlimit="10" d="
		M688.2,576.118c0,3.132,2.539,5.67,5.67,5.67s5.67-2.538,5.67-5.67s-2.539-5.67-5.67-5.67S688.2,572.986,688.2,576.118"/>
	
		<path fill="none" stroke="#000000" stroke-width="1.1339" stroke-linecap="round" stroke-linejoin="round" stroke-miterlimit="10" d="
		M688.2,152.637c0,3.131,2.539,5.67,5.67,5.67s5.67-2.539,5.67-5.67c0-3.132-2.539-5.67-5.67-5.67S688.2,149.505,688.2,152.637"/>
	
		<path fill="none" stroke="#000000" stroke-width="1.1339" stroke-linecap="round" stroke-linejoin="round" stroke-miterlimit="10" d="
		M699.54,54.829c0,3.131-2.539,5.67-5.67,5.67s-5.67-2.539-5.67-5.67s2.539-5.67,5.67-5.67S699.54,51.698,699.54,54.829"/>
	
		<line fill="none" stroke="#000000" stroke-width="1.1339" stroke-linecap="round" stroke-linejoin="round" stroke-miterlimit="10" x1="630.792" y1="103.733" x2="630.792" y2="387.235"/>
	
		<path fill="none" stroke="#000000" stroke-width="1.1339" stroke-linecap="round" stroke-linejoin="round" stroke-miterlimit="10" d="
		M658.575,103.733c0,19.494,15.803,35.296,35.295,35.296c19.494,0,35.297-15.802,35.297-35.296
		c0-19.493-15.803-35.296-35.297-35.296C674.378,68.437,658.575,84.24,658.575,103.733"/>
	
		<path fill="none" stroke="#000000" stroke-width="1.1339" stroke-linecap="round" stroke-linejoin="round" stroke-miterlimit="10" d="
		M756.95,103.733c0-34.837-28.242-63.079-63.08-63.079s-63.078,28.242-63.078,63.079"/>
	
		<line fill="none" stroke="#000000" stroke-width="1.1339" stroke-linecap="round" stroke-linejoin="round" stroke-miterlimit="10" x1="756.95" y1="103.733" x2="756.95" y2="387.235"/>
	
		<path fill="none" stroke="#000000" stroke-width="1.1339" stroke-linecap="round" stroke-linejoin="round" stroke-miterlimit="10" d="
		M756.95,387.235c-15.877,26.082-31.541,52.377-31.541,78.672"/>
	
		<path fill="none" stroke="#000000" stroke-width="1.1339" stroke-linecap="round" stroke-linejoin="round" stroke-miterlimit="10" d="
		M725.409,465.907c0,26.295,15.664,52.589,31.541,78.672"/>
	
		<path fill="none" stroke="#000000" stroke-width="1.1339" stroke-linecap="round" stroke-linejoin="round" stroke-miterlimit="10" d="
		M630.792,544.579c0,34.837,28.24,63.079,63.078,63.079s63.08-28.242,63.08-63.079"/>
	
		<path fill="none" stroke="#000000" stroke-width="1.1339" stroke-linecap="round" stroke-linejoin="round" stroke-miterlimit="10" d="
		M630.792,387.235c15.875,26.082,31.539,52.377,31.539,78.672"/>
	
		<path fill="none" stroke="#000000" stroke-width="1.1339" stroke-linecap="round" stroke-linejoin="round" stroke-miterlimit="10" d="
		M662.331,465.907c0,26.295-15.664,52.589-31.539,78.672"/>
	
		<path fill="none" stroke="#000000" stroke-width="1.1339" stroke-linecap="round" stroke-linejoin="round" stroke-miterlimit="10" d="
		M883.692,579.118c0,3.132,2.539,5.67,5.67,5.67s5.67-2.538,5.67-5.67s-2.539-5.67-5.67-5.67S883.692,575.986,883.692,579.118"/>
	
		<path fill="none" stroke="#000000" stroke-width="1.1339" stroke-linecap="round" stroke-linejoin="round" stroke-miterlimit="10" d="
		M883.692,155.637c0,3.131,2.539,5.67,5.67,5.67s5.67-2.539,5.67-5.67c0-3.132-2.539-5.67-5.67-5.67
		S883.692,152.505,883.692,155.637"/>
	
		<path fill="none" stroke="#000000" stroke-width="1.1339" stroke-linecap="round" stroke-linejoin="round" stroke-miterlimit="10" d="
		M895.031,57.829c0,3.131-2.539,5.67-5.67,5.67s-5.67-2.539-5.67-5.67s2.539-5.67,5.67-5.67S895.031,54.698,895.031,57.829"/>
	
		<line fill="none" stroke="#000000" stroke-width="1.1339" stroke-linecap="round" stroke-linejoin="round" stroke-miterlimit="10" x1="826.283" y1="106.733" x2="826.283" y2="390.235"/>
	
		<path fill="none" stroke="#000000" stroke-width="1.1339" stroke-linecap="round" stroke-linejoin="round" stroke-miterlimit="10" d="
		M854.067,106.733c0,19.494,15.803,35.296,35.295,35.296c19.494,0,35.297-15.802,35.297-35.296
		c0-19.493-15.803-35.296-35.297-35.296C869.869,71.437,854.067,87.24,854.067,106.733"/>
	
		<path fill="none" stroke="#000000" stroke-width="1.1339" stroke-linecap="round" stroke-linejoin="round" stroke-miterlimit="10" d="
		M952.442,106.733c0-34.837-28.242-63.079-63.08-63.079s-63.078,28.242-63.078,63.079"/>
	
		<line fill="none" stroke="#000000" stroke-width="1.1339" stroke-linecap="round" stroke-linejoin="round" stroke-miterlimit="10" x1="952.442" y1="106.733" x2="952.442" y2="390.235"/>
	
		<path fill="none" stroke="#000000" stroke-width="1.1339" stroke-linecap="round" stroke-linejoin="round" stroke-miterlimit="10" d="
		M952.442,390.235c-15.877,26.082-31.541,52.377-31.541,78.672"/>
	
		<path fill="none" stroke="#000000" stroke-width="1.1339" stroke-linecap="round" stroke-linejoin="round" stroke-miterlimit="10" d="
		M920.901,468.907c0,26.295,15.664,52.589,31.541,78.672"/>
	
		<path fill="none" stroke="#000000" stroke-width="1.1339" stroke-linecap="round" stroke-linejoin="round" stroke-miterlimit="10" d="
		M826.283,547.579c0,34.837,28.24,63.079,63.078,63.079s63.08-28.242,63.08-63.079"/>
	
		<path fill="none" stroke="#000000" stroke-width="1.1339" stroke-linecap="round" stroke-linejoin="round" stroke-miterlimit="10" d="
		M826.283,390.235c15.875,26.082,31.539,52.377,31.539,78.672"/>
	
		<path fill="none" stroke="#000000" stroke-width="1.1339" stroke-linecap="round" stroke-linejoin="round" stroke-miterlimit="10" d="
		M857.823,468.907c0,26.295-15.664,52.589-31.539,78.672"/>
	
		<path fill="none" stroke="#000000" stroke-width="1.1339" stroke-linecap="round" stroke-linejoin="round" stroke-miterlimit="10" d="
		M782.601,500.837c0,3.131,2.539,5.67,5.67,5.67s5.67-2.539,5.67-5.67c0-3.132-2.539-5.67-5.67-5.67
		S782.601,497.706,782.601,500.837"/>
	
		<path fill="none" stroke="#000000" stroke-width="1.1339" stroke-linecap="round" stroke-linejoin="round" stroke-miterlimit="10" d="
		M677.396,501.049c0,3.132,2.539,5.671,5.67,5.671s5.67-2.539,5.67-5.671s-2.539-5.67-5.67-5.67S677.396,497.917,677.396,501.049"/>
	
		<path fill="none" stroke="#000000" stroke-width="1.1339" stroke-linecap="round" stroke-linejoin="round" stroke-miterlimit="10" d="
		M730.183,592.054c0,3.131,2.538,5.67,5.67,5.67c3.131,0,5.67-2.539,5.67-5.67c0-3.133-2.539-5.671-5.67-5.671
		C732.721,586.383,730.183,588.921,730.183,592.054"/>
	
		<path fill="none" stroke="#000000" stroke-width="1.1339" stroke-linecap="round" stroke-linejoin="round" stroke-miterlimit="10" d="
		M703.675,531.526c0,17.771,14.406,32.178,32.178,32.178c17.771,0,32.177-14.407,32.177-32.178s-14.406-32.177-32.177-32.177
		C718.081,499.349,703.675,513.755,703.675,531.526"/>
	
		<path fill="none" stroke="#0000FF" stroke-width="1.1339" stroke-linecap="round" stroke-linejoin="round" stroke-miterlimit="10" d="
		M359.353,272.719c0,3.131,2.539,5.67,5.67,5.67s5.67-2.539,5.67-5.67s-2.539-5.67-5.67-5.67S359.353,269.588,359.353,272.719"/>
	
		<path fill="none" stroke="#0000FF" stroke-width="1.1339" stroke-linecap="round" stroke-linejoin="round" stroke-miterlimit="10" d="
		M254.148,272.932c0,3.132,2.539,5.67,5.67,5.67s5.67-2.539,5.67-5.67c0-3.131-2.539-5.67-5.67-5.67S254.148,269.8,254.148,272.932"
		/>
	
		<path fill="none" stroke="#0000FF" stroke-width="1.1339" stroke-linecap="round" stroke-linejoin="round" stroke-miterlimit="10" d="
		M306.935,363.936c0,3.131,2.539,5.67,5.67,5.67s5.67-2.539,5.67-5.67c0-3.132-2.539-5.67-5.67-5.67
		S306.935,360.804,306.935,363.936"/>
</g>
<g id="Layer_4">
	<line fill="none" stroke="#69BD45" x1="382.332" y1="88.162" x2="391.092" y2="61.202"/>
	<line fill="none" stroke="#69BD45" x1="338.535" y1="222.957" x2="347.294" y2="195.997"/>
	<line fill="none" stroke="#69BD45" x1="347.294" y1="195.997" x2="356.054" y2="169.038"/>
	<line fill="none" stroke="#69BD45" x1="356.054" y1="169.038" x2="364.813" y2="142.079"/>
	<line fill="none" stroke="#69BD45" x1="364.813" y1="142.079" x2="373.573" y2="115.119"/>
	<line fill="none" stroke="#69BD45" x1="373.573" y1="115.119" x2="382.333" y2="88.16"/>
	<line fill="none" stroke="#69BD45" x1="277.537" y1="410.689" x2="286.296" y2="383.73"/>
	<line fill="none" stroke="#69BD45" x1="268.777" y1="437.648" x2="277.537" y2="410.689"/>
	<line fill="none" stroke="#69BD45" x1="260.018" y1="464.607" x2="268.777" y2="437.648"/>
	<line fill="none" stroke="#69BD45" x1="251.258" y1="491.566" x2="260.018" y2="464.607"/>
	<line fill="none" stroke="#69BD45" x1="242.498" y1="518.527" x2="251.258" y2="491.566"/>
	<line fill="none" stroke="#69BD45" x1="233.738" y1="545.486" x2="242.498" y2="518.527"/>
	<line fill="none" stroke="#69BD45" x1="338.535" y1="222.957" x2="312.421" y2="303.326"/>
	<line fill="none" stroke="#69BD45" x1="312.421" y1="303.326" x2="286.308" y2="383.696"/>
	<line fill="none" stroke="#69BD45" x1="495.46" y1="170.354" x2="518.393" y2="153.691"/>
	<line fill="none" stroke="#69BD45" x1="380.796" y1="253.662" x2="403.729" y2="237"/>
	<line fill="none" stroke="#69BD45" x1="403.729" y1="237" x2="426.663" y2="220.338"/>
	<line fill="none" stroke="#69BD45" x1="426.663" y1="220.338" x2="449.596" y2="203.677"/>
	<line fill="none" stroke="#69BD45" x1="449.596" y1="203.677" x2="472.53" y2="187.014"/>
	<line fill="none" stroke="#69BD45" x1="472.53" y1="187.014" x2="495.462" y2="170.354"/>
	<line fill="none" stroke="#69BD45" x1="221.102" y1="369.688" x2="244.035" y2="353.025"/>
	<line fill="none" stroke="#69BD45" x1="198.169" y1="386.349" x2="221.102" y2="369.688"/>
	<line fill="none" stroke="#69BD45" x1="175.236" y1="403.011" x2="198.169" y2="386.349"/>
	<line fill="none" stroke="#69BD45" x1="152.303" y1="419.672" x2="175.236" y2="403.011"/>
	<line fill="none" stroke="#69BD45" x1="129.369" y1="436.335" x2="152.303" y2="419.672"/>
	<line fill="none" stroke="#69BD45" x1="106.437" y1="452.996" x2="129.369" y2="436.335"/>
	<line fill="none" stroke="#69BD45" x1="380.796" y1="253.662" x2="312.43" y2="303.332"/>
	<line fill="none" stroke="#69BD45" x1="312.43" y1="303.332" x2="244.064" y2="353.004"/>
	<line fill="none" stroke="#69BD45" x1="538.671" y1="303.344" x2="567.019" y2="303.344"/>
	<line fill="none" stroke="#69BD45" x1="396.938" y1="303.344" x2="425.286" y2="303.344"/>
	<line fill="none" stroke="#69BD45" x1="425.286" y1="303.344" x2="453.633" y2="303.344"/>
	<line fill="none" stroke="#69BD45" x1="453.633" y1="303.344" x2="481.979" y2="303.344"/>
	<line fill="none" stroke="#69BD45" x1="481.979" y1="303.344" x2="510.327" y2="303.344"/>
	<line fill="none" stroke="#69BD45" x1="510.327" y1="303.344" x2="538.673" y2="303.345"/>
	<line fill="none" stroke="#69BD45" x1="199.545" y1="303.345" x2="227.892" y2="303.344"/>
	<line fill="none" stroke="#69BD45" x1="171.199" y1="303.344" x2="199.545" y2="303.345"/>
	<line fill="none" stroke="#69BD45" x1="142.853" y1="303.344" x2="171.199" y2="303.344"/>
	<line fill="none" stroke="#69BD45" x1="114.506" y1="303.344" x2="142.853" y2="303.344"/>
	<line fill="none" stroke="#69BD45" x1="86.158" y1="303.344" x2="114.506" y2="303.344"/>
	<line fill="none" stroke="#69BD45" x1="57.812" y1="303.344" x2="86.158" y2="303.344"/>
	<line fill="none" stroke="#69BD45" x1="396.938" y1="303.344" x2="312.435" y2="303.344"/>
	<line fill="none" stroke="#69BD45" x1="312.435" y1="303.344" x2="227.928" y2="303.344"/>
	<line fill="none" stroke="#69BD45" x1="495.46" y1="436.333" x2="518.394" y2="452.996"/>
	<line fill="none" stroke="#69BD45" x1="380.796" y1="353.025" x2="403.729" y2="369.688"/>
	<line fill="none" stroke="#69BD45" x1="403.729" y1="369.688" x2="426.663" y2="386.35"/>
	<line fill="none" stroke="#69BD45" x1="426.663" y1="386.35" x2="449.596" y2="403.012"/>
	<line fill="none" stroke="#69BD45" x1="449.596" y1="403.012" x2="472.53" y2="419.674"/>
	<line fill="none" stroke="#69BD45" x1="472.53" y1="419.674" x2="495.461" y2="436.335"/>
	<line fill="none" stroke="#69BD45" x1="221.101" y1="237.002" x2="244.035" y2="253.662"/>
	<line fill="none" stroke="#69BD45" x1="198.169" y1="220.34" x2="221.101" y2="237.002"/>
	<line fill="none" stroke="#69BD45" x1="175.236" y1="203.678" x2="198.169" y2="220.34"/>
	<line fill="none" stroke="#69BD45" x1="152.304" y1="187.016" x2="175.236" y2="203.678"/>
	<line fill="none" stroke="#69BD45" x1="129.369" y1="170.354" x2="152.304" y2="187.016"/>
	<line fill="none" stroke="#69BD45" x1="106.437" y1="153.691" x2="129.369" y2="170.354"/>
	<line fill="none" stroke="#69BD45" x1="380.796" y1="353.025" x2="312.431" y2="303.355"/>
	<line fill="none" stroke="#69BD45" x1="312.431" y1="303.355" x2="244.064" y2="253.684"/>
	<line fill="none" stroke="#69BD45" x1="382.332" y1="518.527" x2="391.092" y2="545.486"/>
	<line fill="none" stroke="#69BD45" x1="338.535" y1="383.73" x2="347.294" y2="410.69"/>
	<line fill="none" stroke="#69BD45" x1="347.294" y1="410.69" x2="356.054" y2="437.65"/>
	<line fill="none" stroke="#69BD45" x1="356.054" y1="437.65" x2="364.813" y2="464.609"/>
	<line fill="none" stroke="#69BD45" x1="364.813" y1="464.609" x2="373.573" y2="491.57"/>
	<line fill="none" stroke="#69BD45" x1="373.573" y1="491.57" x2="382.332" y2="518.529"/>
	<line fill="none" stroke="#69BD45" x1="277.535" y1="196" x2="286.296" y2="222.958"/>
	<line fill="none" stroke="#69BD45" x1="268.777" y1="169.041" x2="277.535" y2="196"/>
	<line fill="none" stroke="#69BD45" x1="260.018" y1="142.08" x2="268.777" y2="169.041"/>
	<line fill="none" stroke="#69BD45" x1="251.258" y1="115.121" x2="260.018" y2="142.08"/>
	<line fill="none" stroke="#69BD45" x1="242.498" y1="88.16" x2="251.258" y2="115.121"/>
	<line fill="none" stroke="#69BD45" x1="233.74" y1="61.201" x2="242.498" y2="88.16"/>
	<line fill="none" stroke="#69BD45" x1="338.535" y1="383.73" x2="312.421" y2="303.363"/>
	<line fill="none" stroke="#69BD45" x1="312.421" y1="303.363" x2="286.308" y2="222.992"/>
	<line fill="none" stroke="#69BD45" x1="693.998" y1="104.634" x2="693.998" y2="576.38"/>
	<line fill="none" stroke="#69BD45" x1="889.635" y1="107.675" x2="889.635" y2="579.421"/>
</g>
<g id="Layer_3">
	<circle fill="#ED1F24" cx="391.092" cy="61.202" r="14.173"/>
	<circle fill="#ED1F24" cx="495.46" cy="170.354" r="14.173"/>
	<circle fill="#ED1F24" cx="481.979" cy="303.333" r="14.174"/>
	<circle fill="#ED1F24" cx="403.729" cy="369.687" r="14.174"/>
	<circle fill="#ED1F24" cx="338.535" cy="383.859" r="14.174"/>
	<circle fill="#ED1F24" cx="277.537" cy="410.688" r="14.175"/>
	<circle fill="#ED1F24" cx="198.169" cy="386.348" r="14.174"/>
	<circle fill="#ED1F24" cx="140.513" cy="303.192" r="14.174"/>
	<circle fill="#ED1F24" cx="152.304" cy="187.014" r="14.174"/>
	<circle fill="#ED1F24" cx="242.498" cy="88.158" r="14.174"/>
	<g>
		<path fill="#ED1F24" d="M705.925,402.784h0.562c-0.035,1.178-0.054,2.108-0.054,2.795c0,0.457,0.007,0.943,0.019,1.459l0.044,1.38
			c0.006,0.152,0.009,0.293,0.009,0.422c0,0.933-0.103,1.664-0.308,2.197s-0.531,0.949-0.98,1.248
			c-0.447,0.299-0.959,0.448-1.533,0.448c-0.516,0-1.027-0.125-1.537-0.373c-0.511-0.25-0.942-0.611-1.297-1.086
			c-0.354-0.476-0.607-0.971-0.761-1.485c-0.104-0.352-0.158-0.75-0.158-1.195c0-0.375,0.041-0.778,0.123-1.213l0.659-0.185
			c-0.117,0.521-0.176,0.932-0.176,1.229c0,0.439,0.106,0.857,0.32,1.252c0.213,0.396,0.534,0.703,0.965,0.923
			c0.43,0.221,0.904,0.33,1.426,0.33c0.504,0,0.958-0.106,1.365-0.32c0.405-0.214,0.715-0.539,0.926-0.977
			c0.21-0.437,0.314-0.965,0.314-1.586c0-0.557-0.1-1.154-0.299-1.793c-0.621-0.053-1.594-0.079-2.918-0.079h-4.43
			c-0.797,0-1.573,0.009-2.329,0.026c-0.557,0.018-0.888,0.06-0.993,0.127c-0.104,0.067-0.183,0.176-0.232,0.325
			c-0.049,0.148-0.08,0.572-0.092,1.27h-0.562c0.047-1.084,0.07-1.881,0.07-2.391c0-0.199-0.023-1.116-0.07-2.751h0.562
			c0.012,0.69,0.043,1.112,0.092,1.266c0.051,0.152,0.119,0.258,0.207,0.316c0.116,0.069,0.4,0.114,0.853,0.132
			c0.123,0.006,0.955,0.018,2.496,0.035h4.069c0.797,0,1.575-0.009,2.338-0.026c0.557-0.018,0.887-0.06,0.987-0.127
			c0.104-0.067,0.181-0.176,0.229-0.325C705.883,403.904,705.913,403.481,705.925,402.784z"/>
		<path fill="#ED1F24" d="M693.998,413.295h0.492l0.009,0.826c0.006,0.129,0.028,0.227,0.065,0.294
			c0.038,0.067,0.087,0.119,0.146,0.154c0.117,0.063,0.325,0.103,0.624,0.113c0.076,0.007,0.918,0.026,2.524,0.062h4.548
			c0.979,0,1.989-0.019,3.033-0.053c0.702-0.023,1.097-0.057,1.179-0.098c0.059-0.028,0.1-0.075,0.123-0.141
			c0.041-0.088,0.062-0.492,0.062-1.213h0.521c0.164,1.324,0.369,2.244,0.614,2.76c0.035,0.076,0.054,0.135,0.054,0.176
			s-0.015,0.073-0.039,0.098c-0.027,0.022-0.063,0.034-0.11,0.034c-0.041,0-0.1-0.006-0.176-0.018l-0.29-0.009
			c-1.049-0.029-1.942-0.047-2.681-0.054l-1.371-0.018h-2.566c0.064,0.082,0.264,0.313,0.599,0.694
			c0.334,0.381,0.532,0.605,0.598,0.677c0.104,0.111,0.176,0.199,0.211,0.264c0.059,0.111,0.117,0.278,0.176,0.501
			c0.082,0.306,0.123,0.602,0.123,0.889c0,0.539-0.128,1.05-0.383,1.533c-0.255,0.482-0.576,0.819-0.964,1.006
			c-0.387,0.188-0.959,0.281-1.715,0.281h-1.549l-1.216,0.027c-0.756,0.018-1.182,0.025-1.274,0.025
			c-0.281,0.012-0.486,0.047-0.615,0.105c-0.061,0.023-0.107,0.059-0.146,0.105c-0.036,0.047-0.064,0.117-0.083,0.211
			c-0.006,0.035-0.015,0.34-0.025,0.914h-0.492c0.029-0.668,0.044-1.154,0.044-1.459c0-0.26-0.015-0.789-0.044-1.591
			c0.867,0.081,1.711,0.122,2.531,0.122h2.18c0.68,0,1.169-0.05,1.468-0.148s0.567-0.303,0.805-0.611
			c0.237-0.307,0.355-0.716,0.355-1.226c0-0.322-0.047-0.609-0.142-0.861s-0.234-0.482-0.422-0.694
			c-0.188-0.211-0.392-0.39-0.607-0.535c-0.104-0.07-0.231-0.117-0.383-0.142c-0.149-0.022-0.449-0.035-0.901-0.035h-1.029
			c-1.521,0.029-2.341,0.047-2.465,0.054c-0.293,0.012-0.507,0.047-0.642,0.104c-0.06,0.023-0.107,0.06-0.146,0.105
			c-0.036,0.047-0.064,0.117-0.083,0.211c-0.006,0.041-0.015,0.366-0.025,0.976h-0.492c0.041-1.043,0.062-1.764,0.062-2.162
			C694.06,415.208,694.039,414.456,693.998,413.295z"/>
		<path fill="#ED1F24" d="M695.361,431.419l-0.634-0.281c-0.252-0.404-0.419-0.701-0.501-0.889c-0.122-0.275-0.227-0.59-0.312-0.945
			c-0.084-0.354-0.127-0.727-0.127-1.119c0-0.773,0.161-1.473,0.482-2.1c0.322-0.625,0.805-1.111,1.446-1.459s1.394-0.52,2.254-0.52
			c0.674,0,1.281,0.092,1.824,0.275c0.541,0.186,0.941,0.395,1.199,0.629c0.188,0.17,0.401,0.434,0.646,0.791
			c0.242,0.357,0.436,0.711,0.575,1.062c0.193,0.463,0.29,0.965,0.29,1.504c0,0.656-0.149,1.248-0.448,1.777
			c-0.299,0.531-0.706,0.92-1.222,1.166s-1.099,0.369-1.749,0.369c-0.164,0-0.363-0.012-0.598-0.035
			c-0.082-0.424-0.136-0.801-0.158-1.137c-0.047-0.633-0.07-1.268-0.07-1.9v-2.824c-0.838,0.012-1.517,0.154-2.034,0.436
			c-0.52,0.277-0.9,0.66-1.146,1.15c-0.246,0.488-0.369,0.998-0.369,1.523c0,0.357,0.058,0.715,0.171,1.068
			c0.115,0.355,0.324,0.793,0.629,1.314L695.361,431.419z M698.964,425.785c-0.018,0.164-0.035,0.477-0.053,0.934
			c-0.029,0.875-0.044,1.479-0.044,1.807c0,0.779,0.015,1.295,0.044,1.541c0.14,0.006,0.248,0.01,0.324,0.01
			c0.923,0,1.601-0.189,2.032-0.564c0.434-0.375,0.648-0.877,0.648-1.506c0-0.664-0.237-1.197-0.71-1.604
			S699.987,425.791,698.964,425.785z M703.253,427.419v-0.738l2.603,2.523c0.233,0.229,0.378,0.393,0.431,0.496
			c0.053,0.102,0.079,0.219,0.079,0.348c0,0.217-0.065,0.393-0.198,0.527c-0.131,0.135-0.297,0.201-0.496,0.201
			c-0.129,0-0.248-0.039-0.354-0.119c-0.109-0.078-0.242-0.246-0.4-0.504L703.253,427.419z"/>
		<path fill="#ED1F24" d="M693.998,432.527h0.492l0.009,0.834c0.006,0.123,0.028,0.219,0.065,0.287
			c0.038,0.064,0.087,0.117,0.146,0.152c0.117,0.064,0.324,0.105,0.624,0.123c0.076,0,0.919,0.018,2.526,0.053h1.047
			c0.469,0,0.974-0.01,1.514-0.025c0.346-0.02,0.551-0.047,0.615-0.084c0.064-0.039,0.112-0.105,0.146-0.197
			c0.031-0.094,0.045-0.475,0.039-1.143h0.501c0.164,1.182,0.378,2.043,0.643,2.586c0.059,0.115,0.088,0.193,0.088,0.234
			s-0.016,0.072-0.044,0.098c-0.029,0.023-0.073,0.033-0.132,0.033c-0.041,0-0.089-0.002-0.142-0.008
			c-0.211-0.018-0.656-0.035-1.336-0.053l1.397,1.637c0.176,0.48,0.264,0.936,0.264,1.365c0,0.475-0.097,0.926-0.29,1.35
			c-0.193,0.426-0.438,0.746-0.73,0.961c-0.293,0.213-0.662,0.355-1.108,0.426c-0.264,0.041-1,0.062-2.208,0.062h-1.559
			c-0.762,0-1.28,0.02-1.557,0.061c-0.176,0.029-0.299,0.074-0.365,0.137c-0.067,0.061-0.109,0.156-0.128,0.285l-0.025,0.941h-0.492
			c0.041-0.574,0.062-1.053,0.062-1.434c0-0.328-0.021-0.873-0.062-1.635c1.447,0.082,2.361,0.123,2.742,0.123h1.477
			c0.92,0,1.523-0.035,1.812-0.105c0.393-0.1,0.709-0.326,0.948-0.678c0.24-0.354,0.36-0.777,0.36-1.277
			c0-0.439-0.104-0.842-0.312-1.207c-0.208-0.363-0.447-0.623-0.722-0.777c-0.271-0.156-0.731-0.234-1.377-0.234h-1.063
			c-1.525,0.035-2.351,0.053-2.475,0.053c-0.293,0.012-0.507,0.047-0.642,0.105c-0.054,0.023-0.101,0.059-0.138,0.105
			c-0.039,0.047-0.068,0.119-0.093,0.221c-0.006,0.033-0.015,0.355-0.026,0.965h-0.491c0.041-0.713,0.062-1.359,0.062-1.938
			C694.06,434.439,694.039,433.638,693.998,432.527z"/>
		<path fill="#ED1F24" d="M700.019,444.664l0.123-0.467c0.136,0.006,0.319,0.01,0.555,0.01c0.246,0,0.441-0.004,0.589-0.01
			c0.486,0.744,0.813,1.354,0.983,1.828c0.123,0.363,0.186,0.771,0.186,1.223c0,0.668-0.126,1.23-0.378,1.688
			c-0.252,0.459-0.612,0.799-1.081,1.021c-0.328,0.152-0.776,0.229-1.345,0.229l-1.608-0.035h-2.619
			c-0.281,0-0.482,0.023-0.605,0.07c-0.089,0.035-0.152,0.09-0.193,0.166c-0.035,0.059-0.059,0.182-0.07,0.369l-0.053,0.572H694
			c0.041-0.48,0.062-0.902,0.062-1.268c0-0.352-0.021-0.818-0.062-1.404l1.547,0.043c-0.901-1.195-1.41-1.904-1.524-2.127
			c-0.113-0.225-0.172-0.504-0.172-0.846c0-0.709,0.188-1.262,0.567-1.654c0.377-0.396,0.88-0.596,1.507-0.596
			c0.404,0,0.773,0.068,1.107,0.207s0.599,0.305,0.796,0.496c0.195,0.193,0.341,0.393,0.435,0.59
			c0.158,0.342,0.328,0.893,0.511,1.656c0.182,0.764,0.315,1.521,0.403,2.271c0.558,0.006,0.99-0.061,1.302-0.201
			c0.311-0.141,0.564-0.379,0.765-0.713s0.299-0.74,0.299-1.221c0-0.346-0.047-0.65-0.141-0.91c-0.095-0.262-0.173-0.42-0.237-0.479
			l-0.316-0.158C700.493,444.857,700.218,444.74,700.019,444.664z M698.639,448.697c-0.129-0.762-0.271-1.412-0.431-1.951
			s-0.322-0.92-0.492-1.143c-0.1-0.135-0.249-0.252-0.448-0.352c-0.293-0.152-0.617-0.229-0.976-0.229
			c-0.435,0-0.772,0.119-1.015,0.359c-0.244,0.24-0.365,0.574-0.365,1.002c0,0.395,0.113,0.779,0.338,1.164
			c0.227,0.383,0.564,0.768,1.016,1.146h2.373V448.697z"/>
		<path fill="#ED1F24" d="M693.998,452.099h0.51l0.009,0.826c0.007,0.129,0.028,0.229,0.065,0.293
			c0.039,0.068,0.087,0.119,0.146,0.154c0.116,0.064,0.325,0.104,0.624,0.115c0.076,0.006,0.916,0.025,2.521,0.061h3.646
			c0.979,0,1.987-0.018,3.03-0.053c0.703-0.023,1.095-0.055,1.177-0.096c0.06-0.029,0.101-0.076,0.123-0.141
			c0.041-0.088,0.062-0.492,0.062-1.213h0.518c0.164,1.324,0.369,2.244,0.615,2.76c0.035,0.076,0.053,0.135,0.053,0.176
			s-0.014,0.072-0.039,0.096c-0.026,0.023-0.062,0.035-0.109,0.035c-0.041,0-0.101-0.006-0.175-0.018l-0.291-0.008
			c-1.049-0.029-1.94-0.047-2.679-0.053l-1.371-0.02h-3.529l-0.054,0.098c0.192,0.311,0.536,0.76,1.027,1.346
			c0.334,0.393,1.142,1.273,2.425,2.645c-0.018,0.451-0.026,0.738-0.026,0.861c0,0.117,0.01,0.414,0.026,0.889h-0.492
			c-0.018-0.34-0.041-0.557-0.069-0.65c-0.041-0.129-0.177-0.373-0.404-0.73c-0.356-0.561-0.863-1.236-1.52-2.027l-0.712-0.896
			c-0.485,0.475-1.301,1.295-2.44,2.461c-0.896,0.879-1.419,1.406-1.568,1.586c-0.148,0.178-0.237,0.354-0.268,0.523
			c-0.03,0.168-0.045,0.434-0.045,0.791h-0.396c-0.084-0.436-0.16-0.801-0.229-1.102c-0.069-0.299-0.15-0.641-0.246-1.025
			c0.166-0.199,0.337-0.395,0.512-0.58c0.174-0.189,0.562-0.572,1.158-1.152c1.219-1.189,2.171-2.168,2.856-2.936l-0.044-0.098
			h-0.52c-1.522,0.029-2.347,0.047-2.47,0.055c-0.293,0.006-0.507,0.041-0.643,0.104c-0.053,0.023-0.099,0.061-0.136,0.105
			c-0.039,0.047-0.068,0.117-0.093,0.211c-0.006,0.041-0.015,0.365-0.026,0.975h-0.51c0.047-0.771,0.07-1.473,0.07-2.1
			C694.069,453.757,694.045,453.001,693.998,452.099z"/>
		<path fill="#ED1F24" d="M701.223,462.162h0.501c0.13,1.137,0.375,2.092,0.738,2.865l-0.141,0.193
			c-1.248-0.047-2.203-0.07-2.865-0.07h-1.6c-1.523,0.029-2.348,0.047-2.471,0.053c-0.293,0.006-0.507,0.039-0.642,0.098
			c-0.053,0.029-0.1,0.066-0.136,0.113c-0.039,0.047-0.069,0.117-0.094,0.211c-0.006,0.035-0.015,0.361-0.025,0.977h-0.492
			c0.041-0.891,0.062-1.604,0.062-2.137c0-0.469-0.021-1.236-0.062-2.303h0.492l0.009,0.836c0.006,0.123,0.028,0.217,0.064,0.285
			c0.039,0.066,0.088,0.119,0.146,0.154c0.117,0.064,0.325,0.105,0.624,0.123c0.076,0,0.917,0.018,2.522,0.053h1.547
			c0.873,0,1.392-0.029,1.556-0.088c0.088-0.035,0.154-0.1,0.197-0.189C701.201,463.244,701.223,462.853,701.223,462.162z
			 M706.373,464.306c0,0.275-0.097,0.51-0.29,0.699s-0.428,0.285-0.703,0.285c-0.27,0-0.501-0.096-0.694-0.289
			c-0.192-0.193-0.289-0.426-0.289-0.695c0-0.273,0.097-0.51,0.289-0.703c0.193-0.191,0.426-0.287,0.694-0.287
			c0.275,0,0.51,0.096,0.703,0.287C706.277,463.796,706.373,464.031,706.373,464.306z"/>
		<path fill="#ED1F24" d="M696.653,467.822v0.527c-0.341,0.006-0.609,0.023-0.81,0.053s-0.395,0.08-0.584,0.15
			c-0.19,0.07-0.352,0.178-0.483,0.324s-0.234,0.307-0.308,0.48c-0.074,0.172-0.122,0.348-0.146,0.525s-0.035,0.449-0.035,0.812
			c0,0.598,0.158,1.088,0.475,1.473c0.316,0.383,0.75,0.574,1.301,0.574c0.246,0,0.464-0.061,0.65-0.18
			c0.188-0.121,0.334-0.293,0.439-0.518c0.104-0.227,0.242-0.711,0.413-1.455c0.17-0.744,0.293-1.225,0.368-1.441
			c0.123-0.328,0.272-0.59,0.448-0.783c0.177-0.193,0.398-0.346,0.668-0.461c0.271-0.113,0.562-0.172,0.879-0.172
			c0.464,0,0.891,0.121,1.278,0.365c0.391,0.242,0.707,0.625,0.949,1.146c0.244,0.52,0.365,1.09,0.365,1.705
			c0,0.369-0.052,0.797-0.154,1.283c-0.102,0.484-0.229,0.883-0.382,1.188c-0.65-0.041-1.312-0.07-1.986-0.088v-0.502
			c0.428-0.029,0.709-0.062,0.844-0.102c0.136-0.037,0.255-0.09,0.36-0.152c0.104-0.064,0.219-0.176,0.338-0.334
			c0.121-0.158,0.229-0.363,0.321-0.611c0.094-0.25,0.141-0.555,0.141-0.918c0-0.516-0.151-0.932-0.457-1.244
			c-0.305-0.314-0.662-0.471-1.072-0.471c-0.229,0-0.425,0.045-0.589,0.137c-0.164,0.09-0.297,0.213-0.399,0.365
			s-0.194,0.365-0.276,0.641l-0.36,1.459c-0.188,0.738-0.349,1.246-0.482,1.525c-0.135,0.277-0.345,0.502-0.628,0.672
			c-0.285,0.17-0.626,0.256-1.024,0.256c-0.791,0-1.48-0.328-2.068-0.98c-0.591-0.654-0.885-1.527-0.885-2.623
			c0-0.504,0.076-1.176,0.229-2.014c0.088-0.463,0.148-0.711,0.185-0.746c0.019-0.023,0.048-0.035,0.089-0.035
			s0.091,0.006,0.148,0.018c0.252,0.053,0.498,0.088,0.738,0.105S695.891,467.81,696.653,467.822z"/>
		<path fill="#ED1F24" d="M700.889,475.039h0.369c0.224,0.586,0.422,1.051,0.599,1.396c1.395,0,2.284-0.018,2.672-0.053
			c0.211,0.609,0.437,1.105,0.677,1.486l-0.176,0.211c-0.486-0.064-1.56-0.135-3.217-0.211c-0.007,0.469-0.01,0.75-0.01,0.844
			c0,0.053,0.006,0.354,0.019,0.904c0.006,0.305,0.018,0.533,0.035,0.686l-0.062,0.062l-0.817-0.188
			c0.007-0.369,0.01-0.709,0.01-1.02s-0.003-0.74-0.01-1.291l-3.576-0.053c-0.873-0.018-1.396-0.012-1.564,0.018
			c-0.169,0.031-0.317,0.084-0.444,0.166c-0.125,0.082-0.227,0.189-0.303,0.322c-0.076,0.131-0.135,0.355-0.176,0.672
			c0,0.24,0.01,0.436,0.031,0.584c0.02,0.15,0.07,0.338,0.152,0.566l-0.343,0.105c-0.217-0.275-0.442-0.541-0.677-0.799
			c-0.082-0.225-0.136-0.434-0.163-0.625c-0.025-0.193-0.039-0.416-0.039-0.668c0-0.312,0.035-0.559,0.104-0.742
			c0.07-0.186,0.169-0.355,0.296-0.506c0.125-0.152,0.284-0.277,0.479-0.377c0.194-0.102,0.498-0.164,0.914-0.193
			c0.398,0.006,0.835,0.018,1.31,0.035c0.095,0.006,0.196,0.008,0.309,0.008h3.646v-0.359
			C700.933,475.73,700.918,475.402,700.889,475.039z"/>
		<path fill="#ED1F24" d="M701.223,480.9h0.501c0.13,1.137,0.375,2.092,0.738,2.865l-0.141,0.193
			c-1.248-0.047-2.203-0.07-2.865-0.07h-1.6c-1.523,0.029-2.348,0.047-2.471,0.053c-0.293,0.006-0.507,0.039-0.642,0.098
			c-0.053,0.029-0.1,0.066-0.136,0.113c-0.039,0.047-0.069,0.117-0.094,0.211c-0.006,0.035-0.015,0.361-0.025,0.977h-0.492
			c0.041-0.891,0.062-1.604,0.062-2.137c0-0.469-0.021-1.236-0.062-2.303h0.492l0.009,0.836c0.006,0.123,0.028,0.217,0.064,0.285
			c0.039,0.066,0.088,0.119,0.146,0.154c0.117,0.064,0.325,0.105,0.624,0.123c0.076,0,0.917,0.018,2.522,0.053h1.547
			c0.873,0,1.392-0.029,1.556-0.088c0.088-0.035,0.154-0.1,0.197-0.189C701.201,481.982,701.223,481.591,701.223,480.9z
			 M706.373,483.044c0,0.275-0.097,0.508-0.29,0.699c-0.193,0.189-0.428,0.285-0.703,0.285c-0.27,0-0.501-0.096-0.694-0.289
			c-0.192-0.193-0.289-0.426-0.289-0.695c0-0.275,0.097-0.51,0.289-0.703c0.193-0.191,0.426-0.289,0.694-0.289
			c0.275,0,0.51,0.098,0.703,0.289C706.277,482.535,706.373,482.769,706.373,483.044z"/>
		<path fill="#ED1F24" d="M695.009,493.373l-0.589-0.352c-0.217-0.404-0.375-0.805-0.475-1.199
			c-0.101-0.396-0.149-0.844-0.149-1.342c0-1.23,0.37-2.209,1.112-2.939c0.74-0.729,1.759-1.094,3.054-1.094
			c0.687,0,1.282,0.098,1.788,0.295c0.508,0.195,0.898,0.438,1.174,0.725c0.193,0.193,0.443,0.562,0.752,1.105
			c0.308,0.541,0.505,0.92,0.594,1.137c0.17,0.398,0.255,0.877,0.255,1.434c0,0.527-0.057,1.002-0.167,1.424
			c-0.07,0.27-0.188,0.539-0.353,0.809c-0.451-0.07-0.792-0.121-1.023-0.15c-0.23-0.027-0.651-0.064-1.262-0.111v-0.502
			c0.568-0.035,0.924-0.07,1.063-0.105c0.088-0.023,0.167-0.076,0.237-0.158c0.164-0.211,0.306-0.482,0.427-0.812
			c0.119-0.332,0.18-0.693,0.18-1.086c0-0.492-0.102-0.918-0.303-1.277c-0.203-0.361-0.523-0.641-0.963-0.84
			c-0.44-0.199-0.984-0.299-1.635-0.299c-0.798,0-1.519,0.141-2.162,0.422c-0.645,0.281-1.115,0.664-1.41,1.146
			c-0.297,0.484-0.444,1.023-0.444,1.621c0,0.299,0.036,0.59,0.11,0.875c0.072,0.283,0.212,0.648,0.417,1.094L695.009,493.373z"/>
		<path fill="#ED1F24" d="M698.041,494.33c1.312,0,2.383,0.418,3.213,1.252c0.828,0.836,1.243,1.906,1.243,3.213
			c0,1.23-0.387,2.232-1.16,3.006c-0.772,0.775-1.771,1.16-2.997,1.16c-0.854,0-1.638-0.199-2.347-0.598s-1.265-0.961-1.665-1.688
			c-0.402-0.727-0.604-1.525-0.604-2.398c0-0.68,0.114-1.256,0.344-1.729c0.229-0.471,0.516-0.854,0.86-1.146
			c0.346-0.291,0.7-0.516,1.063-0.668C696.632,494.464,697.315,494.33,698.041,494.33z M698.692,495.992
			c-0.722,0-1.453,0.119-2.197,0.359s-1.287,0.588-1.631,1.041c-0.342,0.455-0.515,0.949-0.515,1.482c0,0.68,0.271,1.248,0.81,1.705
			s1.368,0.686,2.486,0.686c0.933,0,1.735-0.137,2.413-0.41c0.677-0.271,1.154-0.619,1.433-1.041
			c0.279-0.422,0.418-0.887,0.418-1.396c0-0.721-0.261-1.307-0.782-1.754C700.604,496.214,699.793,495.992,698.692,495.992z"/>
		<path fill="#ED1F24" d="M701.232,503.875h0.51c0,0.105,0.023,0.328,0.075,0.668c0.049,0.34,0.135,0.719,0.254,1.135
			c0.121,0.416,0.235,0.73,0.348,0.939c0.035,0.064,0.053,0.117,0.053,0.158s-0.015,0.074-0.044,0.102
			c-0.028,0.025-0.079,0.039-0.148,0.039c-0.029,0-0.101-0.002-0.211-0.008c-0.17-0.012-0.325-0.018-0.466-0.018h-0.933
			c0.92,0.99,1.438,1.607,1.556,1.854c0.158,0.322,0.237,0.803,0.237,1.441c0,0.744-0.169,1.387-0.505,1.926
			c-0.338,0.539-0.773,0.93-1.311,1.172c-0.535,0.244-1.108,0.365-1.719,0.365c-0.369,0-0.718-0.043-1.046-0.127
			c-0.328-0.086-0.637-0.193-0.928-0.326c-0.289-0.131-0.557-0.277-0.799-0.439c-0.244-0.16-0.427-0.311-0.55-0.451
			c-0.076-0.082-0.252-0.295-0.527-0.639c-0.275-0.342-0.515-0.709-0.716-1.098c-0.203-0.391-0.327-0.66-0.374-0.812
			c-0.105-0.334-0.158-0.688-0.158-1.062c0-0.293,0.035-0.578,0.105-0.857c0.069-0.277,0.189-0.592,0.359-0.943h-1.396
			c-1.482,0.029-2.301,0.047-2.452,0.053c-0.287,0.006-0.498,0.041-0.633,0.105c-0.064,0.023-0.115,0.059-0.154,0.109
			c-0.037,0.049-0.065,0.121-0.083,0.215c-0.012,0.053-0.023,0.402-0.035,1.047h-0.501c0.029-0.732,0.044-1.703,0.044-2.91
			c0-0.668-0.015-1.18-0.044-1.537h0.501l0.009,0.834c0.006,0.123,0.027,0.219,0.066,0.285c0.037,0.068,0.086,0.119,0.145,0.154
			c0.117,0.062,0.325,0.104,0.624,0.123c0.076,0.006,0.914,0.021,2.515,0.053h3.12c1.014,0,2.054-0.012,3.119-0.035
			c1.066-0.023,1.647-0.049,1.745-0.074c0.097-0.027,0.17-0.068,0.22-0.127c0.051-0.059,0.084-0.135,0.102-0.229L701.232,503.875z
			 M695.809,506.89c-0.315,0.312-0.564,0.664-0.746,1.062c-0.183,0.398-0.272,0.818-0.272,1.258c0,0.533,0.133,1.018,0.4,1.453
			c0.266,0.438,0.681,0.783,1.242,1.037c0.562,0.256,1.176,0.383,1.837,0.383c0.64,0,1.193-0.121,1.666-0.365
			c0.472-0.242,0.826-0.586,1.062-1.031c0.238-0.443,0.356-0.895,0.356-1.346c0-0.334-0.065-0.664-0.198-0.988
			c-0.131-0.324-0.323-0.617-0.575-0.883c-0.252-0.264-0.492-0.438-0.721-0.525c-0.111-0.035-0.325-0.055-0.643-0.055H695.809
			L695.809,506.89z"/>
		<path fill="#ED1F24" d="M695.361,522.138l-0.634-0.279c-0.252-0.404-0.419-0.699-0.501-0.889
			c-0.122-0.273-0.227-0.592-0.312-0.943c-0.084-0.355-0.127-0.73-0.127-1.121c0-0.773,0.161-1.475,0.482-2.1
			c0.322-0.627,0.805-1.111,1.446-1.459s1.394-0.52,2.254-0.52c0.674,0,1.281,0.094,1.824,0.275
			c0.541,0.188,0.941,0.396,1.199,0.631c0.188,0.17,0.401,0.434,0.646,0.791c0.242,0.355,0.436,0.711,0.575,1.061
			c0.193,0.463,0.29,0.965,0.29,1.504c0,0.656-0.149,1.248-0.448,1.779c-0.299,0.529-0.706,0.918-1.222,1.164
			s-1.099,0.369-1.749,0.369c-0.164,0-0.363-0.012-0.598-0.035c-0.082-0.422-0.136-0.801-0.158-1.135
			c-0.047-0.635-0.07-1.268-0.07-1.902v-2.824c-0.838,0.014-1.517,0.156-2.034,0.438c-0.52,0.275-0.9,0.658-1.146,1.148
			c-0.246,0.488-0.369,0.998-0.369,1.525c0,0.357,0.058,0.713,0.171,1.068c0.115,0.354,0.324,0.791,0.629,1.312L695.361,522.138z
			 M698.964,516.505c-0.018,0.164-0.035,0.475-0.053,0.936c-0.029,0.875-0.044,1.477-0.044,1.805c0,0.781,0.015,1.295,0.044,1.541
			c0.14,0.006,0.248,0.01,0.324,0.01c0.923,0,1.601-0.189,2.032-0.564c0.433-0.375,0.648-0.877,0.648-1.506
			c0-0.664-0.237-1.197-0.71-1.604C700.735,516.716,699.987,516.511,698.964,516.505z"/>
	</g>
	<g>
		<path fill="#ED1F24" d="M901.563,405.825h0.562c-0.035,1.178-0.053,2.108-0.053,2.795c0,0.457,0.006,0.943,0.018,1.459l0.044,1.38
			c0.006,0.152,0.01,0.293,0.01,0.422c0,0.933-0.104,1.664-0.309,2.197s-0.531,0.949-0.98,1.248
			c-0.446,0.299-0.959,0.448-1.532,0.448c-0.517,0-1.028-0.125-1.538-0.373c-0.51-0.25-0.942-0.611-1.296-1.086
			c-0.355-0.476-0.608-0.971-0.761-1.485c-0.105-0.352-0.158-0.75-0.158-1.195c0-0.375,0.041-0.778,0.123-1.213l0.658-0.185
			c-0.117,0.521-0.176,0.932-0.176,1.229c0,0.439,0.107,0.857,0.32,1.252c0.213,0.396,0.535,0.703,0.965,0.923
			c0.43,0.221,0.905,0.33,1.426,0.33c0.504,0,0.958-0.106,1.365-0.32c0.406-0.214,0.715-0.539,0.926-0.977
			c0.21-0.437,0.315-0.965,0.315-1.586c0-0.557-0.101-1.154-0.299-1.793c-0.621-0.053-1.595-0.079-2.919-0.079h-4.43
			c-0.797,0-1.572,0.009-2.329,0.026c-0.557,0.018-0.888,0.06-0.993,0.127c-0.104,0.067-0.183,0.176-0.232,0.325
			c-0.049,0.148-0.08,0.572-0.092,1.27h-0.562c0.047-1.084,0.07-1.881,0.07-2.391c0-0.199-0.023-1.116-0.07-2.751h0.562
			c0.012,0.69,0.043,1.112,0.092,1.266c0.051,0.152,0.119,0.258,0.207,0.316c0.117,0.069,0.4,0.114,0.854,0.132
			c0.122,0.006,0.954,0.018,2.495,0.035h4.069c0.797,0,1.576-0.009,2.338-0.026c0.557-0.018,0.887-0.06,0.988-0.127
			c0.104-0.067,0.18-0.176,0.229-0.325C901.52,406.945,901.55,406.522,901.563,405.825z"/>
		<path fill="#ED1F24" d="M889.635,416.336h0.492l0.009,0.826c0.006,0.129,0.028,0.227,0.065,0.294
			c0.039,0.067,0.087,0.119,0.146,0.154c0.117,0.063,0.325,0.103,0.624,0.113c0.076,0.007,0.918,0.026,2.524,0.062h4.548
			c0.979,0,1.99-0.019,3.033-0.053c0.703-0.023,1.097-0.057,1.179-0.098c0.06-0.028,0.101-0.076,0.123-0.141
			c0.041-0.088,0.062-0.492,0.062-1.213h0.521c0.164,1.324,0.369,2.244,0.615,2.76c0.035,0.076,0.053,0.135,0.053,0.176
			s-0.014,0.073-0.039,0.098c-0.026,0.022-0.062,0.034-0.11,0.034c-0.041,0-0.1-0.006-0.176-0.018l-0.29-0.009
			c-1.049-0.029-1.941-0.047-2.681-0.054l-1.371-0.018h-2.566c0.064,0.082,0.265,0.313,0.599,0.694s0.533,0.605,0.598,0.677
			c0.105,0.111,0.177,0.199,0.211,0.264c0.06,0.111,0.117,0.278,0.177,0.501c0.082,0.305,0.123,0.602,0.123,0.889
			c0,0.539-0.129,1.049-0.384,1.533c-0.255,0.482-0.575,0.818-0.964,1.006c-0.387,0.188-0.959,0.281-1.715,0.281h-1.549
			l-1.215,0.025c-0.756,0.018-1.183,0.027-1.275,0.027c-0.281,0.012-0.486,0.047-0.615,0.104c-0.06,0.023-0.106,0.061-0.146,0.105
			c-0.037,0.047-0.065,0.117-0.083,0.211c-0.006,0.035-0.016,0.34-0.026,0.914h-0.492c0.029-0.668,0.044-1.154,0.044-1.459
			c0-0.258-0.015-0.787-0.044-1.592c0.867,0.082,1.711,0.123,2.531,0.123h2.18c0.681,0,1.169-0.049,1.469-0.148
			c0.299-0.1,0.566-0.303,0.804-0.611c0.238-0.307,0.355-0.715,0.355-1.225c0-0.323-0.047-0.61-0.142-0.862
			c-0.094-0.252-0.233-0.483-0.422-0.694s-0.392-0.39-0.607-0.535c-0.104-0.07-0.231-0.117-0.383-0.142
			c-0.148-0.022-0.448-0.035-0.901-0.035h-1.029c-1.521,0.029-2.34,0.047-2.464,0.054c-0.293,0.012-0.507,0.047-0.643,0.104
			c-0.06,0.023-0.106,0.06-0.146,0.105c-0.037,0.047-0.065,0.116-0.083,0.211c-0.006,0.041-0.016,0.366-0.026,0.976h-0.492
			c0.041-1.043,0.062-1.764,0.062-2.162C889.697,418.25,889.676,417.497,889.635,416.336z"/>
		<path fill="#ED1F24" d="M890.997,434.46l-0.633-0.281c-0.252-0.404-0.419-0.701-0.501-0.889c-0.123-0.275-0.228-0.59-0.312-0.945
			c-0.084-0.354-0.127-0.727-0.127-1.119c0-0.773,0.161-1.473,0.483-2.1c0.321-0.625,0.804-1.111,1.446-1.459
			c0.641-0.348,1.393-0.521,2.254-0.521c0.674,0,1.28,0.094,1.823,0.277c0.541,0.186,0.941,0.395,1.199,0.629
			c0.188,0.17,0.402,0.434,0.646,0.791c0.242,0.357,0.436,0.711,0.575,1.062c0.193,0.463,0.29,0.965,0.29,1.504
			c0,0.654-0.148,1.248-0.447,1.777c-0.3,0.531-0.706,0.92-1.223,1.166c-0.516,0.246-1.099,0.369-1.749,0.369
			c-0.164,0-0.362-0.012-0.598-0.035c-0.082-0.424-0.135-0.801-0.158-1.137c-0.047-0.633-0.07-1.268-0.07-1.9v-2.824
			c-0.838,0.012-1.517,0.154-2.034,0.436c-0.52,0.277-0.9,0.66-1.146,1.15c-0.246,0.488-0.369,0.998-0.369,1.523
			c0,0.357,0.059,0.713,0.171,1.068c0.115,0.354,0.324,0.793,0.63,1.312L890.997,434.46z M894.602,428.826
			c-0.019,0.164-0.035,0.477-0.054,0.934c-0.028,0.875-0.044,1.479-0.044,1.807c0,0.779,0.016,1.295,0.044,1.541
			c0.14,0.006,0.248,0.01,0.324,0.01c0.923,0,1.601-0.189,2.033-0.564s0.647-0.877,0.647-1.506c0-0.664-0.236-1.197-0.71-1.604
			C896.37,429.037,895.623,428.832,894.602,428.826z M898.89,430.46v-0.738l2.603,2.523c0.234,0.229,0.378,0.393,0.431,0.496
			c0.054,0.102,0.079,0.219,0.079,0.348c0,0.217-0.064,0.393-0.198,0.527c-0.131,0.135-0.297,0.201-0.495,0.201
			c-0.13,0-0.248-0.039-0.355-0.119c-0.109-0.078-0.242-0.246-0.4-0.504L898.89,430.46z"/>
		<path fill="#ED1F24" d="M889.635,435.568h0.492l0.009,0.834c0.006,0.123,0.028,0.217,0.065,0.285
			c0.039,0.066,0.087,0.119,0.146,0.154c0.117,0.064,0.324,0.105,0.624,0.123c0.076,0,0.919,0.018,2.526,0.053h1.047
			c0.469,0,0.974-0.01,1.514-0.027c0.347-0.018,0.552-0.045,0.615-0.084c0.065-0.037,0.113-0.104,0.146-0.197
			c0.03-0.094,0.045-0.475,0.038-1.141h0.502c0.164,1.18,0.378,2.043,0.642,2.584c0.06,0.117,0.088,0.195,0.088,0.236
			s-0.015,0.072-0.044,0.096s-0.073,0.035-0.132,0.035c-0.041,0-0.088-0.002-0.142-0.008c-0.211-0.018-0.655-0.035-1.336-0.053
			l1.397,1.637c0.176,0.48,0.264,0.936,0.264,1.365c0,0.475-0.097,0.926-0.29,1.35c-0.192,0.426-0.438,0.746-0.729,0.961
			c-0.293,0.213-0.663,0.355-1.109,0.426c-0.264,0.041-1,0.062-2.208,0.062h-1.558c-0.763,0-1.281,0.02-1.558,0.061
			c-0.176,0.029-0.299,0.074-0.364,0.137c-0.068,0.061-0.11,0.156-0.128,0.285l-0.026,0.941h-0.492
			c0.041-0.574,0.062-1.053,0.062-1.434c0-0.328-0.021-0.873-0.062-1.635c1.447,0.082,2.361,0.123,2.742,0.123h1.478
			c0.92,0,1.522-0.035,1.811-0.105c0.393-0.1,0.709-0.326,0.949-0.678c0.239-0.354,0.359-0.777,0.359-1.277
			c0-0.439-0.104-0.842-0.312-1.207c-0.208-0.363-0.448-0.623-0.722-0.779c-0.272-0.154-0.732-0.232-1.378-0.232h-1.063
			c-1.525,0.035-2.35,0.053-2.475,0.053c-0.293,0.012-0.507,0.047-0.642,0.105c-0.053,0.023-0.1,0.059-0.137,0.105
			c-0.039,0.047-0.069,0.119-0.093,0.219c-0.007,0.035-0.016,0.357-0.026,0.967h-0.492c0.041-0.715,0.062-1.361,0.062-1.939
			C889.697,437.48,889.676,436.679,889.635,435.568z"/>
		<path fill="#ED1F24" d="M895.656,447.705l0.123-0.467c0.135,0.006,0.318,0.01,0.554,0.01c0.246,0,0.442-0.004,0.589-0.01
			c0.486,0.744,0.814,1.354,0.984,1.828c0.123,0.363,0.185,0.771,0.185,1.223c0,0.668-0.126,1.23-0.378,1.688
			c-0.252,0.459-0.612,0.799-1.081,1.021c-0.328,0.152-0.775,0.229-1.345,0.229l-1.608-0.035h-2.619c-0.28,0-0.482,0.023-0.605,0.07
			c-0.088,0.035-0.152,0.09-0.193,0.166c-0.035,0.059-0.059,0.182-0.069,0.369l-0.054,0.572h-0.501
			c0.041-0.48,0.062-0.902,0.062-1.268c0-0.352-0.021-0.818-0.062-1.404l1.548,0.043c-0.902-1.195-1.41-1.904-1.525-2.127
			c-0.113-0.225-0.171-0.506-0.171-0.846c0-0.709,0.188-1.262,0.566-1.654c0.378-0.396,0.88-0.596,1.507-0.596
			c0.404,0,0.773,0.068,1.107,0.207s0.6,0.305,0.796,0.496c0.195,0.193,0.341,0.393,0.436,0.59c0.157,0.342,0.327,0.893,0.51,1.656
			c0.182,0.764,0.315,1.521,0.404,2.271c0.557,0.006,0.989-0.061,1.301-0.201c0.311-0.141,0.565-0.379,0.765-0.713
			c0.2-0.334,0.299-0.74,0.299-1.221c0-0.346-0.047-0.65-0.141-0.91c-0.094-0.262-0.173-0.42-0.237-0.479l-0.315-0.158
			C896.13,447.898,895.854,447.781,895.656,447.705z M894.276,451.738c-0.129-0.762-0.272-1.412-0.432-1.951
			s-0.322-0.92-0.492-1.143c-0.1-0.135-0.248-0.252-0.447-0.352c-0.293-0.152-0.618-0.229-0.977-0.229
			c-0.434,0-0.771,0.119-1.015,0.359c-0.244,0.24-0.365,0.574-0.365,1.002c0,0.395,0.113,0.779,0.338,1.164
			c0.228,0.383,0.564,0.768,1.017,1.146h2.373V451.738z"/>
		<path fill="#ED1F24" d="M889.635,455.14h0.51l0.01,0.826c0.006,0.129,0.027,0.229,0.064,0.293
			c0.039,0.068,0.087,0.119,0.146,0.154c0.115,0.064,0.324,0.104,0.624,0.115c0.075,0.006,0.916,0.025,2.52,0.061h3.646
			c0.978,0,1.987-0.018,3.03-0.053c0.702-0.023,1.095-0.055,1.177-0.096c0.059-0.029,0.1-0.076,0.123-0.141
			c0.041-0.088,0.062-0.492,0.062-1.213h0.519c0.163,1.324,0.368,2.244,0.614,2.76c0.035,0.076,0.054,0.135,0.054,0.176
			s-0.015,0.072-0.039,0.096c-0.027,0.023-0.063,0.035-0.11,0.035c-0.041,0-0.1-0.006-0.175-0.018l-0.291-0.008
			c-1.048-0.029-1.94-0.047-2.678-0.053l-1.371-0.02h-3.53l-0.053,0.098c0.191,0.311,0.536,0.76,1.026,1.346
			c0.334,0.393,1.143,1.271,2.425,2.645c-0.018,0.451-0.026,0.738-0.026,0.861c0,0.117,0.01,0.414,0.026,0.889h-0.491
			c-0.019-0.34-0.041-0.557-0.07-0.65c-0.041-0.129-0.176-0.373-0.404-0.73c-0.356-0.561-0.862-1.236-1.52-2.027l-0.711-0.896
			c-0.486,0.475-1.302,1.295-2.441,2.461c-0.896,0.879-1.419,1.406-1.567,1.586c-0.149,0.178-0.238,0.354-0.269,0.523
			c-0.03,0.168-0.045,0.434-0.045,0.791h-0.395c-0.084-0.436-0.16-0.801-0.229-1.102c-0.068-0.299-0.15-0.641-0.246-1.025
			c0.166-0.199,0.337-0.395,0.512-0.58c0.175-0.189,0.562-0.572,1.158-1.152c1.22-1.189,2.172-2.168,2.856-2.936l-0.044-0.098h-0.52
			c-1.522,0.029-2.347,0.047-2.47,0.055c-0.293,0.006-0.507,0.041-0.642,0.104c-0.053,0.023-0.1,0.061-0.137,0.105
			c-0.039,0.047-0.068,0.117-0.093,0.211c-0.006,0.041-0.015,0.365-0.025,0.975h-0.511c0.047-0.771,0.07-1.473,0.07-2.1
			C889.705,456.798,889.682,456.042,889.635,455.14z"/>
		<path fill="#ED1F24" d="M896.86,465.203h0.501c0.129,1.137,0.375,2.092,0.737,2.865l-0.141,0.193
			c-1.248-0.047-2.203-0.07-2.865-0.07h-1.6c-1.523,0.029-2.348,0.047-2.471,0.053c-0.293,0.006-0.507,0.039-0.642,0.098
			c-0.053,0.029-0.099,0.066-0.136,0.113c-0.039,0.047-0.069,0.117-0.093,0.211c-0.007,0.035-0.016,0.361-0.026,0.977h-0.492
			c0.041-0.891,0.062-1.604,0.062-2.137c0-0.469-0.021-1.236-0.062-2.303h0.492l0.009,0.836c0.006,0.123,0.028,0.217,0.065,0.285
			c0.039,0.066,0.087,0.119,0.146,0.154c0.117,0.064,0.325,0.105,0.624,0.123c0.076,0,0.917,0.018,2.522,0.053h1.547
			c0.873,0,1.392-0.029,1.556-0.088c0.088-0.035,0.154-0.1,0.197-0.189C896.838,466.285,896.86,465.894,896.86,465.203z
			 M902.01,467.347c0,0.275-0.097,0.51-0.29,0.699c-0.192,0.189-0.428,0.285-0.702,0.285c-0.271,0-0.502-0.096-0.694-0.289
			c-0.193-0.193-0.29-0.426-0.29-0.695c0-0.273,0.097-0.51,0.29-0.703c0.192-0.191,0.425-0.287,0.694-0.287
			c0.274,0,0.51,0.096,0.702,0.287C901.913,466.837,902.01,467.072,902.01,467.347z"/>
		<path fill="#ED1F24" d="M892.289,470.863v0.527c-0.34,0.006-0.609,0.023-0.809,0.053c-0.2,0.029-0.396,0.08-0.584,0.15
			c-0.191,0.07-0.353,0.178-0.484,0.324c-0.131,0.146-0.234,0.307-0.307,0.48c-0.074,0.172-0.123,0.348-0.146,0.525
			s-0.035,0.449-0.035,0.812c0,0.598,0.158,1.088,0.475,1.473c0.316,0.383,0.75,0.574,1.302,0.574c0.246,0,0.463-0.061,0.649-0.18
			c0.188-0.121,0.334-0.293,0.439-0.518c0.105-0.227,0.243-0.711,0.413-1.455s0.293-1.225,0.369-1.441
			c0.123-0.328,0.271-0.59,0.448-0.783c0.176-0.193,0.397-0.346,0.668-0.461c0.27-0.113,0.562-0.172,0.879-0.172
			c0.463,0,0.89,0.121,1.277,0.365c0.392,0.242,0.707,0.625,0.949,1.146c0.244,0.52,0.365,1.09,0.365,1.705
			c0,0.369-0.051,0.797-0.154,1.283c-0.102,0.484-0.229,0.883-0.382,1.188c-0.649-0.041-1.312-0.07-1.986-0.088v-0.502
			c0.429-0.029,0.709-0.062,0.845-0.102c0.135-0.037,0.255-0.09,0.359-0.152c0.105-0.064,0.219-0.176,0.338-0.334
			c0.121-0.158,0.229-0.363,0.321-0.611c0.094-0.25,0.142-0.555,0.142-0.918c0-0.516-0.152-0.932-0.457-1.244
			c-0.306-0.314-0.662-0.471-1.072-0.471c-0.229,0-0.426,0.045-0.589,0.137c-0.164,0.09-0.298,0.213-0.4,0.365
			s-0.194,0.365-0.276,0.641l-0.359,1.459c-0.188,0.738-0.35,1.246-0.483,1.525c-0.135,0.277-0.345,0.502-0.628,0.672
			c-0.285,0.17-0.626,0.256-1.023,0.256c-0.791,0-1.481-0.328-2.069-0.98c-0.59-0.654-0.884-1.527-0.884-2.623
			c0-0.504,0.076-1.176,0.229-2.014c0.088-0.463,0.149-0.711,0.186-0.746c0.018-0.023,0.047-0.035,0.088-0.035
			s0.091,0.006,0.148,0.018c0.252,0.053,0.498,0.088,0.738,0.105S891.528,470.851,892.289,470.863z"/>
		<path fill="#ED1F24" d="M896.526,478.08h0.369c0.223,0.586,0.422,1.051,0.598,1.396c1.395,0,2.285-0.018,2.672-0.053
			c0.211,0.609,0.438,1.105,0.677,1.486l-0.176,0.211c-0.486-0.064-1.56-0.135-3.217-0.211c-0.006,0.469-0.009,0.75-0.009,0.844
			c0,0.053,0.006,0.354,0.018,0.904c0.006,0.305,0.018,0.531,0.035,0.686l-0.062,0.062l-0.816-0.188
			c0.006-0.369,0.009-0.709,0.009-1.02s-0.003-0.74-0.009-1.291l-3.577-0.053c-0.873-0.018-1.396-0.012-1.564,0.018
			c-0.169,0.031-0.316,0.084-0.443,0.166c-0.125,0.082-0.228,0.189-0.304,0.322c-0.075,0.131-0.135,0.355-0.176,0.672
			c0,0.24,0.01,0.436,0.031,0.584c0.02,0.15,0.071,0.338,0.153,0.566l-0.344,0.105c-0.217-0.275-0.441-0.541-0.677-0.799
			c-0.082-0.225-0.136-0.434-0.163-0.625c-0.024-0.193-0.039-0.416-0.039-0.668c0-0.312,0.035-0.559,0.105-0.742
			c0.069-0.186,0.168-0.355,0.295-0.506c0.125-0.152,0.285-0.277,0.479-0.377c0.194-0.102,0.498-0.164,0.914-0.193
			c0.398,0.006,0.835,0.018,1.311,0.035c0.094,0.006,0.195,0.008,0.308,0.008h3.646v-0.359
			C896.57,478.771,896.555,478.443,896.526,478.08z"/>
		<path fill="#ED1F24" d="M896.86,483.941h0.501c0.129,1.137,0.375,2.092,0.737,2.865l-0.14,0.193
			c-1.248-0.047-2.203-0.07-2.865-0.07h-1.6c-1.523,0.029-2.347,0.047-2.47,0.055c-0.293,0.006-0.508,0.039-0.643,0.098
			c-0.053,0.029-0.099,0.066-0.136,0.113c-0.039,0.047-0.069,0.115-0.093,0.211c-0.006,0.035-0.016,0.359-0.026,0.977h-0.492
			c0.041-0.891,0.062-1.604,0.062-2.137c0-0.469-0.021-1.236-0.062-2.303h0.492l0.009,0.836c0.006,0.123,0.028,0.217,0.065,0.283
			c0.039,0.066,0.087,0.119,0.146,0.154c0.117,0.064,0.325,0.105,0.624,0.123c0.076,0,0.917,0.02,2.522,0.053h1.547
			c0.873,0,1.392-0.027,1.556-0.088c0.089-0.035,0.154-0.1,0.197-0.188C896.838,485.023,896.86,484.632,896.86,483.941z
			 M902.01,486.085c0,0.275-0.097,0.508-0.29,0.699c-0.192,0.189-0.428,0.285-0.702,0.285c-0.271,0-0.502-0.096-0.694-0.289
			c-0.193-0.193-0.29-0.426-0.29-0.695c0-0.275,0.097-0.51,0.29-0.703c0.192-0.191,0.425-0.289,0.694-0.289
			c0.274,0,0.51,0.098,0.702,0.289C901.913,485.576,902.01,485.81,902.01,486.085z"/>
		<path fill="#ED1F24" d="M890.647,496.414l-0.59-0.352c-0.217-0.404-0.375-0.805-0.475-1.199c-0.1-0.396-0.148-0.844-0.148-1.342
			c0-1.23,0.369-2.209,1.111-2.939c0.74-0.729,1.759-1.094,3.055-1.094c0.686,0,1.281,0.098,1.787,0.295
			c0.508,0.195,0.898,0.438,1.174,0.725c0.193,0.193,0.443,0.562,0.753,1.105c0.307,0.541,0.505,0.92,0.593,1.137
			c0.17,0.398,0.255,0.877,0.255,1.434c0,0.527-0.056,1.002-0.167,1.424c-0.07,0.27-0.188,0.539-0.352,0.809
			c-0.451-0.07-0.793-0.121-1.024-0.15c-0.229-0.027-0.651-0.064-1.261-0.111v-0.502c0.567-0.035,0.923-0.07,1.062-0.105
			c0.088-0.023,0.167-0.076,0.237-0.158c0.164-0.211,0.306-0.482,0.427-0.812c0.119-0.332,0.18-0.693,0.18-1.086
			c0-0.492-0.102-0.918-0.303-1.277c-0.203-0.361-0.522-0.641-0.963-0.84c-0.439-0.199-0.984-0.299-1.635-0.299
			c-0.797,0-1.518,0.141-2.162,0.422s-1.115,0.664-1.41,1.146c-0.297,0.484-0.443,1.023-0.443,1.621c0,0.299,0.035,0.59,0.109,0.875
			c0.072,0.283,0.212,0.648,0.417,1.094L890.647,496.414z"/>
		<path fill="#ED1F24" d="M893.678,497.371c1.312,0,2.383,0.418,3.213,1.252c0.828,0.836,1.243,1.906,1.243,3.213
			c0,1.23-0.387,2.232-1.16,3.006c-0.772,0.775-1.771,1.16-2.997,1.16c-0.854,0-1.638-0.199-2.347-0.598s-1.265-0.961-1.665-1.688
			c-0.402-0.727-0.603-1.525-0.603-2.398c0-0.68,0.114-1.256,0.343-1.729c0.229-0.471,0.516-0.854,0.861-1.146
			c0.345-0.291,0.699-0.516,1.062-0.668C892.27,497.505,892.951,497.371,893.678,497.371z M894.328,499.033
			c-0.721,0-1.453,0.119-2.197,0.359s-1.287,0.588-1.631,1.041c-0.342,0.455-0.514,0.949-0.514,1.482c0,0.68,0.27,1.248,0.809,1.705
			s1.368,0.686,2.487,0.686c0.932,0,1.735-0.137,2.413-0.41c0.676-0.271,1.154-0.619,1.432-1.041
			c0.279-0.422,0.418-0.887,0.418-1.396c0-0.721-0.261-1.307-0.781-1.754C896.241,499.255,895.43,499.033,894.328,499.033z"/>
		<path fill="#ED1F24" d="M896.868,506.916h0.51c0,0.105,0.024,0.328,0.075,0.668c0.049,0.34,0.135,0.719,0.254,1.135
			c0.121,0.416,0.236,0.73,0.348,0.939c0.035,0.064,0.054,0.117,0.054,0.158s-0.016,0.074-0.044,0.102
			c-0.029,0.025-0.079,0.039-0.149,0.039c-0.029,0-0.1-0.002-0.211-0.008c-0.17-0.012-0.325-0.018-0.466-0.018h-0.933
			c0.921,0.99,1.438,1.607,1.557,1.854c0.157,0.322,0.237,0.803,0.237,1.441c0,0.744-0.17,1.387-0.506,1.926
			c-0.338,0.539-0.772,0.93-1.311,1.172c-0.535,0.244-1.108,0.365-1.718,0.365c-0.369,0-0.719-0.043-1.046-0.127
			c-0.328-0.086-0.638-0.193-0.929-0.326c-0.289-0.131-0.557-0.277-0.799-0.439c-0.244-0.16-0.427-0.311-0.55-0.451
			c-0.076-0.082-0.252-0.295-0.527-0.639c-0.274-0.342-0.515-0.709-0.716-1.098c-0.203-0.391-0.327-0.66-0.374-0.812
			c-0.105-0.334-0.158-0.689-0.158-1.062c0-0.295,0.035-0.578,0.105-0.857c0.07-0.277,0.189-0.592,0.359-0.943h-1.396
			c-1.482,0.029-2.3,0.047-2.452,0.053c-0.287,0.006-0.498,0.041-0.633,0.105c-0.064,0.023-0.115,0.059-0.154,0.109
			c-0.037,0.049-0.065,0.121-0.083,0.215c-0.012,0.053-0.023,0.402-0.035,1.047h-0.501c0.029-0.732,0.044-1.703,0.044-2.91
			c0-0.668-0.015-1.18-0.044-1.537h0.501l0.01,0.834c0.006,0.123,0.026,0.219,0.065,0.285c0.037,0.068,0.086,0.119,0.146,0.154
			c0.116,0.062,0.324,0.104,0.623,0.123c0.076,0.006,0.914,0.021,2.515,0.053h3.12c1.014,0,2.054-0.012,3.12-0.035
			c1.065-0.023,1.646-0.049,1.745-0.074c0.096-0.027,0.17-0.068,0.219-0.127c0.051-0.059,0.084-0.135,0.102-0.229L896.868,506.916z
			 M891.446,509.931c-0.316,0.312-0.565,0.664-0.747,1.062c-0.183,0.398-0.272,0.818-0.272,1.258c0,0.533,0.133,1.018,0.4,1.453
			c0.266,0.438,0.681,0.783,1.243,1.037c0.562,0.256,1.175,0.383,1.837,0.383c0.639,0,1.192-0.121,1.666-0.365
			c0.471-0.242,0.826-0.586,1.062-1.031c0.238-0.443,0.356-0.895,0.356-1.346c0-0.334-0.065-0.664-0.198-0.988
			c-0.131-0.324-0.323-0.617-0.575-0.883c-0.252-0.264-0.492-0.438-0.721-0.525c-0.111-0.035-0.325-0.055-0.643-0.055H891.446
			L891.446,509.931z"/>
		<path fill="#ED1F24" d="M890.997,525.179l-0.633-0.279c-0.252-0.404-0.419-0.699-0.501-0.889
			c-0.123-0.273-0.228-0.592-0.312-0.943c-0.084-0.355-0.127-0.73-0.127-1.121c0-0.773,0.161-1.475,0.483-2.1
			c0.321-0.627,0.804-1.111,1.446-1.459c0.641-0.348,1.393-0.52,2.254-0.52c0.674,0,1.28,0.094,1.823,0.275
			c0.541,0.188,0.941,0.396,1.199,0.631c0.188,0.17,0.402,0.434,0.646,0.791c0.242,0.355,0.436,0.711,0.575,1.061
			c0.193,0.463,0.29,0.965,0.29,1.504c0,0.656-0.148,1.248-0.447,1.779c-0.3,0.529-0.706,0.918-1.223,1.164
			c-0.516,0.246-1.099,0.369-1.749,0.369c-0.164,0-0.362-0.012-0.598-0.035c-0.082-0.422-0.135-0.801-0.158-1.135
			c-0.047-0.635-0.07-1.268-0.07-1.902v-2.824c-0.838,0.014-1.517,0.156-2.034,0.438c-0.52,0.275-0.9,0.658-1.146,1.148
			c-0.246,0.488-0.369,0.998-0.369,1.525c0,0.357,0.059,0.713,0.171,1.068c0.115,0.354,0.324,0.791,0.63,1.312L890.997,525.179z
			 M894.602,519.546c-0.019,0.164-0.035,0.475-0.054,0.936c-0.028,0.875-0.044,1.477-0.044,1.805c0,0.781,0.016,1.295,0.044,1.541
			c0.14,0.006,0.248,0.01,0.324,0.01c0.923,0,1.601-0.189,2.033-0.564c0.432-0.375,0.647-0.877,0.647-1.506
			c0-0.664-0.236-1.197-0.71-1.604C896.371,519.757,895.623,519.552,894.602,519.546z"/>
	</g>
</g>
<rect x="0" fill="none" stroke="#69BD45" width="1190.55" height="841.89"/>
</svg>
